               <svg xmlns="http://www.w3.org/2000/svg" xmlns:xlink="http://www.w3.org/1999/xlink" x="0px" y="0px"
                  viewBox="0 0 800 800" style="enable-background:new 0 0 800 800;" xml:space="preserve">
                  <style>
                     .st7 {
                        fill: #ACACAC;
                     }

                     .st8 {
                        fill: #E1111B;
                     }
                  </style>
                  <g id="Layer_4">
                     <g>
                        <path class="st7"
                           d="M298.5,627.8c-1.1,0-2.1-0.4-2.9-1.2c-0.8-0.8-1.2-1.8-1.2-2.9c0-1.1,0.4-2,1.2-2.9c0.8-0.8,1.7-1.2,2.9-1.2 h21.6c5.7,0,10.6,2,14.7,6.1c4.1,4.1,6.1,9,6.1,14.7c0,5.8-2,10.7-6.1,14.8c-4.1,4.1-9,6.1-14.7,6.1h-17.5v18.2 c0,1.1-0.4,2.1-1.2,2.9c-0.8,0.8-1.8,1.2-2.9,1.2c-1.1,0-2.1-0.4-2.9-1.2c-0.8-0.8-1.2-1.7-1.2-2.9v-22.2c0-1.1,0.4-2.1,1.2-2.9 c0.8-0.8,1.7-1.2,2.9-1.2h21.6c3.5,0,6.5-1.2,9-3.7c2.5-2.5,3.7-5.5,3.7-9c0-3.5-1.2-6.5-3.7-9c-2.5-2.5-5.5-3.7-9-3.7H298.5z">
                        </path>
                        <path class="st7"
                           d="M353.9,683.6c-1.1,0-2.1-0.4-2.9-1.2c-0.8-0.8-1.2-1.7-1.2-2.9v-55.8c0-1.1,0.4-2,1.2-2.9 c0.8-0.8,1.7-1.2,2.9-1.2c1.1,0,2.1,0.4,2.9,1.2c0.8,0.8,1.2,1.8,1.2,2.9v51.7h35.4c1.1,0,2.1,0.4,2.9,1.2 c0.8,0.8,1.2,1.8,1.2,2.9c0,1.1-0.4,2.1-1.2,2.9c-0.8,0.8-1.8,1.2-2.9,1.2H353.9z">
                        </path>
                        <path class="st7"
                           d="M463.1,681.8c-0.8,1.2-1.9,1.8-3.4,1.8h-30.2c-1.1,0-2.1-0.4-2.9-1.2c-0.8-0.8-1.2-1.8-1.2-2.9 c0-1.1,0.4-2.1,1.2-2.9c0.8-0.8,1.8-1.2,2.9-1.2h24l-18.2-41.6l-20.7,47.3c-0.7,1.6-1.9,2.5-3.7,2.5c-0.6,0-1.1-0.1-1.6-0.4 c-1-0.4-1.8-1.2-2.1-2.2c-0.4-1-0.4-2.1,0-3.1l24.4-55.8c0.7-1.6,1.9-2.5,3.7-2.5c1.8,0,3,0.8,3.7,2.5l24.4,55.8 C464,679.3,463.9,680.6,463.1,681.8z">
                        </path>
                        <path class="st7"
                           d="M474.1,625.9c-0.6-0.9-0.8-2-0.5-3.1c0.3-1.1,0.9-1.9,1.8-2.5c0.9-0.6,2-0.8,3-0.5c1.1,0.3,2,0.9,2.6,1.8 l18.6,29.4l18.7-29.4c0.6-0.9,1.4-1.6,2.5-1.8c1.1-0.2,2.1-0.1,3.1,0.5c1,0.6,1.5,1.5,1.8,2.5c0.2,1.1,0.1,2.1-0.5,3.1l-21.4,33.9 v19.7c0,1.1-0.4,2.1-1.2,2.9c-0.8,0.8-1.8,1.2-2.9,1.2c-1.1,0-2.1-0.4-2.9-1.2c-0.8-0.8-1.2-1.7-1.2-2.9v-19.7L474.1,625.9z">
                        </path>
                        <path class="st7" d="M445.1,683.6h-39.5"></path>
                        <path class="st7" d="M484.2,683.6"></path>
                        <path class="st7" d="M557.1,683.6"></path>
                        <path class="st7" d="M621.8,683.6"></path>
                     </g>
                     <g>
                        <path class="st7"
                           d="M78.9,722.2c-0.2-0.3-0.3-0.7-0.2-1c0.1-0.4,0.3-0.7,0.6-0.9c0.3-0.2,0.7-0.3,1-0.2c0.4,0.1,0.7,0.3,0.9,0.6 l12,19l12-19c0.2-0.3,0.5-0.5,0.9-0.6c0.4-0.1,0.7,0,1.1,0.2c0.3,0.2,0.5,0.5,0.6,0.9c0.1,0.4,0,0.7-0.2,1l-13,20.6v12.1 c0,0.4-0.1,0.7-0.4,1c-0.3,0.3-0.6,0.4-1,0.4c-0.4,0-0.7-0.1-1-0.4c-0.3-0.3-0.4-0.6-0.4-1v-12.1L78.9,722.2z">
                        </path>
                        <path class="st7"
                           d="M131.2,720.1c5,0,9.3,1.8,12.8,5.3c3.5,3.5,5.3,7.8,5.3,12.8c0,5-1.8,9.3-5.3,12.8c-3.5,3.5-7.8,5.3-12.8,5.3 c-5,0-9.3-1.8-12.8-5.3c-3.5-3.5-5.3-7.8-5.3-12.8c0-5,1.8-9.3,5.3-12.8C121.9,721.8,126.2,720.1,131.2,720.1z M131.2,753.5 c4.2,0,7.8-1.5,10.8-4.5c3-3,4.5-6.6,4.5-10.8c0-4.2-1.5-7.8-4.5-10.8c-3-3-6.6-4.5-10.8-4.5c-4.2,0-7.8,1.5-10.8,4.5 c-3,3-4.5,6.6-4.5,10.8c0,4.2,1.5,7.8,4.5,10.8C123.4,752,127,753.5,131.2,753.5z">
                        </path>
                        <path class="st7"
                           d="M181.5,742.7c0,3.7-1.3,6.9-4,9.6c-2.6,2.6-5.8,4-9.6,4c-3.7,0-6.9-1.3-9.6-4c-2.6-2.7-4-5.9-4-9.6v-21.2 c0-0.4,0.1-0.7,0.4-1c0.3-0.3,0.6-0.4,1-0.4c0.4,0,0.7,0.1,1,0.4c0.3,0.3,0.4,0.6,0.4,1v21.2c0,3,1.1,5.5,3.2,7.6 c2.1,2.1,4.6,3.2,7.6,3.2c3,0,5.5-1.1,7.6-3.2c2.1-2.1,3.2-4.6,3.2-7.6v-21.2c0-0.4,0.1-0.7,0.4-1c0.3-0.3,0.6-0.4,1-0.4 c0.4,0,0.7,0.1,1,0.4c0.3,0.3,0.4,0.6,0.4,1V742.7z">
                        </path>
                        <path class="st7"
                           d="M188,756.3c-0.4,0-0.7-0.1-1-0.4c-0.3-0.3-0.4-0.6-0.4-1v-13.3c0-0.4,0.1-0.7,0.4-1s0.6-0.4,1-0.4h12.9 c2.4,0,4.4-0.8,6.1-2.5c1.7-1.7,2.5-3.7,2.5-6.1c0-2.4-0.8-4.4-2.5-6.1c-1.7-1.7-3.7-2.5-6.1-2.5H188c-0.4,0-0.7-0.1-1-0.4 s-0.4-0.6-0.4-1c0-0.4,0.1-0.7,0.4-1c0.3-0.3,0.6-0.4,1-0.4h12.9c3.2,0,5.8,1.1,8.1,3.3c2.2,2.2,3.4,4.9,3.4,8.1 c0,2.9-1,5.5-2.9,7.6c-2,2.2-4.4,3.4-7.2,3.7l10.2,11.1c0.3,0.3,0.4,0.6,0.4,1c0,0.4-0.2,0.7-0.4,1c-0.3,0.3-0.6,0.4-1,0.4 c-0.4,0-0.7-0.2-1-0.5l-11.9-12.9h-9v11.9c0,0.4-0.1,0.7-0.4,1C188.7,756.1,188.3,756.3,188,756.3z">
                        </path>
                        <path class="st7"
                           d="M232,722.8c-0.4,0-0.7-0.1-1-0.4c-0.3-0.3-0.4-0.6-0.4-1c0-0.4,0.1-0.7,0.4-1c0.3-0.3,0.6-0.4,1-0.4h25.8 c0.4,0,0.7,0.1,1,0.4c0.3,0.3,0.4,0.6,0.4,1c0,0.4-0.1,0.7-0.4,1c-0.3,0.3-0.6,0.4-1,0.4h-11.5v32c0,0.4-0.1,0.7-0.4,1 c-0.3,0.3-0.6,0.4-1,0.4c-0.4,0-0.7-0.1-1-0.4c-0.3-0.3-0.4-0.6-0.4-1v-32H232z">
                        </path>
                        <path class="st7"
                           d="M286,755.6c-0.3,0.4-0.7,0.6-1.2,0.6h-18.1c-0.4,0-0.7-0.1-1-0.4c-0.3-0.3-0.4-0.6-0.4-1c0-0.4,0.1-0.7,0.4-1 c0.3-0.3,0.6-0.4,1-0.4h16l-12.5-28.5l-13.3,30.5c-0.3,0.6-0.7,0.8-1.3,0.8c-0.2,0-0.4,0-0.6-0.1c-0.4-0.2-0.6-0.4-0.7-0.8 c-0.1-0.4-0.1-0.7,0-1.1l14.6-33.4c0.3-0.6,0.7-0.8,1.3-0.8c0.6,0,1,0.3,1.3,0.8l14.6,33.4C286.3,754.8,286.2,755.2,286,755.6z">
                        </path>
                        <path class="st7"
                           d="M306,756.3c-5,0-9.3-1.8-12.8-5.3c-3.5-3.5-5.3-7.8-5.3-12.8c0-5,1.8-9.3,5.3-12.8c3.5-3.5,7.8-5.3,12.8-5.3 c5,0,9.3,1.8,12.8,5.3c0.3,0.3,0.4,0.6,0.4,1c0,0.4-0.1,0.7-0.4,1c-0.3,0.3-0.6,0.4-1,0.4c-0.4,0-0.7-0.1-1-0.4 c-3-3-6.6-4.5-10.8-4.5c-4.2,0-7.8,1.5-10.8,4.5c-3,3-4.5,6.6-4.5,10.8c0,4.2,1.5,7.8,4.5,10.8c3,3,6.6,4.5,10.8,4.5 c4,0,7.5-1.4,10.4-4.1v-9.8h-11.1c-0.4,0-0.7-0.1-1-0.4c-0.3-0.3-0.4-0.6-0.4-1c0-0.4,0.1-0.7,0.4-1c0.3-0.3,0.6-0.4,1-0.4h12.5 c0.4,0,0.7,0.1,1,0.4c0.3,0.3,0.4,0.6,0.4,1V750c0,0.4-0.1,0.7-0.4,1C315.3,754.5,311,756.3,306,756.3z">
                        </path>
                        <path class="st7"
                           d="M325.7,756.3c-0.4,0-0.7-0.1-1-0.4c-0.3-0.3-0.4-0.6-0.4-1v-33.4c0-0.4,0.1-0.7,0.4-1c0.3-0.3,0.6-0.4,1-0.4 c0.4,0,0.7,0.1,1,0.4c0.3,0.3,0.4,0.6,0.4,1v32h22.3c0.4,0,0.7,0.1,1,0.4c0.3,0.3,0.4,0.6,0.4,1c0,0.4-0.1,0.7-0.4,1 c-0.3,0.3-0.6,0.4-1,0.4H325.7z">
                        </path>
                        <path class="st7"
                           d="M357.2,756.3c-0.4,0-0.7-0.1-1-0.4c-0.3-0.3-0.4-0.6-0.4-1v-33.4c0-0.4,0.1-0.7,0.4-1c0.3-0.3,0.6-0.4,1-0.4 c0.4,0,0.7,0.1,1,0.4c0.3,0.3,0.4,0.6,0.4,1v33.4c0,0.4-0.1,0.7-0.4,1C357.9,756.1,357.6,756.3,357.2,756.3z">
                        </path>
                        <path class="st7"
                           d="M365,756.3c-0.4,0-0.7-0.1-1-0.4c-0.3-0.3-0.4-0.6-0.4-1v-33.4c0-0.7,0.3-1.1,0.9-1.3 c0.6-0.2,1.2-0.1,1.6,0.5l23.3,30.2v-29.3c0-0.4,0.1-0.7,0.4-1c0.3-0.3,0.6-0.4,1-0.4c0.4,0,0.7,0.1,1,0.4c0.3,0.3,0.4,0.6,0.4,1 v33.4c0,0.7-0.3,1.1-1,1.3c-0.1,0-0.3,0.1-0.4,0.1c-0.5,0-0.8-0.2-1.1-0.5l-23.3-30.2v29.3c0,0.4-0.1,0.7-0.4,1 C365.7,756.1,365.4,756.3,365,756.3z">
                        </path>
                        <path class="st7"
                           d="M421.6,720.1c0.4,0,0.7,0.1,1,0.4c0.3,0.3,0.4,0.6,0.4,1c0,0.4-0.1,0.7-0.4,1c-0.3,0.3-0.6,0.4-1,0.4h-23 c-0.4,0-0.7-0.1-1-0.4c-0.3-0.3-0.4-0.6-0.4-1c0-0.4,0.1-0.7,0.4-1c0.3-0.3,0.6-0.4,1-0.4H421.6z M421.6,736.8 c0.4,0,0.7,0.1,1,0.4c0.3,0.3,0.4,0.6,0.4,1c0,0.4-0.1,0.7-0.4,1c-0.3,0.3-0.6,0.4-1,0.4h-23c-0.4,0-0.7-0.1-1-0.4 c-0.3-0.3-0.4-0.6-0.4-1c0-0.4,0.1-0.7,0.4-1c0.3-0.3,0.6-0.4,1-0.4H421.6z M423,754.9c0,0.4-0.1,0.7-0.4,1 c-0.3,0.3-0.6,0.4-1,0.4h-23c-0.4,0-0.7-0.1-1-0.4c-0.3-0.3-0.4-0.6-0.4-1c0-0.4,0.1-0.7,0.4-1c0.3-0.3,0.6-0.4,1-0.4h23 c0.4,0,0.7,0.1,1,0.4C422.9,754.1,423,754.5,423,754.9z">
                        </path>
                        <path class="st7"
                           d="M459,756.3c-5,0-9.3-1.8-12.8-5.3c-3.5-3.5-5.3-7.8-5.3-12.8c0-5,1.8-9.3,5.3-12.8c3.5-3.5,7.8-5.3,12.8-5.3 c5,0,9.3,1.8,12.8,5.3c0.3,0.3,0.4,0.6,0.4,1c0,0.4-0.1,0.7-0.4,1c-0.3,0.3-0.6,0.4-1,0.4c-0.4,0-0.7-0.1-1-0.4 c-3-3-6.6-4.5-10.8-4.5c-4.2,0-7.8,1.5-10.8,4.5c-3,3-4.5,6.6-4.5,10.8c0,4.2,1.5,7.8,4.5,10.8c3,3,6.6,4.5,10.8,4.5 c4,0,7.5-1.4,10.4-4.1v-9.8h-11.1c-0.4,0-0.7-0.1-1-0.4c-0.3-0.3-0.4-0.6-0.4-1c0-0.4,0.1-0.7,0.4-1c0.3-0.3,0.6-0.4,1-0.4h12.5 c0.4,0,0.7,0.1,1,0.4c0.3,0.3,0.4,0.6,0.4,1V750c0,0.4-0.1,0.7-0.4,1C468.3,754.5,464,756.3,459,756.3z">
                        </path>
                        <path class="st7"
                           d="M495.4,720.1c5,0,9.3,1.8,12.8,5.3c3.5,3.5,5.3,7.8,5.3,12.8c0,5-1.8,9.3-5.3,12.8c-3.5,3.5-7.8,5.3-12.8,5.3 c-5,0-9.3-1.8-12.8-5.3c-3.5-3.5-5.3-7.8-5.3-12.8c0-5,1.8-9.3,5.3-12.8C486.1,721.8,490.4,720.1,495.4,720.1z M495.4,753.5 c4.2,0,7.8-1.5,10.8-4.5c3-3,4.5-6.6,4.5-10.8c0-4.2-1.5-7.8-4.5-10.8c-3-3-6.6-4.5-10.8-4.5s-7.8,1.5-10.8,4.5 c-3,3-4.5,6.6-4.5,10.8c0,4.2,1.5,7.8,4.5,10.8C487.6,752,491.2,753.5,495.4,753.5z">
                        </path>
                        <path class="st7"
                           d="M542.9,720.1c0.4,0,0.7,0.1,1,0.4c0.3,0.3,0.4,0.6,0.4,1c0,0.4-0.1,0.7-0.4,1c-0.3,0.3-0.6,0.4-1,0.4h-23 c-0.4,0-0.7-0.1-1-0.4s-0.4-0.6-0.4-1c0-0.4,0.1-0.7,0.4-1c0.3-0.3,0.6-0.4,1-0.4H542.9z M542.9,736.8c0.4,0,0.7,0.1,1,0.4 c0.3,0.3,0.4,0.6,0.4,1c0,0.4-0.1,0.7-0.4,1c-0.3,0.3-0.6,0.4-1,0.4h-23c-0.4,0-0.7-0.1-1-0.4s-0.4-0.6-0.4-1c0-0.4,0.1-0.7,0.4-1 c0.3-0.3,0.6-0.4,1-0.4H542.9z M544.3,754.9c0,0.4-0.1,0.7-0.4,1c-0.3,0.3-0.6,0.4-1,0.4h-23c-0.4,0-0.7-0.1-1-0.4 c-0.3-0.3-0.4-0.6-0.4-1c0-0.4,0.1-0.7,0.4-1s0.6-0.4,1-0.4h23c0.4,0,0.7,0.1,1,0.4C544.2,754.1,544.3,754.5,544.3,754.9z">
                        </path>
                        <path class="st7"
                           d="M565.7,753.5c1.9,0,3.6-0.7,4.9-2c1.3-1.3,2-3,2-4.9c0-1.9-0.7-3.6-2-4.9c-1.4-1.4-3-2-4.9-2h-6.6 c-2.7,0-5-1-6.9-2.9c-1.9-1.9-2.9-4.2-2.9-6.9s1-5,2.9-6.9c1.9-1.9,4.2-2.9,6.9-2.9h6.6c2.7,0,5,1,6.9,2.9 c1.9,1.9,2.9,4.2,2.9,6.9c0,0.4-0.1,0.7-0.4,1c-0.3,0.3-0.6,0.4-1,0.4c-0.4,0-0.7-0.1-1-0.4c-0.3-0.3-0.4-0.6-0.4-1 c0-1.9-0.7-3.6-2-4.9c-1.4-1.3-3-2-4.9-2h-6.6c-1.9,0-3.6,0.7-4.9,2c-1.4,1.4-2,3-2,4.9c0,1.9,0.7,3.6,2,4.9 c1.4,1.4,3,2.1,4.9,2.1h6.6c2.7,0,5,1,6.9,2.9c1.9,1.9,2.9,4.2,2.9,6.9c0,2.7-1,5-2.9,6.9c-1.9,1.9-4.2,2.9-6.9,2.9h-6.6 c-2.7,0-5-1-6.9-2.9c-1.9-1.9-2.9-4.2-2.9-6.9c0-0.4,0.1-0.7,0.4-1c0.3-0.3,0.6-0.4,1-0.4c0.4,0,0.7,0.1,1,0.4 c0.3,0.3,0.4,0.6,0.4,1c0,1.9,0.7,3.6,2,4.9c1.4,1.4,3,2,4.9,2H565.7z">
                        </path>
                        <path class="st7"
                           d="M594.8,756.3c-0.4,0-0.7-0.1-1-0.4c-0.3-0.3-0.4-0.6-0.4-1v-33.4c0-0.4,0.1-0.7,0.4-1c0.3-0.3,0.6-0.4,1-0.4 c0.4,0,0.7,0.1,1,0.4c0.3,0.3,0.4,0.6,0.4,1v15.3h21.6v-15.3c0-0.4,0.1-0.7,0.4-1c0.3-0.3,0.6-0.4,1-0.4c0.4,0,0.7,0.1,1,0.4 c0.3,0.3,0.4,0.6,0.4,1v33.4c0,0.4-0.1,0.7-0.4,1c-0.3,0.3-0.6,0.4-1,0.4c-0.4,0-0.7-0.1-1-0.4c-0.3-0.3-0.4-0.6-0.4-1v-15.3 h-21.6v15.3c0,0.4-0.1,0.7-0.4,1C595.5,756.1,595.2,756.3,594.8,756.3z">
                        </path>
                        <path class="st7"
                           d="M650,720.1c0.4,0,0.7,0.1,1,0.4c0.3,0.3,0.4,0.6,0.4,1c0,0.4-0.1,0.7-0.4,1c-0.3,0.3-0.6,0.4-1,0.4h-23 c-0.4,0-0.7-0.1-1-0.4s-0.4-0.6-0.4-1c0-0.4,0.1-0.7,0.4-1c0.3-0.3,0.6-0.4,1-0.4H650z M650,736.8c0.4,0,0.7,0.1,1,0.4 c0.3,0.3,0.4,0.6,0.4,1c0,0.4-0.1,0.7-0.4,1c-0.3,0.3-0.6,0.4-1,0.4h-23c-0.4,0-0.7-0.1-1-0.4s-0.4-0.6-0.4-1c0-0.4,0.1-0.7,0.4-1 c0.3-0.3,0.6-0.4,1-0.4H650z M651.4,754.9c0,0.4-0.1,0.7-0.4,1c-0.3,0.3-0.6,0.4-1,0.4h-23c-0.4,0-0.7-0.1-1-0.4 c-0.3-0.3-0.4-0.6-0.4-1c0-0.4,0.1-0.7,0.4-1s0.6-0.4,1-0.4h23c0.4,0,0.7,0.1,1,0.4C651.3,754.1,651.4,754.5,651.4,754.9z">
                        </path>
                        <path class="st7"
                           d="M657.8,756.3c-0.4,0-0.7-0.1-1-0.4c-0.3-0.3-0.4-0.6-0.4-1v-13.3c0-0.4,0.1-0.7,0.4-1s0.6-0.4,1-0.4h12.9 c2.4,0,4.4-0.8,6.1-2.5c1.7-1.7,2.5-3.7,2.5-6.1c0-2.4-0.8-4.4-2.5-6.1c-1.7-1.7-3.7-2.5-6.1-2.5h-12.9c-0.4,0-0.7-0.1-1-0.4 s-0.4-0.6-0.4-1c0-0.4,0.1-0.7,0.4-1c0.3-0.3,0.6-0.4,1-0.4h12.9c3.2,0,5.8,1.1,8.1,3.3c2.2,2.2,3.4,4.9,3.4,8.1 c0,2.9-1,5.5-2.9,7.6c-2,2.2-4.4,3.4-7.2,3.7l10.2,11.1c0.3,0.3,0.4,0.6,0.4,1c0,0.4-0.2,0.7-0.4,1c-0.3,0.3-0.6,0.4-1,0.4 c-0.4,0-0.7-0.2-1-0.5l-11.9-12.9h-9v11.9c0,0.4-0.1,0.7-0.4,1C658.6,756.1,658.2,756.3,657.8,756.3z">
                        </path>
                        <path class="st7"
                           d="M712,720.1c0.4,0,0.7,0.1,1,0.4c0.3,0.3,0.4,0.6,0.4,1c0,0.4-0.1,0.7-0.4,1c-0.3,0.3-0.6,0.4-1,0.4h-23 c-0.4,0-0.7-0.1-1-0.4c-0.3-0.3-0.4-0.6-0.4-1c0-0.4,0.1-0.7,0.4-1c0.3-0.3,0.6-0.4,1-0.4H712z M712,736.8c0.4,0,0.7,0.1,1,0.4 c0.3,0.3,0.4,0.6,0.4,1c0,0.4-0.1,0.7-0.4,1c-0.3,0.3-0.6,0.4-1,0.4h-23c-0.4,0-0.7-0.1-1-0.4c-0.3-0.3-0.4-0.6-0.4-1 c0-0.4,0.1-0.7,0.4-1c0.3-0.3,0.6-0.4,1-0.4H712z M713.4,754.9c0,0.4-0.1,0.7-0.4,1c-0.3,0.3-0.6,0.4-1,0.4h-23 c-0.4,0-0.7-0.1-1-0.4c-0.3-0.3-0.4-0.6-0.4-1c0-0.4,0.1-0.7,0.4-1c0.3-0.3,0.6-0.4,1-0.4h23c0.4,0,0.7,0.1,1,0.4 C713.2,754.1,713.4,754.5,713.4,754.9z">
                        </path>
                     </g>
                  </g>
                  <g id="Layer_3">
                     <g>
                        <g>
                           <g>
                              <path class="st7"
                                 d="M600.5,216.6L346.6,70l-69.9-40.4c-26.6-15.4-58.5-15.4-85.1,0C164.9,45,149,72.6,149,103.4v373.9 c0,30.8,15.9,58.3,42.6,73.7c13.3,7.7,27.9,11.5,42.6,11.5c14.6,0,29.2-3.8,42.6-11.5l56-32.3l77.1-44.5l190.8-110.1 c26.7-15.4,42.6-43,42.6-73.7C643.1,259.6,627.1,232,600.5,216.6z M566.4,305L362.3,422.8l-27.2,15.7l-92.6,53.4 c-7.6,4.4-14.4,1.5-16.9,0c-2.5-1.5-8.5-5.8-8.5-14.7V103.4c0-8.8,5.9-13.2,8.5-14.7c1.5-0.9,4.6-2.3,8.5-2.3 c2.5,0,5.4,0.6,8.4,2.3l101.6,58.7l222.2,128.3c7.6,4.4,8.5,11.7,8.5,14.7C574.9,293.3,574,300.6,566.4,305z">
                              </path>
                           </g>
                           <path class="st8"
                              d="M409.7,474.2l-133,76.8c-13.3,7.7-27.9,11.5-42.6,11.5c-14.6,0-29.2-3.8-42.6-11.5 c-26.7-15.4-42.6-43-42.6-73.7v-286l68.2,74v211.9c0,8.8,5.9,13.2,8.5,14.7c2.5,1.5,9.3,4.4,16.9,0l119.7-69.1L409.7,474.2z">
                           </path>
                           <path class="st7"
                              d="M643.1,290.3c0,30.8-15.9,58.3-42.6,73.7L409.7,474.2l-77.1,44.5l2.5-80.2l27.2-15.7L566.4,305 c7.6-4.4,8.5-11.7,8.5-14.7c0-2.9-0.8-10.2-8.5-14.7L344.2,147.4l2.4-77.4l253.9,146.6C627.1,232,643.1,259.6,643.1,290.3z">
                           </path>
                        </g>
                     </g>
                  </g>
               </svg>