               <svg xmlns="http://www.w3.org/2000/svg" xmlns:xlink="http://www.w3.org/1999/xlink" id="Layer_11" x="0px"
                  y="0px" viewBox="0 0 150 150" style="enable-background:new 0 0 150 150;" xml:space="preserve">
                  <style>
                     .st0 {
                        fill: #E1111B;
                     }

                     .st1 {
                        fill-rule: evenodd;
                        clip-rule: evenodd;
                        fill: #8E8E8E;
                     }

                     .st2 {
                        fill: #A0A0A0;
                     }
                  </style>
                  <path class="st0"
                     d="M61.4,46.8c-3.3-3.3-7.8-5.3-12.8-5.3c-5,0-9.5,2-12.8,5.3c-3.3,3.3-5.3,7.8-5.3,12.8c0,5,2,9.5,5.3,12.8 c3.3,3.3,7.8,5.3,12.8,5.3c5,0,9.5-2,12.8-5.3c3.3-3.3,5.3-7.8,5.3-12.8C66.7,54.6,64.7,50.1,61.4,46.8 M114.1,46.8 c-3.3-3.3-7.8-5.3-12.8-5.3c-5,0-9.5,2-12.8,5.3c-3.3,3.3-5.3,7.8-5.3,12.8c0,5,2,9.5,5.3,12.8c3.3,3.3,7.8,5.3,12.8,5.3 c5,0,9.5-2,12.8-5.3c3.3-3.3,5.3-7.8,5.3-12.8C119.4,54.6,117.4,50.1,114.1,46.8z M48.7,37.3c6.1,0,11.7,2.5,15.7,6.5 c3.1,3.1,5.3,7.1,6.1,11.6l0,0c1.4-0.7,2.9-1.1,4.4-1.1c1.6,0,3.1,0.4,4.4,1.1l0,0c0.8-4.5,3-8.5,6.1-11.6c4-4,9.6-6.5,15.7-6.5 c6.1,0,11.7,2.5,15.7,6.5c4,4,6.5,9.6,6.5,15.7c0,6.1-2.5,11.7-6.5,15.7c-4,4-9.6,6.5-15.7,6.5c-6.1,0-11.7-2.5-15.7-6.5 c-3.9-3.9-6.3-9.2-6.5-15c-0.4-0.5-1-0.9-1.6-1.2c-0.8-0.4-1.6-0.6-2.5-0.6c-0.9,0-1.8,0.2-2.5,0.6c-0.6,0.3-1.1,0.7-1.6,1.2 c-0.2,5.9-2.6,11.1-6.5,15c-4,4-9.6,6.5-15.7,6.5c-6.1,0-11.7-2.5-15.7-6.5c-4-4-6.5-9.6-6.5-15.7c0-6.1,2.5-11.7,6.5-15.7 C36.9,39.8,42.5,37.3,48.7,37.3z">
                  </path>
                  <path class="st1"
                     d="M97.6,45.5c2.3-0.6,4.7,0.7,5.3,3c0.6,2.3-0.7,4.7-3,5.3c-2.3,0.6-4.7-0.7-5.3-3C93.9,48.5,95.3,46.1,97.6,45.5 M111.7,49.3c1.7,1.7,1.7,4.4,0,6.1c-1.7,1.7-4.4,1.7-6.1,0c-1.7-1.7-1.7-4.4,0-6.1C107.3,47.6,110,47.6,111.7,49.3z M115.5,63.4 c-0.6,2.3-3,3.7-5.3,3c-2.3-0.6-3.7-3-3-5.3c0.6-2.3,3-3.7,5.3-3C114.8,58.7,116.1,61.1,115.5,63.4z M105.1,73.8 c-2.3,0.6-4.7-0.7-5.3-3c-0.6-2.3,0.7-4.7,3-5.3c2.3-0.6,4.7,0.7,5.3,3C108.8,70.8,107.4,73.1,105.1,73.8z M91,70 c-1.7-1.7-1.7-4.4,0-6.1c1.7-1.7,4.4-1.7,6.1,0c1.7,1.7,1.7,4.4,0,6.1C95.4,71.7,92.7,71.7,91,70z M87.2,55.8c0.6-2.3,3-3.7,5.3-3 c2.3,0.6,3.7,3,3,5.3c-0.6,2.3-3,3.7-5.3,3C88,60.5,86.6,58.1,87.2,55.8z M38.3,49.3c1.7-1.7,4.4-1.7,6.1,0c1.7,1.7,1.7,4.4,0,6.1 c-1.7,1.7-4.4,1.7-6.1,0C36.6,53.7,36.6,50.9,38.3,49.3z M52.4,45.5c2.3,0.6,3.7,3,3,5.3c-0.6,2.3-3,3.7-5.3,3c-2.3-0.6-3.7-3-3-5.3 C47.8,46.2,50.1,44.9,52.4,45.5z M62.8,55.8c0.6,2.3-0.7,4.7-3,5.3c-2.3,0.6-4.7-0.7-5.3-3c-0.6-2.3,0.7-4.7,3-5.3 C59.8,52.2,62.2,53.5,62.8,55.8z M59,70c-1.7,1.7-4.4,1.7-6.1,0c-1.7-1.7-1.7-4.4,0-6.1c1.7-1.7,4.4-1.7,6.1,0 C60.7,65.6,60.7,68.3,59,70z M44.9,73.8c-2.3-0.6-3.7-3-3-5.3c0.6-2.3,3-3.7,5.3-3c2.3,0.6,3.7,3,3,5.3C49.5,73,47.2,74.4,44.9,73.8 z M34.5,63.4c-0.6-2.3,0.7-4.7,3-5.3c2.3-0.6,4.7,0.7,5.3,3c0.6,2.3-0.7,4.7-3,5.3C37.5,67.1,35.1,65.7,34.5,63.4z M46.8,57.7 c1-1,2.7-1,3.7,0c1,1,1,2.7,0,3.7c-1,1-2.7,1-3.7,0C45.8,60.5,45.8,58.8,46.8,57.7z M100.7,57.1c1.4-0.4,2.9,0.5,3.2,1.9 c0.4,1.4-0.5,2.9-1.9,3.2c-1.4,0.4-2.9-0.5-3.2-1.9C98.4,58.9,99.3,57.4,100.7,57.1z">
                  </path>
                  <path class="st2"
                     d="M133.4,95.8h4.4v-0.1c0-1.4-0.7-2.2-2.2-2.2C134.3,93.6,133.5,94.3,133.4,95.8 M135.7,91.5 c3.2,0,4.7,1.6,4.7,4.8c0,0.4,0,0.9-0.1,1.3h-6.9c0,1.5,1.1,2.2,3.2,2.2c1.1,0,2.1-0.1,3.1-0.3v2.1c-0.9,0.2-2,0.3-3.3,0.3 c-3.8,0-5.7-1.8-5.7-5.3C130.8,93.2,132.4,91.5,135.7,91.5z M128.8,91.5v10.4h-2.6V91.5H128.8z M128.8,87.8v2.1h-2.6v-2.1H128.8z M114.3,91.5h2.8l2.5,7.3l2.6-7.3h2.8l-4.2,10.4h-2.5L114.3,91.5z M103.2,96.7c0-3.5,1.7-5.2,5.1-5.2c3.4,0,5.1,1.7,5.1,5.2 c0,3.5-1.7,5.2-5.1,5.2C104.9,101.9,103.2,100.2,103.2,96.7z M105.8,96.7c0,2.2,0.8,3.3,2.5,3.3c1.7,0,2.5-1.1,2.5-3.3 c0-2.1-0.8-3.2-2.5-3.2C106.7,93.5,105.8,94.6,105.8,96.7z M86.2,101.9V87.8h2.7l4.8,10.7l4.7-10.7h2.6v14.2h-2.4v-9.9l-3.8,9.9 h-2.2l-3.9-9.9v9.9H86.2z M71.3,101.4v-2.2c1.2,0.5,2.5,0.7,4,0.7c1.1,0,1.7-0.4,1.7-1.1c0-0.7-0.4-1-1.1-1H74c-2.1,0-3.2-1-3.2-3.1 c0-2.2,1.5-3.3,4.6-3.3c1.3,0,2.5,0.2,3.7,0.6v2.2c-1.2-0.5-2.4-0.7-3.8-0.7c-1.4,0-2.1,0.4-2.1,1.1c0,0.7,0.4,1,1.2,1h1.7 c2.3,0,3.5,1,3.5,3.1c0,2.2-1.5,3.3-4.4,3.3C73.8,102,72.5,101.8,71.3,101.4z M62.4,95.8h4.4v-0.1c0-1.4-0.7-2.2-2.2-2.2 C63.2,93.6,62.5,94.3,62.4,95.8z M64.6,91.5c3.2,0,4.7,1.6,4.7,4.8c0,0.4,0,0.9-0.1,1.3h-6.9c0,1.5,1.1,2.2,3.2,2.2 c1.1,0,2.1-0.1,3.1-0.3v2.1c-0.9,0.2-2,0.3-3.3,0.3c-3.8,0-5.7-1.8-5.7-5.3C59.7,93.2,61.4,91.5,64.6,91.5z M50.1,101.4v-2.2 c1.2,0.5,2.5,0.7,4,0.7c1.1,0,1.7-0.4,1.7-1.1c0-0.7-0.4-1-1.1-1h-1.9c-2.1,0-3.2-1-3.2-3.1c0-2.2,1.5-3.3,4.6-3.3 c1.3,0,2.5,0.2,3.7,0.6v2.2c-1.2-0.5-2.4-0.7-3.8-0.7c-1.4,0-2.1,0.4-2.1,1.1c0,0.7,0.4,1,1.2,1h1.7c2.3,0,3.5,1,3.5,3.1 c0,2.2-1.5,3.3-4.4,3.3C52.5,102,51.2,101.8,50.1,101.4z M39.9,101.4v-2.2c1.2,0.5,2.5,0.7,4,0.7c1.1,0,1.7-0.4,1.7-1.1 c0-0.7-0.4-1-1.1-1h-1.9c-2.1,0-3.2-1-3.2-3.1c0-2.2,1.5-3.3,4.6-3.3c1.3,0,2.5,0.2,3.7,0.6v2.2c-1.2-0.5-2.4-0.7-3.8-0.7 c-1.4,0-2.1,0.4-2.1,1.1c0,0.7,0.4,1,1.2,1h1.7c2.3,0,3.5,1,3.5,3.1c0,2.2-1.5,3.3-4.4,3.3C42.4,102,41.1,101.8,39.9,101.4z M34.9,97.6c-0.7-0.1-1.4-0.2-2.1-0.2c-1.3,0-1.9,0.4-1.9,1.3c0,0.9,0.5,1.4,1.6,1.4c0.9,0,1.7-0.3,2.4-0.8V97.6z M28.2,98.7 c0-2.1,1.5-3.1,4.5-3.1c0.7,0,1.4,0.1,2.1,0.2V95c0-0.9-0.7-1.4-2-1.4c-1.1,0-2.4,0.2-3.8,0.5V92c1.4-0.3,2.6-0.5,3.8-0.5 c3.1,0,4.6,1.1,4.6,3.4v7H36L35,101c-0.9,0.6-1.9,0.9-3,0.9C29.5,101.9,28.2,100.8,28.2,98.7z M26.2,87.8v14.2h-2.6V87.8H26.2z M21.4,101.3c-1.1,0.5-2.6,0.8-4.3,0.8c-5,0-7.5-2.5-7.5-7.4c0-4.7,2.5-7,7.6-7c1.6,0,2.9,0.2,4.2,0.7v2.4c-1.2-0.5-2.5-0.8-4-0.8 c-3.4,0-5.1,1.6-5.1,4.7c0,3.4,1.6,5.1,4.8,5.1c0.5,0,1-0.1,1.6-0.2v-4.1h2.6V101.3z">
                  </path>
               </svg>