               <svg xmlns="http://www.w3.org/2000/svg" xmlns:xlink="http://www.w3.org/1999/xlink" id="Layer_2" x="0px"
                  y="0px" viewBox="0 0 5000 5000" style="enable-background:new 0 0 5000 5000;" xml:space="preserve">
                  <style>
                     .st9 {
                        fill-rule: evenodd;
                        clip-rule: evenodd;
                        fill: #E1111B;
                     }

                     .st10 {
                        fill-rule: evenodd;
                        clip-rule: evenodd;
                        fill: #ADADAD;
                     }
                  </style>
                  <path class="st9"
                     d="M3702.7,683.7c-10.5-4.1-15.7-16.3-11.5-26.8c4.2-10.5,16.2-15.7,26.7-11.6l198.3,78.3 c10.5,4.2,15.8,16.3,11.6,26.8c-4.2,10.5-16.3,15.8-26.8,11.6 M3665.1,547.5c-10.2,4.8-22.5,0.3-27.4-9.9 c-4.8-10.3-0.4-22.6,9.9-27.4l151.6-71.1c10.2-4.8,22.5-0.3,27.4,10c4.8,10.2,0.4,22.6-9.9,27.4L3665.1,547.5z M3590.9,434.8 c-6.9,9-19.9,10.5-28.9,3.6c-9-7.1-10.6-20-3.6-28.9l266.3-341c7-9,19.9-10.5,28.9-3.5c9,6.9,10.7,19.9,3.7,28.9L3590.9,434.8z">
                  </path>
                  <path class="st10"
                     d="M2500.2,3273c441.9,0,836.8,54.7,1093,140.1c-340.6-20.1-708.8-31-1093-31c-384.2,0-752.5,10.9-1093,31 C1663.4,3327.8,2058.3,3273,2500.2,3273">
                  </path>
                  <path class="st9"
                     d="M2544,2116l89-100.1c69.7-11.2,137.3-30.8,198.7-57.6c331-144.6,359.1-528.5,271-760.7 c-18.5-48.9-46.6-96.2-82.2-137.7l75.5-39.2l-130.5-15.1c-2.2-1.9-4.4-3.6-6.6-5.4l-58.3-169.8L2852,938.2 c-93.6-35.9-203.4-34.4-317,30.4c-193,110-193.8,325.1-151.5,502.7c12.4,52.5,62.5,56.6,108.3,65.3c68.6,13,137.1,10.5,198.2-4.7 c92.1-22.8,167.5-73.9,201.7-143.4c0.8-1.7,1.7-3.5,2.7-5.6c4.4-9.7,15.9-14.1,25.7-9.7c9.8,4.4,14,15.8,9.6,25.5 c-0.9,2.1-2,4.4-3.1,6.7c-39.4,80.1-124.3,138.8-227.3,164.2c-111.1,27.4-258.8,12.6-360.8-45.7c-38.7-22.1-75-54.8-94.5-91.2 c-32.4,90.1,6.8,187.8,22.2,212.5c-11.6,17.7-89.6,38.1-144.4,32c48.3,68.1,123.6,119.2,189,146.5c-37.8,44.8-96,86-180.9,92.5 c80.1,61.8,182,95.9,289.7,106.8l-77.4,120.5l77.1-12.7l66.8-104c20.3,0.3,40.7-0.2,61-1.4l-87.3,97.1">
                  </path>
                  <path class="st10"
                     d="M2500.2,2295.5c85.6,0,155.5,69.9,155.5,155.5c0,85.6-69.8,155.4-155.5,155.4c-85.7,0-155.5-69.8-155.5-155.4 C2344.8,2365.4,2414.6,2295.5,2500.2,2295.5 M2024.6,2641.2c26.4-81.4,114.4-126.2,195.9-99.8c81.4,26.5,126.3,114.4,99.8,195.9 c-26.5,81.4-114.4,126.2-195.8,99.8C2043,2810.6,1998.2,2722.7,2024.6,2641.2z M2206.4,3200.4c-69.2-50.3-84.7-147.8-34.4-217.1 c50.3-69.2,147.9-84.7,217.1-34.4c69.3,50.3,84.7,147.9,34.4,217.1C2373.2,3235.3,2275.6,3250.7,2206.4,3200.4z M2794.4,3200.2 c-69.2,50.4-166.8,34.9-217.1-34.3c-50.3-69.3-34.9-166.8,34.4-217.1c69.3-50.3,166.8-34.8,217.1,34.4 C2879.1,3052.5,2863.6,3149.9,2794.4,3200.2z M2975.9,2641.1c26.4,81.4-18.4,169.4-99.8,195.8c-81.5,26.4-169.4-18.3-195.9-99.8 c-26.5-81.4,18.4-169.4,99.8-195.9C2861.6,2514.8,2949.4,2559.6,2975.9,2641.1z M2500.2,2111.3c375.7,0,682.1,306.4,682.1,682.1 c0,247.5-133,464.8-331.2,584.3c-115.3-2.1-232.3-3-350.9-3c-118.7,0-235.6,1-350.9,3c-198.2-119.6-331.2-336.9-331.2-584.3 C1818.2,2417.7,2124.6,2111.3,2500.2,2111.3z">
                  </path>
                  <path class="st9"
                     d="M3114.1,1130.8c91.1-98.5,157.9-266.6,128.4-366.4c187.9,160,145.7,462,63,537 c41.2-17.1,163.6-132.5,169.5-132.4c-2.5,220.4-169.3,361.4-308.8,428.2c33-148.4,20.9-318.9-47.6-457.5v-0.2 C3117.2,1136.6,3115.6,1133.7,3114.1,1130.8">
                  </path>
                  <path class="st9"
                     d="M3335.8,470.2c-57.8,120.3-167.5,232.6-299.8,324.3c-23.2,16.2-27.3,44.5-16.2,65.6l30.3,57.7 c12.7,24,34,36.3,61.6,21.3c164.4-89.6,324.5-118.9,494.8-82c23.4,5.2,25.4,10,27.6-16.7C3643.7,719,3513,462,3408.9,382 c-17.4-13.3-26.8-20.7-33.5,6.3c-6.6,26.4,1.5,68.5,15.4,112.5c20.9,66.1,56.1,135.3,79.2,171h-0.1c2.3,3.5,4.7,7,7,10.3 c7.4,10.1,5.1,24.4-5,31.8c-10.1,7.4-24.3,5.2-31.6-4.9c-2.3-3.2-5.2-7.4-8.4-12.4l-0.2-0.1c-24.4-37.8-61.9-111.4-84.2-182.1 C3342.8,499.5,3338.9,484.7,3335.8,470.2">
                  </path>
                  <path class="st10"
                     d="M4039.2,3956.3c44.1,0,80.7,5,110.1,15c29.4,10,52.9,24.3,70.6,43c17.7,18.7,30.2,41.4,37.5,68.1 c7.3,26.7,11,56.4,11,89.1v310.3c-21.4,4.7-51.1,10.2-89.1,16.5c-38,6.3-84.1,9.5-138.1,9.5c-34,0-64.9-3-92.6-9 c-27.7-6-51.5-15.8-71.5-29.5c-20-13.7-35.4-31.5-46.1-53.5c-10.7-22-16-49-16-81.1c0-30.7,6.2-56.7,18.5-78.1 c12.4-21.3,28.9-38.4,49.6-51c20.6-12.7,44.3-21.8,71-27.5c26.7-5.7,54.4-8.5,83.1-8.5c19.3,0,36.5,0.9,51.5,2.5 c15,1.7,27.2,3.9,36.5,6.5v-14c0-25.4-7.6-45.7-23-61.1c-15.4-15.3-42-23-80.1-23c-25.4,0-50.4,1.8-75,5.5 c-24.7,3.7-46.1,8.8-64.1,15.5l-19.1-120.1c8.7-2.7,19.6-5.5,32.6-8.5c13-3,27.2-5.7,42.5-8c15.3-2.3,31.5-4.3,48.5-6 C4004.7,3957.1,4021.8,3956.3,4039.2,3956.3 M4051.2,4392.7c14.7,0,28.7-0.3,42-1c13.4-0.7,24.1-1.7,32-3v-113.1c-6-1.3-15-2.7-27-4 c-12-1.3-23-2-33.1-2c-14,0-27.2,0.9-39.5,2.5c-12.4,1.6-23.2,4.8-32.6,9.5c-9.3,4.7-16.6,11-22,19c-5.4,8-8,18-8,30 c0,23.4,7.9,39.6,23.5,48.6C4002.3,4388.2,4023.8,4392.7,4051.2,4392.7z M3223.2,4217.6c0-48.1-6.2-82.1-18.5-102.1 c-12.4-20-33.5-30-63.6-30c-9.3,0-19,0.5-29,1.5c-10,1-19.7,2.2-29,3.5v406.3H2934v-508.4c12.7-3.4,27.5-6.8,44.5-10.5 c17-3.7,35-7,54.1-10c19-3,38.5-5.3,58.5-7c20.1-1.7,39.7-2.5,59.1-2.5c38,0,68.9,4.8,92.6,14.5c23.7,9.7,43.2,21.2,58.5,34.5 c21.3-15.4,45.9-27.4,73.6-36c27.7-8.7,53.2-13,76.6-13c42,0,76.6,5.8,103.6,17.5c27,11.7,48.5,28.2,64.5,49.5 c16,21.4,27,46.7,33.1,76.1c6,29.4,9,62.1,9,98.1v297.3h-149.1v-279.2c0-48.1-6.2-82.1-18.5-102.1c-12.4-20-33.5-30-63.6-30 c-8,0-19.2,2-33.5,6c-14.3,4-26.2,9.1-35.5,15c4.7,15.4,7.6,31.5,9,48.5c1.4,17,2,35.2,2,54.6v287.2h-149.1V4217.6z M2621.5,4180.5 c-0.7-12.7-2.8-25-6.5-37c-3.7-12-9.3-22.7-17-32c-7.6-9.4-17.3-17-29-23c-11.7-6-26.2-9-43.5-9c-16.7,0-31,2.8-43,8.5 c-12,5.6-22.1,13.2-30,22.5c-8,9.3-14.2,20.2-18.5,32.5c-4.3,12.4-7.5,24.8-9.5,37.5H2621.5z M2271.1,4237.5 c0-46.7,7.2-87.6,21.6-122.6c14.3-35,33.2-64.2,56.5-87.6c23.4-23.4,50.2-41,80.6-53.1c30.3-12,61.6-18,93.6-18 c74.7,0,133.8,22.9,177.2,68.5c43.3,45.7,65,112.9,65,201.7c0,8.7-0.3,18.1-1,28.5c-0.6,10.4-1.4,19.6-2,27.5h-338.3 c3.3,30.7,17.7,55.1,43,73.1c25.4,18,59.4,27,102.1,27c27.4,0,54.2-2.5,80.6-7.5c26.3-5,47.8-11.2,64.5-18.5l20,121.1 c-8,4-18.7,8-32,12c-13.4,4-28.2,7.5-44.5,10.5c-16.4,3-33.9,5.5-52.6,7.5c-18.7,2-37.4,3-56.1,3c-47.4,0-88.5-7-123.6-21 c-35-14-64.1-33.2-87.1-57.5c-23-24.4-40-53.2-51-86.6C2276.7,4312.3,2271.1,4276.2,2271.1,4237.5z M1653.4,3988.4 c25.4-7.4,58-14.2,98.1-20.5c40-6.3,82.1-9.5,126.1-9.5c44.7,0,81.9,5.8,111.6,17.5c29.7,11.7,53.3,28.2,70.6,49.5 c17.3,21.4,29.7,46.7,37,76.1c7.3,29.4,11,62.1,11,98.1v297.3h-149.1v-279.2c0-48.1-6.3-82.1-19-102.1c-12.7-20-36.4-30-71.1-30 c-10.7,0-22,0.5-34,1.5c-12,1-22.7,2.2-32.1,3.5v406.3h-149.1V3988.4z M1474,3818.2c0,27.4-8.9,48.9-26.5,64.5 c-17.7,15.7-38.5,23.5-62.5,23.5c-24.1,0-44.9-7.9-62.6-23.5c-17.7-15.7-26.5-37.2-26.5-64.5c0-27.4,8.8-48.9,26.5-64.6 c17.7-15.7,38.5-23.5,62.6-23.5c24,0,44.9,7.9,62.5,23.5C1465.1,3769.3,1474,3790.8,1474,3818.2z M1460,4496.8h-149.1v-526.5H1460 V4496.8z M732.1,4233.5c0-38,6.2-73.9,18.5-107.6c12.4-33.7,30.2-63.1,53.5-88.1c23.4-25,51.7-44.9,85.1-59.6 c33.4-14.7,71.4-22,114.1-22c28,0,53.7,2.5,77,7.5c23.4,5,46.1,12.2,68.1,21.5l-31,119.1c-14-5.4-29.3-10-46-14c-16.7-4-35.4-6-56-6 c-44.1,0-76.9,13.7-98.6,41c-21.7,27.4-32.5,63.4-32.5,108.1c0,47.4,10.1,84.1,30.5,110.1c20.4,26,55.9,39,106.6,39 c18,0,37.4-1.6,58.1-5c20.6-3.3,39.7-8.7,57.1-16l21,122.1c-17.3,7.4-39,13.7-65,19c-26,5.4-54.7,8-86.1,8 c-48.1,0-89.4-7.2-124.1-21.5c-34.7-14.4-63.2-33.9-85.6-58.6c-22.3-24.7-38.7-53.9-49-87.6C737.3,4309.5,732.1,4272.9,732.1,4233.5 z">
                  </path>
                  <path class="st10"
                     d="M3744.9,4900.1c6.6,0,12-0.5,16.4-1.6c4.3-1.1,7.7-2.6,10.3-4.5c2.6-1.9,4.4-4.1,5.4-6.7c1-2.6,1.5-5.5,1.5-8.7 c0-6.8-3.2-12.5-9.6-16.9c-6.3-4.5-17.3-9.3-32.9-14.5c-6.8-2.4-13.6-5.2-20.4-8.2c-6.8-3.1-12.9-7-18.3-11.7 c-5.4-4.7-9.8-10.4-13.2-17.1c-3.4-6.7-5.1-14.8-5.1-24.4c0-9.6,1.8-18.2,5.4-25.9c3.6-7.6,8.7-14.2,15.2-19.6 c6.6-5.4,14.6-9.5,24-12.5c9.4-2.9,20-4.3,31.7-4.3c14,0,26,1.5,36.2,4.5c10.2,3,18.6,6.3,25.1,9.9l-13.4,36.8 c-5.8-3-12.2-5.6-19.3-8c-7.1-2.3-15.6-3.4-25.6-3.4c-11.2,0-19.2,1.5-24.1,4.7c-4.9,3.1-7.3,7.8-7.3,14.2c0,3.8,0.9,7,2.7,9.6 c1.8,2.6,4.3,4.9,7.6,7c3.3,2.1,7,4,11.3,5.7c4.3,1.7,9.1,3.4,14.3,5.2c10.8,4,20.2,8,28.1,11.8c8,3.9,14.6,8.5,19.9,13.7 c5.3,5.1,9.2,11.3,11.8,18.3c2.5,7,3.9,15.4,3.9,25.4c0,19.4-6.8,34.4-20.4,45.1c-13.6,10.7-34,16-61.4,16c-9.2,0-17.5-0.5-24.8-1.6 c-7.4-1.1-13.9-2.4-19.6-4.1c-5.7-1.6-10.6-3.3-14.6-5.1c-4.1-1.8-7.6-3.5-10.3-5.1l13.2-37.1c6.2,3.4,13.8,6.5,22.9,9.2 C3720.7,4898.8,3731.8,4900.1,3744.9,4900.1 M3549.4,4935.7c-13.3-23.7-27.8-47.2-43.4-70.3c-15.6-23.2-32.1-45-49.7-65.6v135.9 h-46.1v-207.4h38c6.6,6.6,13.9,14.6,21.9,24.2c8,9.6,16.1,19.8,24.4,30.7c8.2,10.9,16.5,22.2,24.6,33.8 c8.2,11.7,15.9,22.9,23.1,33.7v-122.4h46.4v207.4H3549.4z M3319.5,4831.9c0,17.8-2.7,33.4-7.9,46.9c-5.3,13.4-12.6,24.7-21.7,33.8 c-9.2,9-20.1,15.9-32.8,20.5c-12.7,4.6-26.3,6.9-40.8,6.9c-14.2,0-27.5-2.3-40.1-6.9c-12.6-4.6-23.6-11.4-32.9-20.5 c-9.4-9.1-16.8-20.4-22.2-33.8c-5.4-13.5-8-29.1-8-46.9c0-17.8,2.8-33.4,8.4-46.9c5.6-13.4,13.1-24.8,22.6-34 c9.5-9.2,20.5-16,32.9-20.6c12.5-4.6,25.6-6.9,39.3-6.9c14.2,0,27.5,2.3,40.1,6.9c12.6,4.6,23.6,11.5,32.9,20.6 c9.4,9.2,16.7,20.5,22.2,34C3316.8,4798.5,3319.5,4814.1,3319.5,4831.9z M3161.2,4831.9c0,10.2,1.2,19.4,3.7,27.5 c2.5,8.2,6.1,15.2,10.8,21.1c4.7,5.9,10.4,10.4,17.2,13.6c6.8,3.2,14.6,4.8,23.4,4.8c8.6,0,16.3-1.6,23.2-4.8 c6.9-3.2,12.7-7.8,17.4-13.6c4.7-5.9,8.2-13,10.7-21.1c2.5-8.2,3.8-17.3,3.8-27.5c0-10.2-1.2-19.4-3.8-27.7 c-2.5-8.3-6.1-15.4-10.7-21.2c-4.7-5.9-10.5-10.5-17.4-13.7c-6.9-3.1-14.6-4.8-23.2-4.8c-8.8,0-16.6,1.6-23.4,4.9 c-6.8,3.3-12.5,7.9-17.2,13.8c-4.7,5.9-8.3,13-10.8,21.3C3162.4,4812.7,3161.2,4821.9,3161.2,4831.9z M2975.5,4728.3h46.7v207.4 h-46.7V4728.3z M2893.7,4728.3v39.8h-62.5v167.7h-46.7v-167.7H2722v-39.8H2893.7z M2588.7,4939.9c-33.7,0-59.4-9.4-77-28.1 c-17.7-18.7-26.5-45.4-26.5-79.9c0-17.2,2.7-32.5,8.1-45.9c5.4-13.4,12.8-24.9,22.2-34.1c9.4-9.3,20.5-16.3,33.5-21.1 c12.9-4.8,27-7.2,42.2-7.2c8.8,0,16.8,0.7,24,2c7.2,1.3,13.4,2.8,18.9,4.5c5.4,1.7,9.9,3.5,13.4,5.3c3.6,1.8,6.2,3.2,7.8,4.2 l-13.5,37.7c-6.4-3.4-13.8-6.3-22.3-8.7c-8.5-2.4-18.1-3.6-28.9-3.6c-7.2,0-14.2,1.2-21.1,3.6c-6.9,2.4-13,6.2-18.3,11.5 c-5.3,5.3-9.5,12.1-12.7,20.5c-3.2,8.4-4.8,18.5-4.8,30.5c0,9.6,1,18.5,3.1,26.8c2.1,8.3,5.5,15.4,10.2,21.4 c4.7,6,10.8,10.7,18.4,14.2c7.5,3.5,16.7,5.3,27.5,5.3c6.8,0,12.8-0.4,18.3-1.2c5.4-0.8,10.2-1.7,14.4-2.9c4.2-1.1,7.9-2.3,11.1-3.7 c3.2-1.4,6.1-2.7,8.7-3.9l12.9,37.4c-6.6,4-15.9,7.6-27.9,10.8C2618.3,4938.3,2604.4,4939.9,2588.7,4939.9z M2311.8,4939.9 c-14.6,0-27.2-2.1-37.7-6.1c-10.6-4.1-19.4-9.8-26.2-17.1c-6.9-7.3-12-15.9-15.3-26.1c-3.3-10.1-4.9-21.2-4.9-33.3v-129h46.7v125.1 c0,8.3,0.9,15.5,2.9,21.4c1.9,5.9,4.4,10.7,7.8,14.4c3.3,3.7,7.3,6.3,12,7.9c4.7,1.6,9.9,2.4,15.4,2.4c11.4,0,20.6-3.5,27.7-10.5 c7.1-7,10.6-18.9,10.6-35.6v-125.1h46.7v129c0,12.1-1.7,23.3-5.1,33.5c-3.4,10.2-8.6,18.9-15.6,26.2c-7,7.3-15.8,12.9-26.6,16.9 C2339.3,4937.9,2326.5,4939.9,2311.8,4939.9z M2139.9,4831.9c0,17.9-2.8,33.6-8.4,47c-5.6,13.4-13.6,24.4-23.8,33.3 c-10.3,8.8-22.8,15.3-37.5,19.7c-14.8,4.4-31.4,6.6-49.7,6.6c-8.4,0-18.2-0.3-29.4-1c-11.2-0.7-22.1-2.1-32.9-4.3V4731 c10.8-1.9,22.1-3.3,33.7-4c11.6-0.7,21.7-1.1,30.1-1.1c17.8,0,33.9,2,48.3,6c14.5,4,26.9,10.2,37.3,18.9c10.4,8.6,18.4,19.6,24,32.9 C2137.1,4797,2139.9,4813.1,2139.9,4831.9z M2004.9,4897.7c2.2,0.2,4.8,0.4,7.6,0.5c2.9,0.1,6.3,0.1,10.4,0.1 c23.3,0,40.6-5.9,51.9-17.7c11.3-11.8,16.9-28,16.9-48.8c0-21.8-5.4-38.2-16.1-49.4c-10.8-11.2-27.9-16.7-51.2-16.7 c-3.2,0-6.4,0.1-9.9,0.2c-3.4,0.1-6.6,0.3-9.6,0.8V4897.7z M1867.5,4831.9c0,17.8-2.7,33.4-8,46.9c-5.3,13.4-12.5,24.7-21.7,33.8 c-9.2,9-20.1,15.9-32.8,20.5c-12.7,4.6-26.3,6.9-40.9,6.9c-14.2,0-27.5-2.3-40.1-6.9c-12.6-4.6-23.6-11.4-32.9-20.5 c-9.4-9.1-16.7-20.4-22.2-33.8c-5.4-13.5-8.1-29.1-8.1-46.9c0-17.8,2.8-33.4,8.4-46.9c5.6-13.4,13.1-24.8,22.6-34 c9.5-9.2,20.5-16,32.9-20.6c12.5-4.6,25.6-6.9,39.3-6.9c14.1,0,27.5,2.3,40.1,6.9c12.6,4.6,23.6,11.5,32.9,20.6 c9.4,9.2,16.7,20.5,22.2,34C1864.8,4798.5,1867.5,4814.1,1867.5,4831.9z M1709.1,4831.9c0,10.2,1.2,19.4,3.7,27.5 c2.5,8.2,6.1,15.2,10.8,21.1c4.7,5.9,10.4,10.4,17.2,13.6c6.8,3.2,14.6,4.8,23.4,4.8c8.6,0,16.3-1.6,23.2-4.8 c6.9-3.2,12.7-7.8,17.4-13.6c4.7-5.9,8.2-13,10.7-21.1c2.5-8.2,3.8-17.3,3.8-27.5c0-10.2-1.2-19.4-3.8-27.7 c-2.5-8.3-6.1-15.4-10.7-21.2c-4.7-5.9-10.5-10.5-17.4-13.7c-6.9-3.1-14.6-4.8-23.2-4.8c-8.8,0-16.6,1.6-23.4,4.9 c-6.8,3.3-12.5,7.9-17.2,13.8c-4.7,5.9-8.3,13-10.8,21.3C1710.4,4812.7,1709.1,4821.9,1709.1,4831.9z M1481.9,4765.7 c-3.4,0-6.5,0.1-9.2,0.3c-2.7,0.2-5.2,0.4-7.6,0.6v56.3h13.2c17.6,0,30.1-2.2,37.7-6.6c7.6-4.4,11.4-11.9,11.4-22.5 c0-10.1-3.8-17.4-11.5-21.7C1508.2,4767.9,1496.8,4765.7,1481.9,4765.7z M1479.2,4725.9c31.1,0,55,5.6,71.5,16.6 c16.6,11.1,24.9,28.3,24.9,51.6c0,14.6-3.4,26.4-10.1,35.5c-6.7,9.1-16.3,16.2-28.8,21.4c4.2,5.2,8.6,11.2,13.2,17.8 c4.6,6.7,9.1,13.7,13.6,21c4.5,7.3,8.8,14.8,13,22.8c4.2,7.9,8.1,15.6,11.7,23.2h-52.4c-3.8-6.8-7.6-13.7-11.5-20.7 c-3.9-7-7.9-13.8-12-20.4c-4.1-6.6-8.1-12.8-12.1-18.7c-4-5.9-8-11.2-12-16h-23.1v75.8h-46.7v-204.5c10.2-2,20.7-3.4,31.6-4.2 C1460.9,4726.3,1470.5,4725.9,1479.2,4725.9z M1239.1,4765.7c-3.4,0-6.8,0.1-10,0.3c-3.3,0.2-6.2,0.4-8.6,0.6v59.9h14.7 c16.2,0,28.3-2.2,36.5-6.6c8.2-4.4,12.2-12.6,12.2-24.5c0-5.8-1-10.6-3.1-14.4c-2.1-3.8-5.1-6.8-9-9.2c-3.8-2.3-8.6-3.8-14.2-4.8 C1252,4766.1,1245.9,4765.7,1239.1,4765.7z M1236,4725.9c30.9,0,54.7,5.5,71.3,16.3c16.6,10.9,24.9,28.7,24.9,53.4 c0,25-8.4,43-25.2,54.1c-16.8,11.1-40.7,16.6-71.8,16.6h-14.7v69.5h-46.7v-204.5c10.2-2,21-3.4,32.3-4.2 C1217.5,4726.3,1227.5,4725.9,1236,4725.9z">
                  </path>
               </svg>