               <svg xmlns="http://www.w3.org/2000/svg" xmlns:xlink="http://www.w3.org/1999/xlink" id="Layer_33" x="0px"
                  y="0px" viewBox="0 0 5000 5000" style="enable-background:new 0 0 5000 5000;" xml:space="preserve">
                  <style>
                     .st4 {
                        fill-rule: evenodd;
                        clip-rule: evenodd;
                        fill: #ACACAC;
                     }

                     .st5 {
                        fill-rule: evenodd;
                        clip-rule: evenodd;
                        fill: #E1111B;
                     }

                     .st6 {
                        fill-rule: evenodd;
                        clip-rule: evenodd;
                        fill: #969696;
                     }
                  </style>
                  <g>
                     <path class="st4"
                        d="M3591.5,4049.3c0.3-6.8,1-11.9,2.1-15.5c1.2-3.6,3.2-6,5.9-7.3c2.8-1.3,6.2-1.7,10.4-1.3 c4.3,0.4,7.4,7.5,9.5,21.4c8.9-1.7,16.6-4.1,23-7.5c6.5-3.2,12.6-6.4,18.4-9.4c5.8-3,12.7-6.2,20.5-9.5c7.8-3.4,15.1-7.2,21.9-11.2 c6.8-4.1,11.9-8.1,15.2-12.1c3.4-3.9,5.9-7.9,7.7-12c1.7-4.1,4.5-6.6,8.5-7.5c4.8,0.1,8.2,1,10.4,2.8c2.3,1.9,3.6,6.2,4.1,13 c-0.1,2.9-0.9,5.8-2.2,8.6c-1.3,2.8-4,6.3-8.3,10.3c-4.2,3.9-8.8,7.2-13.6,9.6c-4.8,2.6-10.2,5.5-16.1,9.2 c-5.9,3.6-11.7,8.4-17.6,14.5c-5.9,6.1-10.1,11.9-12.7,17.5c-2.7,5.7-5.3,10.8-8,15.4c-2.8,4.6-7,8.4-12.6,11.3 c-5.6,2.9-14.2,4.7-26,5.4c-7.8-0.1-13.9-1.2-18.4-3c-4.5-1.8-9.1-7.2-14-16C3595,4067.1,3592.2,4058.2,3591.5,4049.3 M3623.4,4063.5c2.3,6.1,6.4,8.8,12.4,7.8c6-1,11.5-3,16.5-6.3c5.1-3.2,10.2-8,15.4-14.3c5.2-6.5,7.4-10.8,6.8-13.2 c-12.5,9.2-22.3,15.1-29.5,18.1C3638,4058.6,3630.8,4061.2,3623.4,4063.5z M3300.1,4060.7c0-11,1.4-19.5,4.1-25.4 c2.8-5.9,7.2-12.1,13.5-18.4c6.2-6.3,12.4-11.9,18.7-16.5c6.3-4.7,12.6-7.8,19.2-9.5l7.3-0.3c6.6,0.2,12.2,2,17.1,5.4 c4.9,3.4,7,9.4,6.3,17.9c-0.8,8.6-5,15.9-12.7,22.3c-7.7,6.2-16.5,10.7-26.2,13.5c-9.7,2.7-15,5.2-15.7,7.4 c-0.8,2.3,0.8,4.7,4.7,7.4c3.9,2.7,12.7,4.3,26.3,5c13.7,0.8,24.8,0,33.5-2.2c8.7-2.2,15.7-4.6,21.1-7.1c5.4-2.6,9.6-4.3,12.7-5.2 c3-0.8,5.5,0.8,7.4,4.8c-5.5,7.9-11.5,13.6-18.1,17.3c-6.6,3.7-14.8,7.1-24.6,10.1c-9.9,3-21.9,4.8-36,5.4h-8.6 c-15.5-1.5-25.9-3.6-31.3-6.2c-5.4-2.7-9.5-5.7-12.5-9.4C3303.5,4073.3,3301.3,4067.8,3300.1,4060.7z M3328,4039.7 c13-4.2,21.6-8.2,25.9-12c4.3-3.9,6.1-7.4,5.5-10.4c-0.6-3.2-4.2-3.2-10.8,0.3c-6.5,3.4-11,6.8-13.5,10.3 C3332.8,4031.3,3330.3,4035.3,3328,4039.7z M2974.7,4058.7c13.9-7.8,28.4-19.7,43.3-35.7c14.9-16,26.4-25.5,34.7-28.6 c8.3-3,17.4-4.6,27.3-4.6c3.8,0.2,7.1,1,9.8,2.6c2.8,1.4,4.5,3.9,5.1,7.5c0.7,3.4,0.5,7.2-0.3,11.5c-0.8,4.3-3.4,9.4-7.6,15.5 c-4.3,6-9.2,11.1-15.1,15.2c-5.8,4.1-9.8,7.8-12,11.2c-2.2,3.4-2.4,6.7-0.5,10c1.9,3.3,9.3,3.6,22.1,1c12.8-2.7,22.3-5.1,28.4-7.4 c6.1-2.2,12.7-4.9,19.7-8.1l3.7,14.3c-15.4,7.2-29.2,13.4-41.3,18.4c-12,5-24.7,8.5-38,10.2c-8.9,0-15.7-0.4-20.3-1.2 c-4.7-0.7-8.9-2.6-12.8-5.9c-3.9-3.2-6.3-7.1-7.3-11.7c-1-4.7-0.2-9.2,2.4-13.7c2.5-4.5,6.3-8.6,11.4-12.6 c5.1-4.1,10.4-7.3,16.2-9.7c5.7-2.5,10.6-5.8,14.7-10.2c4.1-4.5,5.2-7.9,3-10.2c-2.1-2.3-5.2-3-9.2-2.1c-4.1,1-13.5,9-28.6,23.9 c-15,15.1-30.1,25.7-45.1,32.1L2974.7,4058.7z M2622.7,4047.1c15.9-15.1,28.2-26.7,36.8-35.1c8.7-8.4,15.2-14.2,19.5-17.3 c4.4-3.2,8.2-5.2,11.5-6.1c3.9,0.6,6.6,1.4,8.3,2.3c1.7,0.8,3.7,2.8,6.2,6c2.4,3.2,1.9,8.4-1.6,15.6c-3.5,7.2-9,13.2-16.6,18.1 c-7.7,4.9-14.2,9.2-19.5,12.8c-5.4,3.7-10.2,7.4-14.5,10.9c-4.2,3.6-6.1,7-5.7,10.1c0.4,3.1,3,4.6,7.7,4.6c4.8,0,10.9-1.4,18.6-4.1 c7.6-2.8,17.3-7.3,29-13.5c11.7-6.2,22.4-11.4,32-15.5c9.7-4.1,17.3-7.7,23-10.8c5.7-3,9.9-7,12.7-11.9c2.8-4.8,5.9-8.2,9.5-9.9 c3.5-1.7,6.4-0.8,8.7,2.6c2.2,3.4,2.8,8.7,1.5,16c-1.1,7.4-3.8,12.9-7.9,16.6c-4.1,3.9-8.2,7.6-12.5,11.5c-4.2,3.8-6.7,7.1-7.3,9.8 c-0.6,2.8,0.1,6.1,2.1,10.1c2,3.9,10.3,4.4,24.8,1.4c14.4-3,25-6,31.6-9c6.5-3.1,15.1-5.7,26-7.9l5.4,6.4 c-1.9,4.7-7.5,9.2-16.5,13.8c-9.2,4.5-21.5,8.7-37.3,12.5c-15.8,3.7-29.3,5.7-40.5,5.7c-11.4,0-19.5-1.3-24.1-4 c-4.7-2.6-7.3-6.3-8.1-11.1c-0.8-4.8,3.2-13.2,11.9-25.2c-13.7,7.7-25.7,13.6-35.7,18.1c-10,4.4-20.1,8.7-29.9,12.8 c-10,4.2-20.4,6.8-31.4,7.8c-3,0.1-5.9,0.3-8.6,0.3c-7.2,0-13.1-0.9-17.7-2.8c-6.6-2.8-9.9-7.4-10.1-13.7c-0.3,0-0.4-0.1-0.4-0.3 C2603.7,4068.5,2610.1,4059.3,2622.7,4047.1z M2349.8,4055.7c2.1-5.7,5-11.8,8.7-18.1c3.7-6.3,12.3-15.5,25.6-27.6 c13.4-12.1,23.1-22.9,29.5-32.4c-9.7,1.3-16.2,2-19.6,2.1c-3.3,0.1-5.2-1.9-5.8-5.9c-0.6-4.1,0.3-7,2.8-8.9c2.6-1.9,7.5-3.3,15-4.3 c7.4-0.9,15.1-2.1,23.1-3.6c14.2-13.3,25.7-24,34.8-32c9-8.1,18.6-16.7,28.9-26c10.3-9.4,20-17.2,29.2-23.4 c9.2-6.2,17.2-9.5,23.9-9.7c4.1,5.3,0.3,13-11.2,23.3c-11.5,10.2-20.7,18.7-27.5,25.5c-6.8,6.8-13.3,13.3-19.5,19.5 c-6.3,6.3-13.5,13.7-21.5,22.4c10.3-1.2,25.9-3,46.5-5.4c20.6-2.3,41.7-4.5,63.3-6.6c21.6-1.9,43.3-3.7,65.2-5.2 c22-1.5,43.4-2.5,64.4-2.8c21.1-0.4,43-0.4,65.7,0.1c22.8,0.5,41.3,1.4,55.5,2.8c14.3,1.4,25.7,5.8,34.1,13.2 c-8.6,2.7-16.6,3.7-23.8,2.7c-7.2-0.9-14.9-1.7-23.2-2.2c-8.2-0.6-18.1-0.6-29.7-0.4c-11.5,0.4-25.5,0.8-41.9,1.3 c-16.4,0.6-33.9,0.9-52.6,1.2c-18.6,0.1-37.5,1.1-56.6,2.7c-19.2,1.6-37.3,3.3-54.6,5.1c-17.2,1.8-35.2,3.4-53.8,5 c-18.6,1.5-31.9,2.5-39.7,3c-7.8,0.5-14.2,1.1-19.4,1.7c-5.1,0.7-9.3,1.8-12.5,3.4c-3.3,1.5-6.8,3.9-10.5,7.2 c-3.7,3.2-8.3,7.5-13.8,13.1c-5.5,5.7-12,12.9-19.5,21.9c-7.5,9-14.2,16.8-20,23.2c-5.8,6.4-10.1,12.4-12.5,18.1 c-2.6,5.6-2.9,10.6-1,15c1.9,4.3,5.5,6.9,10.8,7.9c5.3,1,15.4-1.2,30.5-6.3c15-5.2,25.7-9.8,32-13.8c6.4-4,11.2-6.6,14.5-7.6 c3.3-1,5.8-0.4,7.7,2c1.7,2.4-0.8,6.6-7.9,12.6c-7,5.9-13.2,10.4-18.7,13.7c-5.5,3.1-11.7,6.1-18.8,8.9c-7.1,2.7-15.2,4.8-24,6 c-5.7,0.8-11.2,1.3-16.2,1.3c-3.2,0-6.3-0.1-9.2-0.3c-8-0.9-14.3-2.7-18.8-5.5c-4.6-2.9-7.6-6.7-9.1-11.4c-1.7-4.2-2.5-8-2.5-11.4 c0-0.3,0.1-0.5,0.3-1C2346.7,4066,2347.7,4061.3,2349.8,4055.7z M2182.8,3997.7c1,2,0.7,4.1-0.6,6.3s-3.4,4.5-6.1,6.6 c-2.6,2.3-4.1,5-4.6,8.3c-0.5,3.3-2.5,5.2-6.1,5.7c-3.5,0.5-7.5,0.1-11.7-1.5c-4.2-1.4-7.8-2-10.9-1.6c-3.1,0.5-6.6,3-10.6,7.5 c-4,4.5-7.6,8.9-10.6,13c-3,4.1-5.3,8.2-6.7,12.3c-1.3,4.2-1,7.9,1,11.3c2.1,3.4,4.9,5.6,8.6,6.6c3.7,1.1,9.2,1.2,16.4,0.5 c7.2-0.7,14.5-2.2,21.9-4.4c7.4-2.3,14.7-4.6,21.8-7.2c7-2.5,12.2-4.6,15.3-6.4c3.2-1.8,6.1-0.3,8.9,4.6c-0.8,4.7-2.8,7.9-5.9,9.5 c-3,1.7-7.2,3.8-12.6,6.4c-5.4,2.5-11.1,4.7-17.1,6.6c-6.1,1.9-12.8,3.9-20.2,5.7c-7.4,1.7-15.5,3-24.1,3.9h-6.7 c-4-0.4-7.9-1-11.7-1.7c-3.8-0.8-7.5-2.7-11.4-5.6c-3.9-2.9-7.1-7.4-9.9-13.6l-0.6-6.1c0.4-5.9,2.2-12.1,5.4-18.4 c3.2-6.3,7.3-12.4,12.3-18.3c5.1-5.9,10.8-11,17.2-15.2c6.3-4.2,11.9-7.4,16.9-9.4c5-2,8.3-3.8,9.9-5.4c1.6-1.6,4.6-3.2,8.9-4.8 c4.3-1.6,8.3-2.4,11.9-2.4c2.9,0.2,5.4,0.9,7.4,2.2C2180.4,3994.1,2181.9,3995.7,2182.8,3997.7z M1969,3906.9l-5.7-1.6 c-5.7-6.6-10.1-11.4-13-14.3c2.7-5.9,8-11.2,15.9-15.9l6-0.3c5.1,2.3,7.7,5.4,7.9,9.2c0.2,3.8,2.8,7.4,7.9,10.8l-2.3,5.4 C1980.8,3903.4,1975.2,3905.7,1969,3906.9z M1777.5,4058.9c17.1-7.9,29.6-17,37.5-27.2c7.8-10.2,16.8-17.5,26.8-22.1 c10.2-4.5,18.3-9.2,24.4-14.2c6.1-5,12.1-6.7,17.6-5c5.7,1.5,8.5,5.1,8.3,10.6c-0.1,5.5-3.3,10.2-9.5,13.9 c-6.3,3.9-10.9,7.9-14,12.2c-3,4.4-5.5,9.2-7.5,14.5c-1.9,5.3-1.9,10.6-0.1,15.9c1.9,5.3,5.2,8.7,10.3,10.3 c5.1,1.6,13,2.3,23.8,2.2c10.8-0.1,20.3-1.2,28.4-3.4c8.1-2.1,15.3-5,21.4-8.6c6.1-3.7,11.3-5.1,15.5-4l1.9,7.6 c-2.7,4.4-6.7,8.2-11.9,11.2c-5.2,3.1-10.3,5.7-15.4,7.9c-5.1,2.1-12.4,4.1-21.8,6.3c-9.4,2.1-20.1,3.9-32.2,5.4l-13.3,0.6 c-10.8-1.2-18.6-3.3-23.5-6.2c-4.8-2.8-8.8-6.7-11.9-11.5c-3-4.9-4.7-9.8-4.9-14.6c-0.3-4.9,0.4-9.8,1.7-14.6 c1.4-4.8-0.1-4.6-4.3,0.4c-4.3,5.1-10.2,9.8-17.7,14.2c-7.5,4.3-13.9,7.7-19,10.4C1783,4073.6,1779.4,4069.6,1777.5,4058.9z M1360.6,3983.4c11-10.6,20.6-19.4,28.7-26.2c8.2-6.8,17.5-13.9,28.1-21.3c10.6-7.4,23-15.8,37.3-25.4 c14.3-9.5,25.4-16.1,33.3-19.7c7.9-3.7,15.4-9.1,22.1-16.4c6.8-7.3,12.9-13,18.5-17c5.6-4,10.3-7.2,14-9.5c3.7-2.3,7.7-5.7,12.1-10 c4.3-4.3,7.7-7.3,10-8.7c2.3-1.5,5.7-2.8,10.1-3.8c5.5,1,9.4,2.7,11.5,4.6c2.1,2.1,4.3,4.8,6.4,8.1c2.3,3.4,5.4,6.2,9.2,8.5 c3.9,2.3,10.3,3.4,19.1,3c8.8-0.3,16.4,0.5,23,2.4c6.6,1.9,12.9,4.7,19,8.3c6.1,3.6,10.6,8,13.4,13c2.3,4.8,3.5,9.8,3.5,15v0.9 c-0.2,5.5-2.1,12.2-5.7,20.1c-3.6,8-10.4,18.1-20.6,30.2c-10.1,12.2-24,26.6-41.5,43.3c-17.4,16.7-32.6,31-45.5,42.8 c-13,11.9-23.4,20.3-31.4,25.2c-8.1,5-15.5,7.2-22.4,6.4c-6.8-0.8-12.5-2.7-16.8-5.7c-4.3-3.1-7.4-6.9-9-11.4 c-1.7-4.5-2.5-9.1-2.3-13.7c0.3-4.5,1-8.7,2.6-12.5c1.4-3.9,3.8-7.1,7.1-9.7c3.3-2.7,7-4.1,11.3-4.3c4.2-0.2,8.9,2.3,13.9,7.7 c5.1,5.3,10.3,7.9,15.7,7.9c5.4,0,12.4-3,21-9.2c8.6-6.2,18.3-14.7,29.1-25.7c10.8-11,21-22,30.4-33.2 c9.5-11.1,16.1-19.9,19.7-26.5c3.6-6.6,6.7-13.8,9.2-21.7c2.6-7.9,2.6-13.4,0-16.4c-2.5-2.9-7.4-4.8-14.6-5.7 c-7.2-0.8-12.3-1.7-15.3-2.7c-2.9-0.9-6.3-0.6-9.8,1.3c-3.6,1.8-7.8,3.9-12.6,6.2c-4.8,2.3-10.3,7.5-16.6,15.7 c-6.5,8.1-13,15.7-19.7,22.7c-6.8,7-13.5,13.9-20.2,20.6c-6.6,6.8-13.3,13.8-20,20.9c-6.6,7.2-13.4,14.4-20.1,21.5 c-6.8,7.1-15.1,15.4-25.1,24.8c-9.9,9.4-19.7,18-29.1,25.7c-9.5,7.7-19.7,16-30.4,25c-10.8,9-23.2,17.9-37,27 c-13.9,9-26.8,17.4-39,25.1c-12.1,7.7-23.2,14.1-32.8,19.2c-9.7,5.1-18.6,8.1-26.7,8.8c-7.6-0.6-12.4-2.1-14.4-4.5 c-2-2.4-3.1-7-3.4-13.5c0-5.5,0.8-10.6,2.2-15.4c1.5-4.8,3.2-9.4,5.1-14c1.9-4.6,7.1-12.5,15.7-23.8c8.6-11.3,16.4-20.9,23.3-28.9 c7-7.9,15.4-16.5,25.2-25.7C1339.1,4004.1,1349.6,3994.1,1360.6,3983.4z M1340.4,4036c-17.7,19.4-29.2,32-34.6,37.9 c-5.4,5.8-11.6,12.4-18.6,20c-7,7.5-9.7,12.9-8.4,16.3c1.4,3.4,5,4.4,10.8,3c5.8-1.4,14-5.9,24.4-13.8c10.5-7.8,23.5-17,39-27.4 c15.5-10.5,31.9-22.3,49-35.4c17.2-13.1,34-27.6,50.5-43.6c16.5-16,27.6-27.4,33.3-34.3c5.7-6.9,12.6-15.1,20.8-24.5 c8.2-9.4,14.8-16.6,20-21.6c5.2-5,7.4-8.7,6.8-11.2c-0.6-2.4-3.5-2.1-8.6,1c-5.1,3.1-11,6.9-17.8,11.5c-6.8,4.5-15.5,12.1-26.3,23 c-10.8,10.8-21,21.4-30.5,31.6c-9.5,10.3-20.9,21.8-34.1,34.7c-13.2,12.9-25.3,23.6-36.3,31.7c-11,8.3-17.7,14.4-20.2,18.3 c-2.4,3.9-4.7,5-7,3.4c-2.2-1.6-3.5-4.5-3.8-8.7c-0.3-4.2,4.1-9.2,13-14.9c9-5.7,21.6-15.9,37.6-30.6c16.1-14.7,24.3-24,24.4-27.9 c0.2-3.9-2.1-5.2-7-3.5c-4.9,1.6-9.7,3.8-14.4,6.5c-4.8,2.7-11.9,8.3-21.4,16.6C1371.6,4002.6,1358.1,4016.5,1340.4,4036z">
                     </path>
                     <path class="st5"
                        d="M4763.3,3596.6l-3.1,3.6h-15.8c1.4-0.8,2.8-1.5,4.3-2c0,0,1.8-0.2,5.2-0.6 C4756.1,3597.2,4759.2,3596.9,4763.3,3596.6 M4759,3375.9l25.5-2.3l15.4-3.4l10.1-8l6.9-8.9l13-10.8l11.3,5.6l1.2,14.1l-3.5,25.6 v27.9l3.5,8.4l-2.3,7.9l2.3,11.3l-1.2,10.8l-6.8,3.5l-11.4-5.7l-11.9-11.8l-9.2-14.8l-18.7-14.1l-19.7-6.7l-11.3,1l-10.9,7.9 l-1,10.8v20.3l-5.7,16.6l-1.2,22.1l-4.5,7.9l6.8,8.5l3.3,12.5l-2.2,10.7l1.2,23.4l3.4,12.4l5.7,9.5l16.5,14.8l1.9,5.5 c-0.3-0.3-0.6-0.4-0.9-0.6c-1.5-0.8-2.9-1.7-4.2-2.7c-1.3-1-1.9-1.5-1.9-1.5l-14.3,5c-5.9,2-9.6,5.9-11.3,11.7l-26-0.9l-13-3.5 l-11.3,1.1l-9.7,3.4H4644l-4.5-8l4.5-9.5l10.2-5.7l2.9-5.7l15.8-27.7l-2.2-37.3l-2.3-31.1l9.1-43.1l-7.9-30.1l2.3-15.1l1-19.9 v-17.5l5.2-14.7l1.1-11.9l-1.1-14.8l-5.2-40.8l-1-17.5l-6.8-14.1l-18.6-15.9l-3.5-9.5l13-3.5h22.2l28.9,1.1h25.5l26.6,6.1l17.7-3.7 h18.1l17.5-2.4l30.1,2.3l17.5-1.2h16.5l22-5.5l12.6,2.2l3.8,10.8l-2.7,18.1l-1.1,10.8l-3.5,10.1l2.2,26.6l3.4,13l-7.8,9.2l-9.2,1.1 l-6.3-6.7l-6.8-10.3l-1-9.7l-3.5-7.9l-6.8-6.8l-5.1-9.6l-6.8-2.2l-10.2-6.7l-47.7-11.9l-10.8,1h-12.4l-7.4,2.8l-4.7,3.7l-2.1-1.9 l-1.2,3.2l-6.7,1.6l-6.8,6.4l-1.8-8.8l-6.8,2.3l1.8,8.8l6.8-2.3l-1.7,1.7l-2.2,11.9v17l-2.3,7.4l-5.7,7.8l-0.6,6.5l-1,0.4l0.6,3.1 l-0.3,3l5.7,22.1v10.2l-1.2,11.9l5.7,18.1L4759,3375.9z M4273.4,3455.1l2.3,22.1v17.6l-4.6,11.4l-1,12.9l1,19.2l5.7,6.2l4.6,9.1 l35.1,11.9l40.2,3.5l11.9-2.3h26.6l11.3-8.4l9.6-21.1l3.5-5.7l3.4-13l13-7.8l11.3,6.8l-3.3,16.4l3.3,9.5v10.2l-1.1,7.8v30.6 l-4.6,5.7l-25.5,2.3h-1.5c2.2-3.3,3.8-4.8,4.8-4.6l0.3-2.2c-0.3-1.3-2.4-3.7-6.3-7.2l-1.5,0.5c-0.6,0.1-2.5,2.6-5.7,7.2l4.5,6.2 h-35.3l-17.5,1.2h-77.6l-24.3-4.7H4244l-15.9,3.5h-19.8l-16.4,2.3h-15.9l-14.2-3.4l-5.6-6.9l5.6-8.5l24.4-17l9.2-11.9l1-13v-21.6 l1.1-11.9l5.1-7.9l-1-14.1l-8.6-27.7v-13l4.5-18.1l1.7-25.6v-7.4l-2.8-2.1l-2.4-13.7l1.4-14.1l6.2-17.6v-21l-1-12.8l2-4.4l-2.5-2.1 l-0.8-9.5v-18.7l1-7.8v-11.3l-8.4-14.2l-21.1-14.2l-5.4-11.4l1-9.5l11.9-1.2l14.7,1.2l15.3,2.7h13l20.3,1.2l23.3-6.1l23.2,2.3 l14.3-1.2l6.7,3.9l-2.2,8l-19.9,13.7l-7.9,9.5l-4.5,14.8l-5.7,11.9v33.4l-0.6,16.3v14.2l-10.2,24.3l9,5.7l3.9,6.7l1.3,6.3l-3.5,6.8 l-1.7,33.5l1.2,27.7L4273.4,3455.1z M3757.1,3199.8l38.4-2.2l18.1,2.2l56.1,24.4c35.2,32.1,58.4,57.5,69.6,76.4l21,31.7l5.6,14.7 l2.3,15.4l-5.7,27.7l5.7,14.2v34.4l-3.4,24.4c-2.9,6.5-9.5,20.4-19.9,41.9l-3.3,2.1l-24.3,35.2l-38.6,32.3l-38.4,22.1l-27.9,11.4 l-31-1.2l-26.7,1.2h-34l-6.8-2.2l-37.4-3.5c-6.6-3.2-13-6.8-19.4-11c-6.2-4.1-13.1-9.2-20.8-14.9c-3.1-2.4-6.1-4.6-8.8-6.7v-4.5 h-5.9c-1.8-1.3-3.5-2.5-5.1-3.7l-18.7-30l-16.4-14.1c-3.8-6.5-9.3-15.9-16.3-28.3c-7-12.4-12.8-22.3-17.2-29.5l-1.1-50.9l-2.2-18.7 l-1.2-16.4c8.6-26.6,14.9-44.8,18.9-55c3.9-10.1,10.2-20.7,19.1-31.6l1-9.7c4.3-4.7,7.8-8.6,10.8-11.9c2.9-3.3,6-6.6,9.4-9.8 c3.3-3.2,6.8-5.9,10.4-8.2l15.9-14.1c8.8-4.5,17.9-8.5,27.1-12c9.2-3.4,18.6-6.7,28.3-9.8c9.6-3.1,20.6-6.6,33-10.6h19.7 L3757.1,3199.8z M3852.2,3290.5c-4.6-7.1-10.2-14.1-17-20.8c-6.8-6.7-14.8-14.6-24.1-23.5c-9.4-8.8-16.6-16.5-21.9-23l-17.5-3.5 h-35.7l-19.7,5.7c-24.9,11.4-41.9,24.3-51,38.6l-17.5,23.2l-9.1,25.4c-2.5,6.4-6.1,13.7-10.8,22.1c-4.7,8.5-8.1,14.6-10.1,18.6 l-2.1,12.4l12.4,15.4l1.1,11.3l-3.5,19.7v25.5l4.5,23.2l-1,20.9l4,25.5l20.3,33.5l34.1,19.7l9,1.2l22.1,9.6h16.5l16.5,2.3l11.3,6.7 l33.9-9l3.3-1.4c0.3,1.8,0.8,3.7,1.6,5.5c1.5,4,4.1,7,7.7,9l1.6-5c0-4.8-1-9-3-12.8l2.6-1l25.3-14.1l15.7-15.7v1.2 c0,4.1,1.5,7,4.6,9.1l3.9-5c-1.8-1.9-3-5.4-3.6-10.2l15.7-15.8l11.4-56.5l5.6-11.9l2.8-21.5l-1.1-14.1l-7.4-10.2l-2.2-13l2.2-5.7 l2.3-38.5l5.1-10.1l-1.7-13.2c-3.2-3.6-6.6-7-10.2-10.1c-3.6-3.1-8.9-7.2-15.7-12.2C3856.1,3293.2,3852.5,3290.7,3852.2,3290.5z M3180.7,3240.6l-9-4.5c-3.5,1.9-12.8,4.5-27.3,7.8l-3.5,8.1c4.9,7.6,8.1,14.3,9.6,20.1c1.5,5.6,2.3,13.3,2.3,22.9l4.7,14.1 l6.7,4.6l8.6-7.4c6.9-20.5,10.3-35.8,10.3-45.9C3183,3256.9,3182.1,3250.3,3180.7,3240.6z M3233.9,3603.5l-13.6,9.2l-12.9-5.7 c-3.7-8.5-6.8-20.6-9.5-36.5c-2.7-15.9-8-30-16.1-42c-3.9-4.8-8.4-12-13.5-21.5c-5.1-9.4-8.7-15.9-10.8-19.4v-10.2l-6.8-11.9 l-11.9-1.2c-13.4,15.1-22.2,33.3-26.5,54.9v7.8l-2.4,4.6l-2.2,11.9l-14.3,25.6c-6,20.1-11,33.2-14.6,39l-11.9,4.5l-15.9-19.2 l-0.5-14.3c-5.3-9.5-11-23.9-17-43.3c-5.5-17.5-10.2-30.6-14.1-39.1h0.1v-8h-3.1l-5-14.9l-1.1-7.2l-7.3-9.2c-2-8.9-3.4-18.3-4.1-28 l1.1,1.8l4.6-6.1l-4.6-5l-1.5,1.9c-0.1-2.5-0.1-5.1-0.1-7.7c-11.5-16.3-20.2-33.2-26-51c-5.9-17.8-12.8-42.8-20.4-75.2l-17-27.9 l-6.2-7.2l-18.2-5.7c-3.5-4.8-6.6-8.8-9.2-12.2c-2.5-3.5-4.9-7.2-7-11.2c-2.1-3.9-3.6-8.1-4.6-12.3l10.2-2.8l37.4,6.4l25.5-1.4 l9,1.2l14.2,3.4l38-6.8l5,3.5l3.5,13.5l4.5,8.5l-6.8,9c-5,2.4-8.3,4.6-9.5,6.7c-1.4,2-3.6,7.2-6.9,15.5l4.5,17.5l4.5,6.7l1.3,13.6 l5,18.6c0.8,6.7,3.8,15.5,9.1,26.2c5.3,10.7,8.3,19.6,9,26.5c-1.5,4.9-2.6,8.7-3.3,11.3c1,4.6,2.6,8.5,5,11.9l-2.1,2.2 c0.8,2.2,1.9,3.7,3.2,4.8l-0.5,4.4l14.1,13l10.8,26.6c-4.2,11.8-6.3,21.4-6.3,29c8.1,7.5,15.5,11.6,22.1,12.4 c1.5-0.8,3-1.3,4.7-1.3c4.3-20,11.2-35.1,20.8-45.2c5.3-12.8,10-31.3,14.1-55.6c-1.7-5-6-14.8-12.8-29.4 c-6.8-14.6-11.4-26.4-13.7-35.7l-1.2-10c-5.1-6.3-9.8-13.2-13.9-21c-4.1-7.7-8.6-16.3-13.5-25.8c-4.9-9.4-9.7-17.5-14.5-24.1 l-9.1-2.2c-4.7-6.8-7.5-13.4-8.4-19.9c0.7-2.3,1.1-5.7,1.1-10.2l8.4-1.2h17.1l26.6,2.2l19.8-2.7l28.9-1.2l16.4,1.2l17.6,2.7h29 l31.6-5l12.4,1.2l13,18.7l-2.8,8.4c-20.4,7.3-36.5,16.9-48.6,29l-2.4,13.4c-3.9,5.8-8.2,14.8-13,27.4c-4.8,12.6-7.8,20.3-9.2,23.1 l-4.5,19.1c2.2,9,6.9,21.8,14.2,38.6v17.6c0.8,11.9,2.2,21.3,4.7,28.4c2.3,7,7.8,13.4,16.3,19.1l-1.3,13.7l8,9.5l9,3.4l4-5.7v-9.5 c3.8-4.4,7.1-9.2,9.9-14.4c2.8-5.4,5.9-12.3,9.4-20.8c3.5-8.5,5.9-14.1,7.4-16.9l3.3-20.9l5.7-6.8c1.9-10.8,4.3-21.2,7.4-31 c3-9.7,7.4-22.2,13.2-37.3c5.7-15.2,9.2-24.8,10.6-29v-29.5l-10.1-15.9l-25.5-10.8l-3.3-11.3l4.3-10.8l12.6-1.2l37.3,3.4l33.5-3.4 l14.1-1.1l6.8,10.7c-1.2,11.5-4.1,21-8.9,28.6c-4.8,7.6-12.2,14.6-22.3,21.1l-3.4,10.3l-4.4,3.5c-4.8,27.5-9.7,50.3-14.8,68.6 c-5,18.2-12.6,33.7-22.8,46.3c-8.5,24.5-14.8,42.3-18.6,53.5c-3.9,11.2-8.8,26.2-14.7,45.1c-5.9,18.9-11,36.1-15,51.5 c-4.1,15.5-7.5,30.8-10.4,46.2L3233.9,3603.5z M2222.3,3339.3l-1.6,15.2l-4.6,5.7l1.2,9.1l10.8,8.5l11.4-0.6 c5.4-6.7,11-12.9,16.7-18.7c5.7-5.7,11.9-11.6,18.7-17.8c6.8-6.1,13.7-12.5,20.6-18.9l14.7-4.6l8.6-6.8l5.6-13.1 c3.9-3.3,8.3-6.9,13.2-10.6c0.3-0.3,0.5-0.4,0.6-0.6c0.8-0.1,1.7-0.3,2.8-0.4c3.4-0.4,8.8-1,16.2-1.5l0.4-2.2 c-0.3-1.3-0.9-2.4-1.9-3.5c-1-1-2.1-1.9-3.5-2.7c0.6-0.5,1.4-1,2-1.5c6.3-4.4,11-7.8,14.4-10.4l2.2-10.7l-3.3-13.6l-7.4-9.6 l-2.3-14.8l7.5-6.2c21.1,1.5,38.1,2.3,50.8,2.3l8.3,5l-5.7,1.9l1.5,7.8l6.8-2.3l-1.4-6.7l0.6,0.4h10.7l23.3-6.2l20.8-1.2l8,1.7 l5.7,10.2l-5.7,9l-9.1,6.2l-16.4,3.5l-23.2,11.4l-10.8,9.5l-12.4,6.8l-10.6,9l-9.2,10.8l-10.2,7.8l-27.1,11.9l-6.8,9.2l-14.8,12.4 l-9.5,10.2c-0.1-0.1-0.1-0.1-0.1-0.1l-0.1,0.3l-3.4,3.6l-24.4,15.4l-14.3,27.8l3.5,9c0.5,0.2,6.1,4.3,17,12.4 c11,7.9,19.9,13.3,27.1,15.9l3.5,14.7l7.4,9.2c17.9,12,37.5,32.6,58.9,61.6l13,9.2l13.7,2.7l9.5,8.1l19.9,31.1l35.7,23.2l2.1,8.5 l-9,5.7l-15.4,1.3c-11.2-1.6-27.9-3.2-49.7-4.6l-17.5-4.6l-22.2,3.4l-15.9-1.2l-8.4-6.3l2.8-10.1l6.8-4.6l-1.1-9.6 c-8.2-11.7-22.2-25.1-41.9-40.3l-19.8-26.5c-4-2.9-7.9-6.1-11.6-9.4l1.2-2.8l-8-5.5l-0.5,1.2c-2.3-2.4-4.5-4.8-6.6-7.3l-6.7-4.5 l-4.7-10.3l-10.6-11.9l-9.4-4.7c2-0.5,4.1-0.8,6.3-1.1c2.4-0.3,4.6-0.5,6.5-0.6c2-0.2,3.5,0.1,4.8,1c0.1-5.8-2.5-10.7-7.8-14.4 l-4.5-3l-15.1,5.8c0.2,3.4,0.8,6.1,1.5,8.1l-2.3-1.2H2228l-6.8,6.8v15.2l3.4,26.7l-3.4,11.9l3.4,27.7l-1.1,18.2l9,10.8 c3.1,7,8.6,14.6,16.4,23l11.4,7l3.3,8.4l-9,6.8l-11.9,1.1l-12.4-3.3h-12.4l1.4-3.5l-7.1-5l-3.5,8.5h-1.6h-16.4l-32.4,2.2h-16.3 l-9.2-8.5l5.7-8l11.4-6.7l13-23.3l-2.2-63.8l10.2-24.5l-2.3-9l-12.4-19.9l2.1-36.3l-1.1-34.6l4.6-13l5.7-10.1l1.1-15.3l-9-21 l-1.3-11.4V3266l-4.4-15.2l-5.1-10.2l-11.4-5l-6.8-6.8v-9.2l10.2-5.7l7.9,3.5l37.3-4.5c30.6-2.6,48.7-4.4,54.4-5.1h11.9l9.2,3.5 l4,4.4l-4.4,5.4l3.7-1.3l-5.6,5.5l-12.6,8l-16.3,17.5v17.5l-4.5,9l-1.2,8.6l1.2,16.9l4.5,9.7l-1.2,12.4L2222.3,3339.3z M1751.3,3571.3l47.5,2.2l43.1-1l19.9-8.4l16.9-12.4l25.6-32.4l7.2-17.5l16-17.5l7.4,4.5l2.1,8.4v17l5.7,32.9l-2.2,14.7l-7.9,8.6 l-36.4,18l-26.6,8.5l-15.3,6.7l-41.3,5.8l-36.2,1.2l-31.2-3.5l-29.4-11.3l-42.4-22.2l-47.6-36.2l-28.4-37.9l-14.8-48.8l-2.2-32.8 v-40.2l7.9-35.1l7.9-22.2l6.3-12.5l6.8-14.1l5.7-7.9l4.7-13.2l9.5-15.2l26.6-9.1l11.4-11.4l9.5-15.2l47.6-17.5l18.8-3.4l28.8-1.2 l30.1,2.2h41.9l26.5,1.3l30,10.6l22.2,10.3l10.8,6.8l-1.1,80.4l-6.3,4.7l-10.2-1.4l-15.4-28.7l-36.8-29.4l-5.7-11.4l-23.2-7 l-30.6-10.6l-14.7-2.3l-8.5,2.3h-15.9l-9.5,4.3l-30.1,7.5l-52,52l-5.2,19.9l-3.4,9l-5.6,22.2l-4.4,33.3l-3.5,9.5v8l4.5,8.5v9.1 l1.1,14.1l1.2,17l-1.2,24.4l1.2,23.2l9.2,24.3c8.8,9.7,22.8,22.9,41.8,39.7L1751.3,3571.3z M1243.5,3330.1l5.7-10.8l-2.1-5.6 l-8.1-4.6h-8.4l-3.5,4.6l-2.3,9.1l-4.5,7.4l-7.9,13.5l-8.6,24.3v13.2l1.1,10.1l3.4,11.9c13.8,2.1,21.7,3.2,23.8,3.5 c2.3-0.7,5.7-1.1,10.3-1.1l14.1-4.5l2.4-8.4l-1.2-9.2l-3.9-15.4l-2.4-12.4v-11.8L1243.5,3330.1z M1223.9,3429.8 c-19.1,1.4-33.1,3.3-41.9,5.6l-10.2,9l-3.5,13.1l-4.5,12.5l-5,9.5l-3.5,9.2l-3.4,15.1l-6.8,11.3l-6.8,20l-1.7,14.1l2.8,12.4 l10.2,8.6l9.2,5.7l5,8.9l2.3,11.9l-3.4,5.7l-11.9,1.1l-21.9-2.1l-14.8,1.1l-47-4.5l-17-8.5l3.5-10.2l12.4-5.7l28.4-18.7l6.8-12.4 l12.3-23.2l6.2-9.7l7.9-12.4l10.8-9.5l2.3-13.7l6.8-24.3l5.7-13l15.2-26.5l3.5-9.7l1.9-7.4h6.4v-11.2h-3.4l1.8-6.8l11.9-19.3 l3.5-14.2l5.7-16.4l9-20.8l4.1-8.1l5.7-14.1c1.8-5.5,4.1-11.5,6.8-18.1l4.5-11.9l1.2-21l1-22.1l8.5-6.8h10.2l6.2,8.1v15.2l8.1,24.3 l12.4,27.8l5.1,28.9l6.8,10.8l7.3,25.8l-0.5,0.5l-9.5,20c5.5,0.9,9.8,1.5,12.8,1.9c0.5,0,0.9,0.1,1.4,0.1l3.7,13.3l3.4,8.1 l3.4,15.1v14.8l9.1,15.2l6.2,15.9l5.7,14.1c1.9,3.9,4.8,11.2,8.5,21.6c3.7,10.5,7,18.8,9.6,24.8l1.7,10.2v10.8l8.1,5.7l7.8,12.9 l3.5,12.5l10.7,11.9l14.8,6.8l7.4,8.1l-1.2,8.4l-8.4,6.8h-40.2l-23.2-1.1l-21,2.1h-7.4h-22.6l-2.7-6.8l10.6-5.7l14.7-3.8l7.4-11.4 l1.1-19.9l-2.3-10.1l-3.4-6.2l-3.8-14.7l1-8.5l-12.4-18.1l-3.4-8.6l-1.2-11.3l-3.3-5.7l-5.1-8.5v-11.4l-4.6-9.6l-5.7-6.8 c-3.5-4.5-10.2-6.8-19.7-6.8h-5.7H1223.9z M685.9,3455.1l2.2,22.1v17.6l-4.6,11.4l-1,12.9l1,19.2l5.8,6.2l4.5,9.1l35.1,11.9 l40.3,3.5l11.9-2.3h26.6l11.3-8.4l9.6-21.1l3.5-5.7l3.4-13l13-7.8l11.4,6.8l-3.4,16.4l3.4,9.5v10.2l-1.2,7.8v30.6l-4.5,5.7 l-25.6,2.3h-40.7l-17.6,1.2h-77.6l-24.3-4.7h-11.9l-15.8,3.5h-19.9l-7.5,1c0-0.6-0.1-1.2-0.2-1.8c-8,0.4-13.9,1.4-17.4,3h-7.2 l-14.1-3.4l-5.7-6.9l5.7-8.5l24.3-17l9.2-11.9l1-13v-21.6l1.2-11.9l5.1-7.9l-1-14.1l-8.6-27.7v-13l4.5-18.1l1.7-25.6v-7.4l-2.8-2.1 l-2.3-13.7l1.3-14.1l6.2-17.6v-21l-2.4-28.9v-18.7l1-7.8v-11.3l-8.4-14.2l-21-14.2l-5.5-11.4l1-9.5l11.9-1.2l14.8,1.2l15.2,2.7h13 l20.3,1.2l23.3-6.1l23.2,2.3l14.3-1.2l6.7,3.9l-2.1,8l-19.9,13.7l-7.9,9.5l-4.5,14.8l-5.7,11.9v33.4l-0.6,16.3v14.2l-10.2,24.3 l9.1,5.7l3.8,6.7l1.4,6.3l-3.5,6.8l-1.7,33.5l1.1,27.7L685.9,3455.1z M99.9,3219.7c-1-1.5-2.2-3.1-3.7-4.7 c-1.4-1.6-2.8-3.2-4.2-4.9l6.8-5.7l13-2.4h9.1c7,0,16.9,1.4,29.3,4.2c12.4,2.8,20,4.4,22.7,4.9l16.3-3.4h16.5l13.7,1.2l17.5,1.2 h13.4c0,0,0.1,0.1,0.1,0.1c0-0.1,0.1-0.1,0.1-0.1h19.7l22.1,2.7l25.5,13.6l35.1,27.7l8,8.6l7.9,28.8v11.4l4.1,14.3l1.1,13 l-6.2,16.9l-9.2,11.9l-13,4.6l-5.7,4.5l-6.8,6.8l-9.1,3.9l-9.5,5.7v6.8l37.2,31.2l4.7,10.6l9,14.8c1.2,5.2,2.6,10.8,3.9,17 c1.4,6.3,3.3,14.8,5.7,26l1.2,14.3l-1.2,11.3l-3.4,16.2l-10.6,24.5l-9.2,6.8l-9.6,2.8l-14.7,14.8l-28.9,9.5l-22.1,2.4l-18.7,2.2 h-30.6l-32.4,1.1l-13.5-2.2l-23.2-1.1l-34.1,3.3l-14.1-2.2l-13.6-5.2l9-9.2l13-10.1l8-13v-12.6l5.7-3.8l1.2-18.1l0.6-28.4 l-0.6-23.2l-1.2-83.3v-32.3l1.2-27.2l4.1-13.7l-2.4-14.1l-1.7-12.4v-21l-1.2-17.5l-6.7-15.2l-2.8-2.5v-15.7 c-3.7,1.4-5.5,4.7-5.5,10.1c0,0.3,0.1,0.6,0.1,0.8l-2.1-1.8L99.9,3219.7z M253.4,3233.4l-7.4,1l-19.7-3.4l-11.4,1l-11.9,9.7 l-4.5,15.9l3.5,13c-0.5,2.1-1.7,7.2-3.7,15.5c-2.1,8.2-3.5,14.1-4.3,17.9v13l4.5,11.3l2.2,9.5v9.1l2.3,11.9l14.2,10.2l19.9,1.1 l16.3-1.1h15.9l16.4-5.6l16.5-16.5l7.9-13.5l1.1-16.4v-32.4l-2.1-9.5l-6.8-15.9l-7.4-6.2l-3.4-5.7l-6.8-7.9l-11.9-5.1h-9.2 L253.4,3233.4z M2303,3343.3l-2.7,6.1l1.5-12L2303,3343.3z M2409.7,3237.9c0.8,3.9-0.6,6.5-4.1,7.7c-5,1.7-8.2-0.6-9.5-7.2l0.5-1.2 l12-4.2L2409.7,3237.9z M2314,3340.6l-4.5-3.2l6.9-2.6L2314,3340.6z M2203.4,3532.5l-0.1-16.4l2.3,0.1c1.2,0.8,2.9,5,5.2,12.5 L2203.4,3532.5z M2313.2,3494.5l-5.4-3.7l7.7-2L2313.2,3494.5z M2417.2,3559.1l-3.9,9.2l8.1,5.5l3.8-9.2L2417.2,3559.1z M1274,3386.4c0.3,1.3-0.6,5.1-2.6,11.4l-10.4-7.9l2.6-7.2l1.5-0.6c0.5-0.1,3.2,1,8,3.5L1274,3386.4z M1292.1,3435.5l-3.7,1.2 l2.8-6.1L1292.1,3435.5z M1297.7,3462.7l-5-4.5l2.8-6.2l5.5,3.3L1297.7,3462.7z M1315.9,3484.7c-7,2.4-11,5.5-11.7,9.3l-4.8-3.6 c0.3-4.2,2.1-7,5.6-8.1l9.8-3.4L1315.9,3484.7z M627.9,3563.6l-5.5,7.6l-6.6-8l5.5-7.6L627.9,3563.6z M651.1,3546.8l-4.1,5.8 l-0.3-11.1L651.1,3546.8z M1138.3,3563.5v11.1h-8.6v-11.1H1138.3z M1715.3,3216.5c-2.3,5-3.9,7.5-4.8,7.9l-1.7-0.5l1.8-11 L1715.3,3216.5z M1919.7,3517.7l-6.1,2.1l-1.6-7.8l6.1-2.1L1919.7,3517.7z M175.7,3257.6v8.1h-6.2v-8.1H175.7z M186.6,3210.3 l-8.6,6l3.9-6H186.6z M320.7,3273.8v8.1h-6.2v-8.1H320.7z M352.6,3260.7l4,5.1l-8.7-5.1H352.6z M160.2,3467l-8.5,6.1 c-5.2-11.4-7.9-16.8-7.9-16.1c0-2.7,1.1-4.7,3.2-6L160.2,3467z M143,3423.8l-4.6-6.1l4.6-5V3423.8z M178.1,3444.9 c1.6,0,4.2,2,7.7,6.1l-4.6,5c-1.5-2.7-2.8-4.5-3.5-5.5c-0.8-1-1.2-1.8-1.2-2.5l0.8-3H178.1z M4822.2,3358l5.2-1.8l1.6,7.8l-5.3,1.8 L4822.2,3358z M4686.6,3262.9l-6.1,2.1l-1.6-7.8l6-2L4686.6,3262.9z M4695.3,3305.8l-6.1,2.1l-1.6-7.9l6-2.1L4695.3,3305.8z M4678.3,3360.7l-1.2-1.7c-0.6-3.3,0.8-5.5,4.3-6.7c4.1-1.3,7,0,9,4.3L4678.3,3360.7z M4719.1,3346.7c0.1,3.4-1.6,5.7-5.1,7 c-3.5,1.2-5.9,0.2-7-2.8l2.6-7.1l1.5-0.6C4712.5,3342.6,4715.2,3343.9,4719.1,3346.7z M4711.3,3434.9l-6.7-9.2l5.5,3.3 L4711.3,3434.9z M4682.4,3530.2l-8.2,2.9l7-8.7L4682.4,3530.2z M4235.1,3314.4c3.3-5.3,5.4-8.1,6.4-8.4l1.7,0.4l-3.1,12.5 L4235.1,3314.4z M4235.8,3243.2l6.1-2.1l1.6,7.8l-6.1,2.1L4235.8,3243.2z M4212.8,3291.8c-0.4-1.9-0.1-3.8,0.9-5.5 c1-1.7,2.1-3.4,3.5-4.8c1.3-1.6,2.4-3,3.5-4.4c1.1-1.4,1.7-2.8,1.9-4.3l6,9.4l-15.4,11.5L4212.8,3291.8z M4217.8,3229.6 c1.2-4.7,3.8-7.6,7.9-9c3.5-1.2,6.4-0.1,8.7,3.3l-2.8,6.2l-5.3,1.8C4222.3,3233.3,4219.5,3232.5,4217.8,3229.6z M4186.2,3229 c0.7-4.4,2.8-7.2,6.3-8.5c2.5-0.8,4.7,0.5,6.5,4.1l-2.7,6.1l-1.3,1.5C4194.4,3232.5,4191.5,3231.3,4186.2,3229z M4216,3593.2 l-6.1,2l-1.6-7.7l6-2.1L4216,3593.2z M3651,3579.5 M3561.4,3409.1l0.8,2.1c0,5.4-2.6,8.1-7.8,8.1h-1.5v-5.2c3.7-4,5.9-6,7-6 L3561.4,3409.1z M3612.9,3424.2v4.1c0,0-1.5,2.7-4.7,8l-3.9-5c4.2-4.7,6.6-7,7.1-7H3612.9z M3881.8,3519v5l-4.7-5H3881.8z M3023.2,3463.5c4.7,0,7,3.6,7,11c0,5.4-1.5,9.1-4.7,11.1l-8.6-16.1C3020.6,3465.4,3022.7,3463.5,3023.2,3463.5z M2999.9,3369.7 l-8.6,11.2l-3.9-5c0.4-4.1,2.8-6.1,7-6.1h2.4H2999.9z M2985,3317.4v9h-6.3v-9H2985z M3004.5,3337.5c2.6,3.4,4.7,6.4,6.3,9.1 c1.5,2.7,2.3,4.7,2.3,6.1c0,3.4-1.6,5.4-4.7,6c-6.2-8.1-9.4-13.7-9.4-17.2c0-0.6,0-1.3,0-2c0-0.6,0.3-1.4,0.8-2H3004.5z M268.1,3402h-10.2l-25.5-5.2l-14.1,2.3l-12.5,7.4l-9.5,24.4l3.3,15.9l-3.3,15.2l-9.2,18.8l3.5,10.1l6.7,9.6v14.6l-2.4,13.2 l-4.3,12.5l2.1,13l11.9,9l30,8.6l28.9,1.2l21-3.3l12.4-6.4l8.4-12.5l6.8-20.8l1.2-17.5l3.3-12.5l1.2-12.9l-9-32.4l-2.4-15.3 l-15.2-28.7l-11.4-7L268.1,3402z">
                     </path>
                     <path class="st6"
                        d="M1572.9,2308.4l-13.5-4.5l0.7-3.1c1-1.4,4.9-2.6,11.7-3.5 M1564.6,2175.1l-6.8,9.4l-6.5-7.8l6.8-9.4 L1564.6,2175.1z M1865.6,1629.9c-3.4-3.7-5.2-6.6-5.2-8.8c0-2.2,0.8-4.3,2.6-6.1c1.7-1.8,3.2-3.8,4.7-6c1.5-2.2,3-4,4.7-5.5 c1.7-1.5,2.5-2.6,2.5-3.3L1865.6,1629.9z M1548.3,1985.7c0,10.2,1.4,16.5,4.3,18.7l-4.3,5.5c-3.4-1.5-5.1-4.8-5.1-9.9v-14.3H1548.3 z M1255.2,2320.5c1.8,0,4.6,2.3,8.5,6.6l-5.1,5.5c-1.6-3-3-5-3.8-6c-0.8-1.2-1.3-2.1-1.3-2.8l0.8-3.4H1255.2z M1216.9,2297.4 l-5.2-6.6l5.2-5.5V2297.4z M1235.6,2344.7l-9.4,6.7c-5.6-12.6-8.5-18.4-8.5-17.7c0-3,1.2-5.2,3.4-6.6L1235.6,2344.7z M1188.7,2332.7v2.3c0,0-1.4,3.2-4.3,9.8l-5.1-5.4c4.5-4.4,7-6.7,7.6-6.7H1188.7z M1404.5,2548.7c1.2,0,3.4,2.2,6.8,6.6l-4.2,5.5 c-3.4-5.9-5.1-8.8-5.1-8.8l0.8-2.3L1404.5,2548.7z M1425,2596c3.4,0.8,5.1,3,5.1,6.6c0,1.5-0.6,3.2-1.7,5c-1.1,1.9-2.2,3.5-3.4,5 c-1.2,1.4-2.2,2.7-3,3.8c-0.8,1-1.3,2-1.3,2.8V2596H1425z M1350.9,2505.7v8.8h-6.8v-8.8H1350.9z M1379.9,2560.8 c3.4,1.5,5,4.4,5,8.8c0,4.4-1.7,7.4-5,8.8c-2.9-3-4.2-6.2-4.2-9.9v-7.7H1379.9z M1481.3,2692v8.8h-6.8v-8.8H1481.3z M1344,2566.3 l-4.3,6.5l-4.2-6.5l4.2-5.5L1344,2566.3z M1393.5,2636.9l4.2,5.5l-8.5-5.5H1393.5z M1434.4,2677.7c2.3,1.5,3.4,3.2,3.4,5.5 c0,0-0.8,1.4-2.2,4.3c-1.4,2.9-3.5,7.4-6.3,13.2c-2.3-0.8-3.4-3-3.4-6.6C1425.9,2694.2,1428.7,2688.6,1434.4,2677.7z M1301.5,2546.4v8.8h-6.8v-8.8H1301.5z M1330.4,2596c-0.6,3,0.3,5.9,2.5,8.9c2.3,2.9,4.6,5.8,6.8,8.8l-4.2,5.5 c-6.9-8.9-10.2-15.1-10.2-18.8c0-0.8,0-1.4,0-2.2c0-0.8,0.3-1.5,0.8-2.3H1330.4z M1229,2497c0,0,2.6,1.7,7.7,5.4l-5.1,6.6 c-1.7-2.9-2.8-4.9-3.5-6.1c-0.5-1-0.8-2-0.8-2.8v-3.2H1229z M1514.2,2194.6c-1,1.4-1.7,3.4-2.1,6.2c-0.5,2.7-0.9,5.7-1.4,9.1 c-0.5,3.4-0.8,6.6-1,9.7c-0.1,3-0.8,5.2-1.7,6.6c-2,2.8-5.7,3.6-10.9,2.5l-0.6-22.3l3.8-5.2 C1504.9,2195,1509.5,2192.7,1514.2,2194.6z M1446.9,2103.4l-3.7,5.3l-0.3-10.1L1446.9,2103.4z M1498,1653.8c1.2,0,4.1,2.3,8.5,6.7 c-1.6,4.4-3.9,6.6-6.8,6.6c-3.4,0-6-2.3-7.7-6.6l5.1-5.5L1498,1653.8z M1446,1588.9c2.8,3.7,5.1,7,6.8,9.9c1.7,3,2.6,5.2,2.6,6.7 c0,3.6-1.7,5.8-5.1,6.5c-6.8-8.8-10.2-15-10.2-18.7c0-0.6,0-1.5,0-2.2c0-0.7,0.3-1.5,0.8-2.2H1446z M1424.7,1566.8v10h-6.8v-10 H1424.7z M1440.9,1624.1l-9.4,12.2l-4.3-5.5c0.5-4.4,3.1-6.7,7.7-6.7h2.5H1440.9z M1385.5,1600.9c-1.7,3.7-4.3,5.6-7.7,5.6 c-4.5,0-6.7-3-6.7-8.9c0-0.7,1.7-3.6,5-8.8L1385.5,1600.9z M1446,1684.7l-5.1,6.6l-4.2-6.6l4.2-5.5L1446,1684.7z M1466.5,1726.6 c5.2,0,7.7,4,7.7,12.1c0,6-1.6,9.9-5,12.2l-9.4-17.6C1463.6,1728.8,1465.9,1726.6,1466.5,1726.6z M1394.9,1655 c-0.6,2.2-0.1,4.4,1.2,6.6c1.5,2.2,3.2,4.6,5.2,7.2c2,2.6,3.7,5,5.1,7.2c1.4,2.2,2.1,4,2.1,5.5c0,2.9-1.4,6.2-4.3,9.9 c0-2.2-0.7-4.6-2.1-7.2c-1.5-2.5-3.1-5.2-5.1-7.7c-2.1-2.6-3.7-5-5.2-7.1c-1.4-2.2-2.1-4.1-2.1-5.6 C1389.8,1661.6,1391.5,1658.6,1394.9,1655z M1462.3,1754.3v8.7h-6.8v-8.7H1462.3z M1388.1,1696.8c4.5,0,6.8,2.6,6.8,7.8 c0,7.3-2.9,11-8.6,11l-0.8-1.2c-3.4-5.1-5.1-8.1-5.1-8.8v-3.3C1385.5,1698.7,1388.1,1696.8,1388.1,1696.8z M1348,1630.8 c2.2,2.9,3.4,6.2,3.4,9.9c0,1.5-0.6,3.5-2.1,6c-1.4,2.6-3,5.5-4.6,8.8c-1.7,3.4-3.3,6.4-4.7,9.4c-1.4,3-1.8,5.5-1.3,7.8l-4.3-5.5 c1.2-1.5,2-3.9,2.6-7.2c0.6-3.3,1.3-7,2.1-11c0.8-4.1,2-7.7,3.4-11.1C1343.9,1634.6,1345.7,1632.2,1348,1630.8z M1342.9,1702.4 l-4.3,6.6l-4.3-6.6l4.3-5.6L1342.9,1702.4z M1348,1721.1c0.6,1.4,1.2,3.2,2.1,5c0.9,1.8,1.9,3.6,3.1,5.5c1.1,1.8,2.1,3.9,3,6.1 c0.8,2.2,1.2,3.7,1.2,4.4c0,3.7-1.6,6.6-5.1,8.8l-9.3-12.2v-4.4C1342.9,1727.7,1344.6,1723.3,1348,1721.1z M1376.1,1763 c-6.2,3-9.4,8.5-9.4,16.6c0,15.4-3.1,23.9-9.4,25.3l-9.3-12.1v-3.4c-0.6-3.7,0-7,1.7-9.9c1.7-2.9,4-5.8,6.8-8.8 c9.1-7.4,13.9-11.8,14.5-13.3L1376.1,1763z M1525.3,2004.4l-5.1,5.5l-4.3-5.5l4.3-6.6L1525.3,2004.4z M1325,1745.4 c-2.8,13.2-9.1,21.3-18.8,24.3l-5.1-6.7c2.3-2.9,5.4-5.7,9.4-8.2C1314.4,1752.2,1319.3,1749,1325,1745.4z M1459.7,1950.4h-4.2 l4.2-6.6V1950.4z M1423.9,1900.8c0.5,0,3.1,2.2,7.7,6.7l-9.4,12.1l-4.3-5.5v-2.2c0-0.8,0.5-1.9,1.4-3.3c0.8-1.5,1.8-3.7,2.9-6.7 L1423.9,1900.8z M1501.4,2004.4v5.5l-4.3-5.5H1501.4z M1336.9,1799.4c4.5,0,6.8,4,6.8,12.1c0,5.8-1.7,9.9-5.2,12.1 c0-0.7-0.4-1.6-1.3-2.7c-0.8-1.1-1.9-2.4-3.4-3.9c-1.4-1.5-2.5-3.1-3.4-5c-0.9-1.8-1.4-3.5-1.4-4.9v-2.3 C1334.4,1801.2,1336.9,1799.4,1336.9,1799.4z M1422.2,1938.3c3.4,5.1,5.2,8,5.2,8.8v3.3l-9.4-6.6L1422.2,1938.3z M1401.7,1907.4 c4.5,0,6.8,2.5,6.8,7.7c0,7.3-2.6,11-7.6,11h-1.7c-3.4-5.8-5.2-9.2-5.2-9.9l0.9-2.2C1398.3,1909.6,1400.6,1907.4,1401.7,1907.4z M1487.8,2040.8l-5.1-6.5l5.1-5.5V2040.8z M1440.9,1960.3c4.6,0,6.8,2.5,6.8,7.7c0,0.7-0.6,3.1-1.7,7.1c-1.1,4-2.8,9.7-5.1,17.1 l-13.6-18.7l-0.9-2.3c0-1.4,1.7-4.7,5.2-9.9c2.2-0.7,3.9-1.1,5.2-1.1C1438.3,1960.3,1439.8,1960.3,1440.9,1960.3z M1338.6,1847.9 l-9.4,12.1l-4.2-6.6v-5.5c-1.2-5.2,0.3-9.2,4.2-12.1L1338.6,1847.9z M1382.9,1916.2v9.9h-6.8v-9.9H1382.9z M1456.3,2015.4 c1.2,0,4,2.2,8.6,6.6l-9.4,12.2l-5.1-5.5v-2.2c0-0.7,1.7-4,5.1-9.9L1456.3,2015.4z M1389.8,1943.8c3.4,0,5.2,2.5,5.2,7.7 c0,7.4-2.9,11.1-8.6,11.1l-0.8-1.1v-17.6H1389.8z M1446,2119l4.3,5.6l-9.4-5.6H1446z M1271.3,1919.5c4.5,0,6.8,2.6,6.8,7.7 c0,7.4-2.5,11.1-7.7,11.1h-1.7c-3.4-5.1-5.2-8.5-5.2-10l0.9-2.2C1267.9,1921.7,1270.2,1919.5,1271.3,1919.5z M1411.1,2133.3v8.9 h-6.8v-8.9H1411.1z M1291.7,2004.4l-9.4,12.2l-4.3-6.6l9.4-12.2L1291.7,2004.4z M1334.4,2130.1v12.1l-5.2-12.1H1334.4z M1252.6,2115.7v8.8h-6.8v-8.8H1252.6z M1927,1701.9v13.7h-9.4v-13.7H1927z M3810,2167.1c-1.5,1.3-3.9,3.1-7.3,5.3 c-3.4,2.3-7.5,5.5-12.6,9.5c-4.7,3.2-8.5,5.7-11.5,7.9c-3.2,2.2-6.3,3.9-9.6,5c-1.1,0.4-2.2,0.8-3.3,1.2c-0.5,0.1-1.7,0.2-3.5,0 c4.3-7.5,9.2-13.9,14.6-19.2c5.4-5.3,11.9-9.3,19.6-11.9l7.4-2.6L3810,2167.1z M3159.8,2400.2l-6.6,2.3l-1.8-8.6l6.6-2.2 L3159.8,2400.2z M3158.5,2337.9c-0.5,3.2-1.5,5.2-3.2,5.7c0,0-1.3-0.5-3.9-1.6c-2.6-1-6.4-2.5-11.5-4.6c0-3,1.4-4.9,4.1-5.9 C3144,2331.5,3148.8,2333.6,3158.5,2337.9z M3121.6,2347.2l-6.6,2.2l-1.7-8.5l6.6-2.3L3121.6,2347.2z M3080.6,2388.5 c-1.8,5.3-4.9,8.6-9.4,10.1c-4.4,1.5-8.4,0.6-12-2.7c0.7-4.8,3.1-7.9,6.9-9.2c9.4-3.2,13.9-4.4,13.4-3.5L3080.6,2388.5z M3090,2296.4c0.3,1.4-0.5,5-2.2,11l-6.1-3.7c3.5-5.7,5.4-8.6,5.4-8.6l2.6,0.2L3090,2296.4z M3066.2,2296.6l-1-5.4l5.9,3.6 L3066.2,2296.6z M3013.7,2242.7c-1.7,2.8-2.9,5-3.5,6.3c-0.6,1.4-1.2,2.1-1.7,2.3l-2.8-0.2l2.8-12.4L3013.7,2242.7z M2866.5,1116.4 l4.2-10.1l-8.8-6.1l-4.1,10.1L2866.5,1116.4z M3087.7,1070.3l7.8,5.4l-4.7,11.4l-7.7-5.4L3087.7,1070.3z M2853.3,1196.6l2.3,9.7 l-8,4.2l-2.7-11.7L2853.3,1196.6z M2980.2,1187.2l5.9,4l-8.5,2.2L2980.2,1187.2z M3100.3,1145.6l0.2,17.9l-2.5,0 c-1.3-0.9-3.2-5.5-5.7-13.6L3100.3,1145.6z M3002.9,1190l8.8,6.1l-4.1,10l-8.8-6.1L3002.9,1190z M2925.6,1237 c1.8-4.2,4.9-4.7,9.5-1.5c6.5,4.5,8.2,10.5,5,18.1l-2,1.8l-15.6-10.8L2925.6,1237z M3030.3,1247.9c1.4,0.9,3.1,1.3,5.2,1.2 c2.2-0.2,4.6-0.4,7.2-0.7c2.7-0.3,5.2-0.7,7.5-1.3c2.3-0.6,4.2-0.5,5.4,0.5c2.6,1.8,4.1,6.1,4.7,13l-16.5,6.4l-4.9-3.4 C3033,1259.6,3030.1,1254.3,3030.3,1247.9z M2979.4,1355.4l4.9,3.4l-7.5,2.9L2979.4,1355.4z M2350.9,2251.5v12.2h-9.4v-12.2H2350.9 z M2295.8,2263.7c4.7,1,7,5,7,12.1c0,7-2.4,11.1-7,12.1l-5.9-7.5l-1.2-4.6C2288.7,2275.8,2291.1,2271.7,2295.8,2263.7z M2305.2,2450.3v12.1h-9.4v-12.1H2305.2z M2447.7,2626.2l-7.1,7.5l-5.9-7.5l5.9-9.2L2447.7,2626.2z M2064.4,1512.8v7.7h6.8v-7.7 H2064.4z M2008.2,1533.8l0.8,5.5c0,6.6-1.7,11-5,13.2c-3.4-5.9-5.2-9.5-5.2-11v-2.2c4-3.7,6.6-5.5,7.7-5.5H2008.2z M1829.6,1792.1 v7.7l-4.3-7.7H1829.6z M1785.3,1754.7v8.8h-6.8v-8.8H1785.3z M1829.6,1829.6c3.4,1.5,5.1,5.2,5.1,11.1v7.7l-9.4-13.2L1829.6,1829.6 z M1778.4,1824.1c3.4,2.2,5.2,5.9,5.2,11c0,8.8-2.9,13.2-8.6,13.2h-1.7v-16.5C1773.3,1827.5,1775,1824.9,1778.4,1824.1z M2042.2,2641l-5.1,5.5l-4.2-5.5l4.2-5.5L2042.2,2641z M1697,2584.9v8.8h-6.8v-8.8H1697z M1648.5,2669.7v7.7l-4.2-7.7H1648.5z M1654.5,2023.5l6.5,7.8l6.8-9.5l-6.5-7.8L1654.5,2023.5z M1730.9,2489.5c0.6,3.4-0.3,6.7-2.8,10.3c-2,2.7-4.8,5.2-8.4,7.4 c-3.7,2.2-8.3,3.7-13.9,4.7l-0.3-10.2c0.4-2.1,1-3.4,1.5-4.1c1-1.4,1.5-2,1.5-2C1710.9,2492.1,1718.4,2490,1730.9,2489.5z M1714,2324.4l-6,8.3l-7.2-8.8l6-8.4L1714,2324.4z M1632.3,2311.7l-6.1,8.4l-7.2-8.8l6-8.4L1632.3,2311.7z M1643.8,2448.8 c2.1-1.4,2.1-0.8,0.1,2.1c-2,2.8-5.5,7.6-10.5,14.6c-4.6,6.2-9.2,8.4-13.9,6.6l-0.3-12.1l3-4.1c1-1.4,3.5-2.7,7.4-3.9 C1633.3,2450.8,1638.1,2449.7,1643.8,2448.8z M1598,1986.5l-7.9,0.3l-1-11.1l9.4-0.5L1598,1986.5z M1572.4,2147.5l-4.4,6.2 l0.5-11.1L1572.4,2147.5z M2122.1,967.9v9.1l-7-9.1H2122.1z M2080.3,1006v12.2h-9.4V1006H2080.3z M2054.5,972.6v12.1h-9.4v-12.1 H2054.5z M2025.2,1018.1c4.7,1,7.1,5.1,7.1,12.1c0,7.1-2.4,11.1-7.1,12.2l-5.9-7.6l-1.2-4.5 C2018.2,1030.3,2020.6,1026.2,2025.2,1018.1z M2154.8,1106.4l-12.8,7.6v-3.1c0-1,2.3-5.5,7-13.6L2154.8,1106.4z M2173.5,1164.1v7.6 l-5.9-15.2L2173.5,1164.1z M2145.4,1142.9v13.7h-9.4v-13.7H2145.4z M2124.5,1288v12.2h-9.4V1288H2124.5z M2063.5,1208.4l-5.9,9.2 l-7-9.2l7-7.5L2063.5,1208.4z M1963.8,1200.1c1.5,0,5.1,2.9,10.5,9l-7,7.6c-4.8-7.1-7.1-11.6-7.1-13.7l1.2-2.9H1963.8z M1970.7,1294.7l1.2,4.5c0,2-2.4,6.1-7.1,12.2l-5.8-7.6c4.7-6,8.3-9.1,10.5-9.1H1970.7z M1959,1328l-20,16.7l12.9-24.2L1959,1328z M1800.7,1109c4.7,8.1,7,12.7,7,13.7l-1.2,3l-12.9-16.7H1800.7z M1787.8,1275.8l-13,7.6l13-16.7V1275.8z M1637.7,1250.1 c6.3,0,9.4,5,9.4,15.1c0,12.1-4.7,21.3-14.1,27.3c-3.9-4.1-5.9-9.1-5.9-15.2v-18.2C1633.4,1253.1,1636.9,1250.1,1637.7,1250.1z M2477.1,1160.3l6.5,7.8l6.8-9.4l-6.4-7.8L2477.1,1160.3z M2595,1568.8l-4.5,6.3l-0.3-12.1L2595,1568.8z M2420.5,1123.3l-7.8,0.4 l-1.1-11l9.4-0.4L2420.5,1123.3z M2395,1284.3l-4.5,6.2l0.5-11.2L2395,1284.3z M2387.2,1311.9l-6.8,9.4l-6.5-7.8l6.8-9.4 L2387.2,1311.9z M2371.8,1203.3c2.7,3.3,2.2,7.3-1.3,12.2c-5,7-10,7.5-14.8,1.7l-0.9-3l12.1-16.7L2371.8,1203.3z M2336.8,1331.3 c-1.1,1.4-1.7,3.4-2.2,6.2c-0.4,2.7-1,5.7-1.4,9.1c-0.5,3.4-0.7,6.7-0.9,9.7c-0.3,3-0.8,5.2-1.7,6.7c-2.1,2.7-5.7,3.6-11,2.4 l-0.5-22.3l3.7-5.2C2327.4,1331.8,2332.1,1329.5,2336.8,1331.3z M2269.5,1240.2l-3.7,5.2l-0.3-10.1L2269.5,1240.2z M2811.7,2630.7 c1.2,5.7-0.8,9.4-5.7,11.1c-3.3,1.2-5.9-0.3-7.9-4.1l5.9-14.6C2808.8,2626.8,2811.4,2629.3,2811.7,2630.7z M2771.3,2623l-1.2-6.4 l5.3,5L2771.3,2623z M2715.8,2610.1l-5.8,1.9l4.7-7.3L2715.8,2610.1z M2732.4,2545.1l-6.6,2.2l-1.8-8.5l6.6-2.2L2732.4,2545.1z M2687.7,2619.6c-0.2,4.7-2.5,7.7-6.9,9.2l-5.7,2l7.4-15.1L2687.7,2619.6z M2678.7,2554.4c-0.8,4.8-3,7.9-6.9,9.2 c-6.6,2.2-10.6-0.1-12.1-7.2l-0.5-2.2l12.3-4.2C2675,2548.7,2677.3,2550.2,2678.7,2554.4z M2594.5,2633.4c-3.5,5.7-5.8,8.8-7,9.2 l-1.8-0.5l3.3-13.7L2594.5,2633.4z M2243.5,979.5c-0.1-3.3,1.4-5.5,4.8-6.6c3.4-1.2,5.5-0.3,6.7,2.6l-2.4,6.8l-1.5,0.5 C2249.6,983.3,2247.1,982.1,2243.5,979.5z M2287.2,897l5.7-1.9l1.5,7.4l-5.7,1.9L2287.2,897z M2282.2,966.2l1,1.6 c0.7,3.1-0.7,5.2-4.1,6.3c-3.7,1.3-6.6,0-8.4-4L2282.2,966.2z M2266,1018.3l5.7-2l1.5,7.4l-5.7,2L2266,1018.3z M2285.9,1033.2 l5.7-1.9l1.5,7.4l-5.7,2L2285.9,1033.2z M2274.4,1059l5.7-2l1.5,7.5l-5.7,1.9L2274.4,1059z M2561,906l4.1-1.4l-2.8,7.8L2561,906z M2479.6,1102.7l5.8-2l-4.5,8.4L2479.6,1102.7z M2506.3,1043.3c1.3-5,4.1-8.3,8.5-9.7c3.9-1.3,7.3-0.2,10.4,3.3l-3.6,8.1l-4.9,1.6 C2512.8,1048,2509.3,1046.8,2506.3,1043.3z M2572.3,939.8c7.1-2.4,11.4-5.8,12.9-10.2l5.2,3.9c-0.8,4.8-2.8,7.8-6.1,8.9l-10.8,3.7 L2572.3,939.8z M2546.8,1004.4l1.6-0.5c1.1-0.4,4.3,0.8,9.5,3.5l-4.7,7.3c-4-5.4-6-8.2-6-8.2L2546.8,1004.4z M2474.8,1173.9 c1.4,1.1,3.5,1.5,6.4,1.2c2.8-0.3,5.9-0.4,9.2-0.3c3.2,0,6.3,0.5,9.1,1.4c2.8,0.9,5.1,2.6,6.8,5.1l-3,6.7l-28.8-15.3L2474.8,1173.9 z M2586.3,990.8l3.3-1.1c3.8-1.3,6.7,0,8.7,3.8l-3,6.7L2583,992L2586.3,990.8z M2522.5,1143.9l1.8,0.5c1.1-0.4,3.2-3.3,6.1-8.9 l7.4,10c-3.5,5.8-5.5,8.8-6.1,9l-2.8-0.2c-4.3-3.9-6.6-6.5-6.9-7.9L2522.5,1143.9z M2494.7,1241.2c3-5.5,5-8.6,6.1-9 c3.9-1.3,6.4,1.3,7.8,7.6c0.7,3.6-0.4,7-3.2,10.3L2494.7,1241.2z M2615.9,1005.8c2.5-10.8,7.3-17.3,14.4-19.8l4.6,0.7 c-0.7,5.6-2.4,10-5.2,13.2c-2.8,3.3-6,5.1-9.4,5.5L2615.9,1005.8z M2443.2,1402.5l5.7-2l-1.7-8.5l-5.8,2L2443.2,1402.5z M2664.5,954.9l6.6-2.2l1.7,8.5l-6.6,2.3L2664.5,954.9z M2642.7,1046.8c0.8-4.8,2.6-7.8,5.3-8.6c3.4-1.2,6.2,0.1,8.8,3.8l-4.4,8.4 l-1.7,0.5C2650,1051.1,2647.5,1049.7,2642.7,1046.8z M2671.5,1049.5l7,4.4l-7.7,14l-5.2-3.9L2671.5,1049.5z M2558.8,1300.2l3.3-1.2 c0,0,2.7,1.4,7.9,4.2l-3.1,6.8c-5-4.4-7.5-6.9-7.7-7.6L2558.8,1300.2z M2650.8,1137.5c2.4-5.4,6.6-9.1,12.6-11.2 c7.2-2.5,11.3,0.3,12.3,8.4l0.3,1l-13.2,4.5C2658.4,1141.8,2654.4,1140.9,2650.8,1137.5z M2684.4,1082.6c3-5.6,4.8-8.4,5.4-8.6 l1.6-0.6l-1.8,13.1L2684.4,1082.6z M2717.6,1033.7l1.3,6.4l-5.4-5L2717.6,1033.7z M2560.9,1374.7l1.4-1.6c4.5-1.5,7.4,1.2,8.8,8.4 l0.4,2.2l-4.1,1.4c-4.3-3.8-6.7-6.5-6.9-7.9L2560.9,1374.7z M2687.1,1134.2l7.4-2.5l2,9.6l-7.4,2.5L2687.1,1134.2z M2668.5,1194.2 l2.5-0.9c0.5-0.2,1.4,0.1,2.3,0.9c1,0.7,2.5,1.6,4.5,2.5l-2.8,7.7c-4-4.7-6-7.4-6.1-8.2L2668.5,1194.2z M2710.9,1116.9 c1-4.1,2.2-6.5,3.9-7c2.2-0.8,5.6-0.1,10.2,2.2c4.6,2.2,7.7,3.4,9.5,3.5l-3.1,6.8c-0.9,1.1-1.7,1.7-2.3,1.9c-0.5,0.2-1,0.3-1.6,0.6 C2724.8,1125.8,2719.2,1123.2,2710.9,1116.9z M2670,1240.3l7.4-2.5l1.7,8.5l-7.4,2.5L2670,1240.3z M2590.3,1515.8 c2.1,0.4,3.7,1.6,4.7,3.5l-3.1,6.7C2577.3,1518.4,2558.8,1510,2590.3,1515.8z M2588.1,1559.3 M2753.2,1190.2 c3.4-0.5,7.3-0.4,11.5,0c4.2,0.5,9.1,1.6,14.8,3.5c-1.5,4.3-4.5,7.2-8.8,8.7l-4.1,1.4c0,0-0.7-0.3-2.1-1c-1.3-0.8-3.2-1.7-5.9-3.1 c-2.8-2.1-4.5-4.9-5.3-8.5L2753.2,1190.2z M2719.4,1291.9l7.4-2.5l1.8,8.5l-7.5,2.5L2719.4,1291.9z M2615,1574l1.3,6.4l-5.4-4.9 L2615,1574z M2795.5,1215.7l7.4-2.5l1.9,9.5l-7.4,2.6L2795.5,1215.7z M2758,1325.4l6.5,10.3l-2.3,1.9c0,0-2.3-1.5-7.1-4.4 L2758,1325.4z M2719.8,1410.3l5.8-2l1.7,8.5l-5.7,2L2719.8,1410.3z M2738.3,1470.2c0.8-4.8,3.1-7.9,7-9.2c2.7-1,5.1,0.5,7,4.4 l-3,6.8l-1.4,1.6C2747.3,1474,2744.1,1472.7,2738.3,1470.2z M2759.3,1426.5c-1.7-8.5,2.4-14.5,12.2-17.8c4.3-1.5,8.5-1.1,12.6,1.4 c-0.4,0.9-1.1,2.7-2.1,5.3c-0.9,2.6-2,5.2-3.2,7.9c-1.2,2.7-2.6,5.3-4.2,7.7c-1.6,2.5-3.2,3.9-4.8,4.5c0,0-0.3,0-0.8,0.3 c-0.6,0.2-1.8,0.2-3.6,0.1C2761.9,1431.7,2759.8,1428.6,2759.3,1426.5z M2727.6,1529.7c2.5-5.4,4.2-8.2,5.3-8.6l2.7,0.2 L2727.6,1529.7z M2772.8,1470.9c1.4-5.1,4.2-8.4,8.6-9.9c3.8-1.3,7-0.1,9.5,3.6l-3.1,6.7l-5.7,2 C2777.8,1474.9,2774.6,1474,2772.8,1470.9z M2772.1,1527.6c1.4-1.6,2.8-3.2,3.9-4.7c1.2-1.6,1.9-3.1,2.1-4.7l6.5,10.2 C2776.1,1534.8,2754,1547.1,2772.1,1527.6z M2792.6,1485.8l6.6-2.3l1.8,8.5l-6.6,2.3L2792.6,1485.8z M2443,1016.1 c-1.7,2.9-3,5-3.5,6.4c-0.6,1.3-1.3,2.1-1.8,2.3l-2.6-0.2l2.7-12.3L2443,1016.1z M2452.8,994.5c-5.2,1-11.8-1.6-20.2-8l-0.6-3.2 c0.8,1.3,2.3,2.1,4.4,2.5c2.2,0.5,4.5,0.8,6.8,1.1c2.4,0.4,4.4,0.8,6,1.4c1.6,0.6,2.6,1.9,3.1,4.1L2452.8,994.5z M2415.2,949.2 c0.1,0.8-0.6,4.4-2.2,11c-3.4,0.5-5.7-1.9-6.7-6.8c-0.7-3.5,0.4-7,3.2-10.2l5.4,5L2415.2,949.2z M3312.5,1695.3l-7.4-10.1l6,3.6 L3312.5,1695.3z M3321,1598.9c0.1,3.7-1.7,6.3-5.6,7.6c-3.8,1.3-6.3,0.3-7.6-3.1l2.8-7.8l1.7-0.6 C3313.9,1594.5,3316.8,1595.8,3321,1598.9z M3270.7,1693.7l-6.6,2.2l-1.7-8.5l6.6-2.3L3270.7,1693.7z M3276.4,1614.2l-1.2-1.9 c-0.8-3.5,0.8-5.9,4.6-7.3c4.5-1.5,7.7,0,9.7,4.7L3276.4,1614.2z M3295,1554.2l-6.5,2.3l-1.8-8.5l6.6-2.2L3295,1554.2z M3272.1,1537l-6.6,2.2l-1.7-8.5l6.6-2.3L3272.1,1537z M3285.4,1507.3l-6.6,2.3l-1.7-8.5l6.6-2.3L3285.4,1507.3z M3295.1,2642.5 l-6.6,2.3l-1.7-8.6l6.6-2.2L3295.1,2642.5z M3219.2,2603.4l-5.7,2l4.7-7.3L3219.2,2603.4z M3201.7,2582.1l-5.9,1.9l-1.7-8.5 l5.8-1.9L3201.7,2582.1z M3703.8,2445.5l-4.2,10.1l8.8,6.1l4.1-10L3703.8,2445.5z M3428.6,2697.5l-5.8-4l9-3.5L3428.6,2697.5z M3408.4,2670.6l-7.7-5.4l4.7-11.3l7.7,5.4L3408.4,2670.6z M3375.1,2660.4c-2.3,1.7-5.2,1.3-8.4-1c-2.7-1.7-5.2-4.6-7.8-8.6 c-2.5-3.9-4.8-9.3-7-16.3l7.5-3c1.6,0.1,2.8,0.4,3.4,0.9c1.3,0.9,2,1.3,2,1.3C3368,2636,3371.4,2644.9,3375.1,2660.4z M3494.2,2597 l-7.9-5.4l4.7-11.3l7.9,5.4L3494.2,2597z M3482.6,2491.7l-7.7-5.4l4.7-11.3l7.9,5.4L3482.6,2491.7z M3383.1,2541.1 c1.5,2.2,1.1,2.4-1.6,0.6c-2.6-1.7-7.1-5-13.6-9.5c-5.8-4-8.6-9.3-8.6-15.6l9-3.5l3.9,2.7c1.4,0.9,2.9,3.7,4.7,8.2 C3378.9,2528.4,3381,2534.2,3383.1,2541.1z M3717,2365.4l-2.3-9.7l8-4.1l2.7,11.5L3717,2365.4z M3590.1,2374.7l-5.8-4.1l8.4-2.2 L3590.1,2374.7z M3470,2416.3l-0.1-17.9l2.4,0.1c1.4,0.9,3.2,5.4,5.7,13.7L3470,2416.3z M3567.4,2371.9l-8.8-6.1l4.2-10.1l8.8,6.1 L3567.4,2371.9z M3644.7,2325c-1.7,4.1-4.9,4.6-9.5,1.5c-6.4-4.5-8.2-10.6-5-18.1l2.1-1.9l15.6,10.8L3644.7,2325z M3540,2314 c-1.4-0.9-3-1.3-5.2-1.2c-2.2,0.1-4.6,0.4-7.2,0.7c-2.7,0.3-5.2,0.8-7.5,1.4c-2.3,0.5-4.1,0.4-5.4-0.6c-2.5-1.8-4.2-6.1-4.6-13 l16.5-6.4l4.8,3.4C3537.3,2302.4,3540.2,2307.7,3540,2314z M3590.9,2206.5l-4.9-3.4l7.5-2.9L3590.9,2206.5z M3295.6,1203.7 c1.3-5.1,4.6-8.5,10.2-10.4c7.2-2.4,12.7,0.2,16.6,8c-2,4.5-4.2,7.1-6.3,7.8c-2.7,1-6.5,0.4-11-1.9 C3300.6,1205,3297.4,1203.9,3295.6,1203.7z M3314.8,1258.7l7.2,4.4l-4.7,7.3l-5.2-3.9L3314.8,1258.7z M3330.4,1210 c0.8-1.8,2.1-2.9,3.7-3.5c6.7-2.2,13.3,0.5,20.1,8l-2.8,7.8L3330.4,1210z M3317.9,1316.9c-0.1-0.7,0.7-4,2.4-10 c3.6,0.3,5.8,2.6,6.7,6.8c0.8,4.3-0.2,7.7-3.2,10.2l-4.5-4.2L3317.9,1316.9z M3345.8,1276.5l5.7-1.9l1.8,8.5l-5.9,1.9 L3345.8,1276.5z M3340.8,1312.5c0.2-4.7,2.2-7.7,6.1-9c3.3-1.1,6,0.3,7.9,4.1l-3.1,6.8l-2.2,1.9 C3348.9,1316.5,3346,1315.2,3340.8,1312.5z M3362.5,1366.7c-0.3-4.5,1.1-7.2,4.4-8.4c2.8-0.9,5.7,0.4,8.7,3.9l-4.6,7.3l-1.5,1.6 C3369.5,1371.1,3367.2,1369.5,3362.5,1366.7z M3388,1357.9c2.1-4.5,5.5-7.6,10.5-9.3c8.2-2.8,14.4-1.2,18.6,5 c0.7,0.5-4.2,2.5-14.6,6.2C3396.5,1361.9,3391.6,1361.2,3388,1357.9z M3345.5,1486.4l7.5-2.5l1.9,9.6l-7.4,2.5L3345.5,1486.4z M3378.2,1404.6c1.2,0.3,3.2,0,5.9-0.9c1-0.4,2.4-1.2,3.9-2.5c1.6-1.3,3-2.7,4.5-4.3c1.4-1.7,2.8-3.1,4.4-4.5 c1.5-1.2,2.8-2,3.9-2.5c0,0,0.3,0,0.8-0.3c0.6-0.1,1.7-0.2,3.5,0c3.2,4.2,5.1,7.8,5.7,10.6c0.3,1.4-0.5,2.5-2,3 c-1.7,0.6-4.4,0.9-8.1,1.1c-3.8,0.2-6.2,0.5-7.4,0.9c-3.9,1.3-6.2,4.4-6.9,9.2c-4.8-3.7-7.5-6.6-8-8.7L3378.2,1404.6z M3427.5,1322.7l5.8-2l1.7,8.5l-5.8,2L3427.5,1322.7z M3370.9,1481.2l5.5,5l-3.1,6.8l-5.2-3.9L3370.9,1481.2z M3340.2,1551l6.6-2.2 l1.7,8.5l-6.6,2.3L3340.2,1551z M3403,1495.3c0.5-8.5,4.4-14.1,11.5-16.6c5.5-1.8,9.7-1.4,12.6,1.5c-0.5,0.2-1.4,1.2-2.4,3.1 c-1.1,1.9-2.5,3.9-4.1,5.9c-1.7,2.1-3.4,4-5,5.7c-1.7,1.8-3.1,2.8-4.2,3.2C3409.3,1498.8,3406.4,1497.9,3403,1495.3z M3418.2,1526.6l9.8-3.4l-3.4,13.7c-3.7-4-5.8-6.7-6.1-8.2L3418.2,1526.6z M3416.2,1590l5.7-2l-4.7,7.3L3416.2,1590z M3527.2,1378.6c0.7-4.8,3-7.9,6.9-9.2l4.1-1.4l-9.9,15.9L3527.2,1378.6z M3433.8,1611.3l5.7-2l1.7,8.5l-5.7,2L3433.8,1611.3z M3578.7,1440.8l7.4-2.6l-0.9,12.8c-4.4-4.5-6.7-7.2-6.9-7.8L3578.7,1440.8z M3577.1,1484.7c0.3-4.6,2.9-7.4,7.9-8.5l5-1.7 l-7.5,15.1L3577.1,1484.7z M3563.7,1582.8l4.9-1.7l-3.8,7L3563.7,1582.8z M3599.4,1520.3c-0.1-3.7,1.2-6,3.9-7 c6-2.1,9.7,0.1,11,6.5l-0.4,2.4l-5.7,2.1C3604.3,1525.5,3601.4,1524.3,3599.4,1520.3z M3704.8,2303.1c-7.7,2.7-12,6.1-12.8,10.2 l-5.2-3.9c0.2-4.6,2.2-7.7,6.1-9l10.8-3.7L3704.8,2303.1z M3685,2279.1l-5.4-5l3-6.8l6.1,3.7L3685,2279.1z M3708.6,2183.2l-1.1-5.3 l6,3.6L3708.6,2183.2z M3736.4,2125.8c0.1,0.7-0.8,4.4-3,11.2l-11.5-8.6l3.1-6.7l1.7-0.5c0.5-0.3,1.4,0.1,2.8,0.7 c1.4,0.7,3.2,1.4,5.7,2.1L3736.4,2125.8z M3678.8,2249.3l-4.1,1.4l3.1-6.8L3678.8,2249.3z M3640.7,2295.5c0.5,2.1-0.4,6.2-2.7,12.2 l-5.5-4.9c1.8-2.8,3-5,3.5-6.4c0.6-1.4,1.3-2.1,1.7-2.3l2.8,0.2L3640.7,2295.5z M3708,2133.2c-3,5.6-4.8,8.5-5.3,8.7l-2.5,0.8 l2.5-13.3L3708,2133.2z M3648.2,2241.5l3.5-8.1l5.5,5L3648.2,2241.5z M3696.3,2162.3c1.2,5.7-0.2,9.2-4.1,10.5 c-0.5,0.2-2.5,0.1-5.8-0.3c-3.2-0.4-8-1.1-14-2.1l10.5-21.8l1.5-1.6c1-0.5,3.9,0.9,8.6,3.8c1.1,2.6,1.9,4.7,2.1,6.1 C3695.7,2159.2,3696.1,2160.9,3696.3,2162.3z M3754.2,2005.7l-11.5-8.6l3.9-7l4.2-1.4c3.5-2.8,6.8-2,10.1,2.2L3754.2,2005.7z M3714.5,2078.6l-7.4,2.5l-1.8-8.5l7.4-2.5L3714.5,2078.6z M3659,2195.6c0.4,1.4-0.6,5.5-2.7,12.4l-11.5-8.7l2.8-7.7l1.7-0.6 c0.5-0.1,3.4,1.2,8.7,3.9L3659,2195.6z M3765.5,1961.9c1.2,5.7-0.5,9.3-4.8,10.8c-2.7,1-7.7-1.5-14.7-7.5c0.7-4.8,3-7.9,6.9-9.2 l5.7-2C3762.9,1957.9,3765.2,1960.5,3765.5,1961.9z M3617.6,2277.1l-7.4-10.1c7.9-10.3,11.5-15.4,11-15.2c2.2-0.7,4.1,0.1,5.8,2.6 L3617.6,2277.1z M3695.6,2094.2c0.8,4.3-0.6,7-4.5,8.4c-5.5,1.9-9-0.7-10.4-7.8l0.6-1.4l13.2-4.5L3695.6,2094.2z M3614.6,2215.5 l-1.7,0.5c0,0-2.8-0.9-8.4-2.8l2.8-7.8c4.5,4.5,6.8,7.2,6.9,7.9L3614.6,2215.5z M3638.1,2144.7c-8.2,0.5-14.1,1-17.8,1.5 c-3.7,0.5-5.6,0.8-5.6,0.8c-5.5,1.9-9.5,5.2-12.1,9.8l-6-3.6c1.2-8.7,5.5-14.4,13.3-17.1l15.6-5.4c0,0,0.6,0.5,2.1,1.5 c1.4,1.1,3,2.1,4.6,3.1c1.7,1,3,2,4.1,3.1c1.2,1.1,1.9,2.4,2.1,3.8L3638.1,2144.7z M3579,2209.4l-3,6.7l1.7-13.1L3579,2209.4z M3683.4,1939.9c1.2,5.7-0.1,9.2-4,10.5c-5.5,1.9-8.9-0.4-10.2-6.7l-0.5-2.2c3-5.5,5-8.6,6.1-8.9l1.8,0.4 C3680.8,1936.1,3683.1,1938.4,3683.4,1939.9z M3559.3,2169.4l-6.6,2.2l-1.8-8.5l6.6-2.3L3559.3,2169.4z M3625.2,1987.2l-11.5-8.6 l3.8-7.1l11.5,8.6L3625.2,1987.2z M3542.1,2072.6l-9,3.2l7.7-9.5L3542.1,2072.6z M3573.7,1968.3l-7.4-10l6,3.6L3573.7,1968.3z M3531.9,1966.7l-6.6,2.3l-1.7-8.5l6.5-2.3L3531.9,1966.7z M3537.6,1887.1l-1.2-1.7c-0.6-3.6,0.8-6.1,4.7-7.4 c4.3-1.5,7.6,0,9.8,4.6L3537.6,1887.1z M3556.2,1827.2l-6.6,2.2l-1.7-8.5l6.6-2.3L3556.2,1827.2z M3533.3,1810l-6.6,2.2l-1.8-8.5 l6.6-2.2L3533.3,1810z M2577.5,2644.5c20.1,0.3,40,0.6,60,1.1l-7.4-6.2l3-6.7l1.5-1.6c0.5-0.2,3.1,1.2,7.9,4.1l0.4,2.2 c0.2,0.6-0.4,3.4-1.5,8.3c123.2,2.7,246.5,8.4,369.7,17c-5.2-13.9-10.1-27.9-16.8-41.1c-39.7-78.6-113.7-177.5-149.4-263.1 c-0.4-27-28.8-91.5-42-112.5c-4.5-7.2-9.9-15.1-17.7-22.6c-98.4-15.2-132.9,46.7-161.3,59.2c-3.5,1.5-6.2,0.2-7.7-3.6 c-2.3-5.5-4-7.5-11.7-13c0.1,5.8-19,25.6-22.4,41.1c-5.5,25.2-42.6,60.2-42.1,89.1C2540.7,2458.1,2531,2595,2577.5,2644.5z M2286.2,2646.3c64-1.7,128.1-2.5,192.1-2.5c-7.1-31.9-13.2-83.1-13.5-108.1c-1.2-82.9-31.6-72.4-19.5-161.6 c-0.6-42.5-11.4-83.7-12-126.2c-0.4-28.9-10.9-70.4-39.1-68.7c-19.1,1.2-40,2.8-54.6,3.4c0.4,32.8-78.4,45.7-98.4,73.9 c-13.8,19.3-72.4,119.3-72,138.5c1.2,79.2,21.6,157.5,68.7,217.6c5.7-0.3,13.6,7.2,17.4,7c3.9-0.2,14,20.6,19.6,21.7 C2277.8,2642,2281.8,2643.7,2286.2,2646.3z M1893.9,2663.1c83.8-4.8,180.8-8.5,250.5-11.7l0.6-1c0.4,0.3,0.7,0.6,1.1,0.9 c2.5-0.1,5-0.3,7.5-0.4c-11.4-23.3-14.6-53.8-28.3-80.3c-28.2-55.1-47.2-116.5-52.4-141.6c-5.2-25.1-3.6-33.2,21.4-87.2 c27.9-60.1,19.9-70.6,20.3-131c0.1-12.5-0.1-25.4-0.3-38.7c0.2,12.8-2.5,29.4-16.4,36.6c-60.6,31.4-145.5,49.8-203.2,84 c0.5-0.9,1-1.8,1.5-2.8c2.9-5.2,4.3-9.2,4.3-12.1c0-2.2-1.4-4.4-4.3-6.6c-6.8,8.8-10.2,15.1-10.2,18.8c0,0.8,0,1.4,0,2.2 c0,0.7,0.3,1.8,0.8,3.3l1.2,1.5c-23.4,14.9-41.7,32.9-50.8,55.9c-20.8,52.5-28.8,234.6,10.4,279.5c6.4,3,38.4,18.3,49.1,30h-3 V2663.1z M1874.3,2664.2c1-0.1,1.9-0.1,2.9-0.1c2.1-1.7,3.1-4.2,3.1-7.6c0-5.2-1.7-8.5-5.2-9.9c-3.4,5.9-5,9.2-5,9.9l0.8,3.3 L1874.3,2664.2z M1824.1,2667.6c3.3-0.2,6.7-0.5,10.1-0.8c-0.1-4-1.9-6.3-5.1-7c-3.4,5.2-5.1,7.7-5.1,7.7L1824.1,2667.6z M1794.9,2669.9c0.6,0,1.2-0.1,1.7-0.1c0,0,0,0,0-0.1h-0.8C1795.6,2669.7,1795.3,2669.8,1794.9,2669.9z M1276.4,2744.4 c116.3-19.9,232.5-36.6,348.7-50.4h-4.1v-7.6h6.8v7.4c30.4-3.6,60.8-7.1,91.1-10.3c1.5-4.1,20.7-7.7,50.8-11 c-2.7-3.5-5.2-6.5-6.4-8.1c-8.8-12.1-27.7-28.6-26.6-46.3h6.9v-10h-6.1c-0.6-89.2,16.6-182.3,15.3-269.5 c-0.7-50.2,96.9-140.4,73-170.9c0,0-9.1-13-14.7-7.1c-22.6,24-37.5,36.7-70,44c5.2-14.2-5.2-14.2-26.8-9 c-47.6,11.6-82.6,15.7-129.5-21c30.8-1.2,115.4-65.9,114.9-98.7c12.4,2.4-10.4-29.1-15.1-31.8c36-14.3,33.9-22.5,66.1-45.5 c8.8-6.2,11.7-27.9,17.4-35.8c-11.9,2.4-23.9,3.9-35.6,4.7c0.2-1.1,18.2-12.2,20.1-15c4.5-6.5,13.1-12.7,19.9-19.1 c0.3-2.2,1.2-3,3.8-3.9c1.8-1.9,2.9-4.4,4.5-5.8c91-80.7,123.6-202.9,179.3-235.6c103.8-60.9,155.2-108.1,249.3-106 c63.8,1.4,212.3,37.1,290.3,24.8c27.5-1,108.7-8.8,170.9-18.3l0.7,3.6l2.7-4.2c20.1-3.1,38-6.5,51.2-9.7 c30.8-7.6,49.4-12.6,66.7-15.4c-0.1,0.2-0.3,0.3-0.3,0.5l5.4,4.9l1.6-6.4c19.7-2.4,39.7-1.9,76.8,1.5 c59.4,5.3,85.3,87.9,154.2,111.1c2.2-8.7,7.7-15,7.9-17.4c0.3-3.8,6.3,2.3,6.8,2.9c5.4,5,21.3,19.5,27.2,23.7 c7.3,5.4,19,13,27.1,13.6c1.6,0.1,3.8,0.7,6.3,1.5c5.6,0.1,7.1-6.6,11-9.5l5.4,3.2c11.7,24.2,28.9,62.3,114.2,94.7 c23.7-3.4,49.8-8,73.8-7.3c6.1,0.2,18.1,0.6,22.3,0.1c8.5-0.9,1.6,16.7,0.1,20.2c-4.1,10.6-11.4,24.1-14.2,31.1 c8.8,4.6,24.8,19.5,39,29l-8.1,2.8c-7.7,2.6-12.1,8.3-13.2,17.1l6,3.6c2.6-4.7,6.6-8,12.1-9.9c0,0,1.9-0.2,5.5-0.8 c3.7-0.5,9.6-1,17.7-1.5l0.5-2.5c-0.1-0.2-0.1-0.4-0.2-0.6c38-3.7,86.9,20,123.8,33.5c-35.3,43.5-89.9,27.6-110,78.7 c-9,22.9-7.9,61.6-18.3,88c-8.3,21.1-25.9,35.3-32.1,51.2c-24.4,62.1-0.7,150.6-25.6,219.9c-17.4,7-42.8,18.6-50.8,14.4 c-39.2-20.4-20.4,2.9-47.9-28.8c-5.5-6.4-11.4-13.2-17-19.7c0.5,0.1,1,0.4,1.7,1c1,0.8,2.3,1.7,3.6,2.7c1.5,1,3,2.1,4.7,3 c1.7,1,3,1.3,4.1,0.9c2.8-1,4.1-3.7,3.7-8.1l-1.1-5.3l-16.8,5.7c-9.1-10.6-17.5-20-22.7-24.6l2.1-4.6l-1-5.4l-1.5,9.7 c-0.7-0.6-1.3-1.1-1.9-1.6c-18.5-13.3-49.7-35.1-65.3-51.1c-16.6-17-53.1-20-78.3-10.5c0.8-23-5.5-43.7-15.7-61.5 c-3.3,9.2-5.7,16.4-6.6,19.5c-12.4,43-37,135.6-36.4,176.2c0.9,63.7,62.3,165,91.5,226.6c14.6,31,78.1,67.1,96,96.2 c152,13.4,304,31.3,455.9,53.3l1.5-4c1.6,1.9,2.8,3.5,3.7,4.8c34.8,5.1,69.8,10.3,104.6,15.8c20.8,0,12.4-70.6,20.8-87.1 c6.2-12.4,14.4-24.8,21.1-39.3c-16.9-1-44.7-3.4-44.7-5.9c0-21.7-65.1-18.6-83.6-18.6c-24.8,0-55.8,0-80.6,0 c-37.2,0-31-9.3-43.3-21.8c-12.5-12.4-114.7,12.5-102.3-12.4c3-6.2,31-6.2,40.2-6.2c34.1,0,71.3-3.1,102.3-3.1 c43.4,0,93,0,136.3-6.2c23.8,0,58.8-2.8,88.9-3.1c1.8-17.2,5.6-32.4,11.3-49.5c0-16.6,16.6-136.9,24.9-145.3 c24.9-24.9,16.6-99.6,16.6-145.2c0-30.3-3.6-63.1-8.6-96.6c-2.4-0.2-4.4-0.8-6.2-1.7l4.8-7.2c-12.2-78.8-31.5-161.4-31.5-226.5 c0-20.7-87.1-70.6-53.9-103.8c4.1-4.1,16.6-20.7,8.3-29c0,0-2.8-11.2-5.8-23.4c-1.4,4.4-4.7,7.5-10,9.4c-6.6,2.2-12-0.1-16.4-6.9 c2.1-10.6,7.1-16.9,15.5-19l4.3-0.4c1.3,1.2,2.3,2.2,3.3,3.1c-1.9-8.4-3.4-15.3-3.4-16.7c0-12.5-20.8-58.1-29.1-66.4 c-4.1-4.1-16.6-33.2-16.6-37.3c-8.3-16.6-24.9-37.3-33.2-58.1c0-8.3-33.2-45.6-33.2-53.9c0-12.4-24.9-33.2-29-41.5 c-4.1-8.3-20.8-24.9-20.8-37.3c0-8.3-4.1-8.3-8.3-12.4c-16.6-16.6-24.9-24.9-58.1-24.9c-62.2,0-58.1-87.1-83-112 c-24.9-24.9-78.8-53.9-107.9-83c-4.1-4.1-74.7-49.8-78.8-49.8c-8.3,0-120.4-70.5-141.1-78.8c-29,0-53.9-20.8-66.4-33.2 c-12.4-12.5-41.5-24.9-62.2-33.2c-37.4-16.6-103.8-24.9-141.1-41.5c-29.1-12.4-74.7-16.6-107.9-20.7c-29,0-66.4-24.9-99.6-24.9 c-37.3,0-78.9,4.2-116.2,4.2c-70.6,0-145.3,4.1-207.5,12.4c-15.1,0-29,2.6-41.9,6.8l5.9,8.1l-5.2-3.2l-1.1-4.8 c-33.2,10.8-60.8,32.1-90.6,47c-29,12.5-103.7,16.6-145.3,16.6c-12.4,0-66.4,49.8-74.7,58.1c-20.7,20.8-91.3,49.8-128.6,66.4 c-4.2,4.1-78.9,33.2-78.9,33.2s-10.7,7.8-23.2,16.7c33.9,0.2,69.5,1.6,105,1c30.1-0.4,29,8.7,33.7,15.1c0.5-1.4,1.1-2.8,1.5-4.3 c1.6-4.6,3.4-8.9,5.3-12.9c2-4.1,4.3-7.6,7-10.6c2.8-3.1,5.7-4.6,8.8-4.6c0.8,2,1.2,5.5,1.2,10.6c0,5.6-2.3,14.8-6.8,27.6 c0.6,0,1.3,0,1.9,0c8.4-0.1,17.9,0.3,28.1,1l-4.5-5.8l5.9-9.1l7,9.1l-5.5,6c38.2,2.7,85.7,9.4,124,8.8 c52.8-0.9,111.6,10.6,164.3,9.7c-27.9,34.6-148.7,2.4-198.3,3.2c-46.5,0.8-117.8-4.2-155,14.9c-18.6,9.6,62,14.5,43.4,24.2 c-12.1,5.7-32.8,8.4-56.4,9.6l-0.8,5.5c-0.6-1.4-1.4-3.1-2.3-5.4c-10.6,0.5-21.8,0.6-33,0.6v4.7h-9.4v-4.7 c-30.1-0.3-59.4-1.5-77.9-1.3l-89.2,0.6c-10.1,8.5-19.8,18.1-28.3,26.6c-20.8,20.7-58.1,70.5-78.9,103.7l-37.3,37.3 c-4.1,8.3-24.9,24.9-24.9,33.2c0,16.6-24.9,62.2-33.2,78.8c-8.3,16.6-20.8,33.2-29,49.8c-12.5,24.9-54,70.6-74.7,99.6 c0,41.5-41.5,87.1-41.5,124.5c0,12.5,0,33.2-4.1,41.5c-3.5,7.2-22.5,35.9-27.7,46.4l13.5,50.1c-8.8-4.8-15-10.9-18.8-18.6 c-0.1,0.7-0.2,1-0.2,1c-4.1,16.6-12.5,37.3-16.6,53.9c0,15.2,0.9,32.4,1.2,49.7c10.9,26.4,54.3,21.7,94.3,18.3 c1.2-1.2,2-1.8,2.3-1.8c2,0,3.7,0.5,5.2,1.2c10.6-0.8,20.7-1.4,29.7-1.1c-0.1,0,0,0-0.1-0.1v-16.5c0-5.9,1.4-10.3,4.3-13.2 c6.8,3.6,10.3,8.8,10.3,15.4c0,5-1.7,10.1-4.8,15.1c9,1.1,16.3,3.5,21,8.2c6.2,6.2-18.6,18.6,12.4,18.6c43.4,0,117.8,12.5,155,12.5 c3.2,0,5,0.5,5.5,1.2l2.1-2.8l4.9,5.9c2.6,3.3,2.2,7.4-1.3,12.2c-5,7-10,7.5-14.8,1.6l-0.9-3l6.9-9.5c-1.3,0.9-2.8,1.7-4.5,2.6 c0,0,0,0,0.1,0.1l-5.2,5.5c-0.6-1-1.1-1.9-1.6-2.7c-6.4,2.4-13.6,4.3-19,4.3c-3.6,0-7.3,0-11-0.1l8.6,10.5l-9.4,6.6 c-4.6-10.4-7.4-16.1-8.2-17.4c-9.5-0.2-19.2-0.7-29.2-1.1v2c0,0-1.4,3.2-4.2,9.9l-5.1-5.5c3.9-3.8,6.3-6,7.3-6.4 c-58.8-2.8-124.4-7.3-171.9,4.6c-11.8,2.6-56.8,18.7-104.9,31.3c-3.9,9-4,21.7-4,34.6c0,70.5-4.1,153.6-4.1,228.3 c0,0.1,0,0.4,0,0.6h2.3l4.3,5.5l-6.6-3.9c0.5,20.3,8.3,44.3,8.3,68.4c0,29,0,53.9,12.4,78.8c0.2,0.4,0.4,0.8,0.6,1.1h1.7v3 c8.1,14,18.4,22.6,18.4,41.5C1214.2,2635.2,1249,2685.7,1276.4,2744.4z M3147.8,2001.7l-6.6,2.3l-1.8-8.5l6.6-2.3L3147.8,2001.7z M3152.9,1875.7l-4.9,1.7l3.7-7.1L3152.9,1875.7z M3040.5,2110.4l-6.6,2.2l-1.7-8.5l6.6-2.2L3040.5,2110.4z M3139.9,1847.1 l-6.6,2.3l-1.5-7.5l6.6-2.3L3139.9,1847.1z M2986,2175.8c0.1,0.7-0.6,4.4-2.2,11.1c-3.5,0.4-5.7-1.9-6.7-6.9 c-0.7-3.5,0.4-7,3.2-10.2l5.4,4.9L2986,2175.8z M3144,1797.8l-6.6,2.3l-1.8-8.6l6.7-2.3L3144,1797.8z M3010.4,2045.4l-1.1-5.3 l5.2,3.9L3010.4,2045.4z M3086.3,1778.8l-6.6-10.3l28,3L3086.3,1778.8z M3110.6,1716.8l-5.5-4.9l3.1-6.7l5.2,3.9L3110.6,1716.8z M2993.9,1951.9l-6.6,2.3l-1.7-8.5l6.5-2.3L2993.9,1951.9z M2936.3,2070.8c-2.5,5.4-4.3,8.3-5.4,8.6l-1.9-0.5l2-12L2936.3,2070.8z M3076.4,1743.4l-6.6,2.3l-1.7-8.5l6.6-2.3L3076.4,1743.4z M2950,2009.1l-6.6,2.2l-1.7-8.5l6.6-2.3L2950,2009.1z M2970.7,1963.2 l-1.7,0.5c-4.9,1.7-8.1-0.6-9.4-7.1l-0.4-2.1l5-1.7c3.9,4.8,5.9,7.5,6,8.2L2970.7,1963.2z M2993.2,1871.1c-1.3-0.3-3.7,2.4-7.2,8.2 l-7.4-10c3.7-5.1,5.7-7.7,6.3-7.9l1.6-0.6c4.3,3.9,6.6,6.5,6.9,7.9L2993.2,1871.1z M3044.3,1732.8c-1.4,5-4.5,8.3-9.4,10 c-4.4,1.5-8.5,0.6-12-2.7l3-6.8l9.9-3.4C3040.1,1728.5,3043,1729.4,3044.3,1732.8z M2943.9,1923.4l-4.9,1.7l3.9-7.1L2943.9,1923.4z M2915.5,1969.6c-0.2,4.7-2.6,7.7-7,9.2c-4.3,1.5-7.8,0.4-10.2-3.2l3.8-7l3.3-1.1C2910.3,1965.7,2913.6,1966.4,2915.5,1969.6z M3043,1679.6l-9,3.1l7.7-9.5L3043,1679.6z M2995.8,1767.6c-1.9-0.9-4.6,1.9-8,8.4l6.9-13.7L2995.8,1767.6z M3016.4,1721.8 l-6.6,2.2l-1.8-8.5l6.7-2.3L3016.4,1721.8z M2894.3,1943.8l-6.5,2.3l-1.7-8.5l6.6-2.3L2894.3,1943.8z M2967.6,1780.7l-6.6,2.3 l-1.7-8.6l6.6-2.2L2967.6,1780.7z M2951.1,1825.1c-1.3,5-5,8.5-11,10.7c-6,2.1-9.8-0.4-11.2-7.5c-1-5.1,0.6-8.3,5-9.8l10.7-3.6 c4.4,4.5,6.8,7.2,6.9,7.9L2951.1,1825.1z M2225.4,2280.4l-12.9,7.5v-3c0-1,2.4-5.5,7.1-13.6L2225.4,2280.4z M2518,2559.4l-7,9.1 l-5.9-9.1l5.9-7.6L2518,2559.4z M2511,2609.4v7.6l-5.9-7.6H2511z M2144.4,2362.2c1.6,0,5.1,3.1,10.6,9.1l-7,7.6 c-4.8-7.1-7.1-11.6-7.1-13.6l1.1-3.1H2144.4z M2405.3,1787.3v5.5l-5.1-5.5H2405.3z M2377.2,1792.8c0,9.5,1.5,15.8,4.3,18.8 l-4.3,5.5c-3.4-2.3-5-5.5-5-10v-14.3H2377.2z M2335.5,1797.2v4.4c0,5.1-1.8,8.5-5.2,9.9l-4.3-5.6l9.4-13.2V1797.2z M2316.7,1830.3 c7.4,5.9,11.1,13.6,11.1,23.1l-1.7,5.5c-4-2.2-6.8-5.5-8.5-9.8c-1.7-4.4-2.3-8.9-1.7-13.2L2316.7,1830.3z M2111.3,1683.7v4.4 c0,0-1.7,3-5.2,8.8l-4.3-5.5c4.6-5.1,7.2-7.7,7.7-7.7H2111.3z M2055.1,1667.2l0.8,2.2c0,5.9-2.8,8.8-8.5,8.8h-1.7v-5.5 c4-4.4,6.5-6.6,7.7-6.6L2055.1,1667.2z M2153,1853.4 M2127.5,1838v9.9h-6.9v-9.9H2127.5z M2143.7,1954.8c-0.6,4.4-1.6,9.2-3,14.3 c-1.5,5.2-3.6,11.1-6.4,17.7c-2.8-3-4.3-7.4-4.3-13.2v-5.5c0,0,0.5-0.7,1.3-2.2c0.9-1.5,2.1-3.6,3.9-6.5c2.3-3,4.8-4.4,7.7-4.4 H2143.7z M2076.3,1886.5v9.9h-6.8v-9.9H2076.3z M2113.9,2001.2v10h-7.7v-10H2113.9z M2041.4,1926.2l-9.4,5.5l-0.8-3.3 c0,0,1.6-2.6,5.1-7.7L2041.4,1926.2z M1987.7,1856.7v7.7C1977.7,1864.5,1977.7,1856.7,1987.7,1856.7z M1831.3,1890.2 c0.6,0,3.1,1.8,7.7,5.5l-9.4,11.1l-4.3-5.5l-0.8-2.2c0-0.7,1.7-3.6,5.1-8.8H1831.3z M1840.7,1925.5c15.5,0,9,50.8-1.7,0H1840.7z M1816,1949.7c3.4,5.9,5,9.6,5,11.1l-0.8,2.2l-9.4-7.7L1816,1949.7z M1813.2,2524.3l-3.7,5.3l-1.1-11.1L1813.2,2524.3z M1772.4,2432.1l-4.4,6.3l-0.3-12.2L1772.4,2432.1z M2003.8,2180.7c7.4,5.9,11.1,13.6,11.1,23.1l-1.7,5.5c-4-2.2-6.8-5.5-8.6-9.9 c-1.7-4.4-2.2-8.8-1.7-13.2L2003.8,2180.7z M1966.3,2203.8c3.4,2.2,5.2,5.1,5.2,8.8c0,4.4-1.7,7.7-5.2,9.9l-5.1-7.7v-2.2 C1961.2,2211.9,1962.9,2208.9,1966.3,2203.8z M1957,2239.1l-5.1,7.7l-8.5-13.3l4.2-5.5L1957,2239.1z M1896.4,2190.6 c3.5,4.4,5.2,10.6,5.2,18.7c0,9.5-3.1,14-9.4,13.2h-0.8v-17.6C1891.4,2199,1893,2194.3,1896.4,2190.6z M1928.8,2246.8 c3.4,5.1,5.2,8.1,5.2,8.8v2.2l-9.4-5.5L1928.8,2246.8z M1889.6,2236.8v9.9h-7.6v-9.9H1889.6z M1849.6,2198.3v3.2 c0,0.8-0.5,1.7-1.3,2.9c-0.8,1-1.9,2.7-3,4.9l-5-5.5c4.5-3.7,7.1-5.5,7.7-5.5H1849.6z M2674,1658.4l-6.8,9.4l-6.5-7.8l6.8-9.4 L2674,1658.4z M2635.7,1661.1l-3.8,5.3l-1-11.1L2635.7,1661.1z M2553.5,1626.3c0.6,3.3-0.4,6.7-2.9,10.2c-2,2.8-4.8,5.2-8.4,7.4 c-3.5,2.1-8.2,3.7-14,4.6l-0.3-10.1c0.5-2,1-3.4,1.4-4.1c1-1.3,1.5-2.1,1.5-2.1C2533.4,1628.9,2541,1626.8,2553.5,1626.3z M2701.6,2055.3c4.7,23.1-34.1,1.3-12.6-5.9l5.8-2C2699.1,2052,2701.4,2054.5,2701.6,2055.3z M2770.9,1868.5l-6.6,2.2l-1.8-8.5 l6.7-2.3L2770.9,1868.5z M2713.4,2022.7c-1.5,3.6-3.7,5.9-6.5,6.8c-1.1,0.4-2.8,0-5.1-1.2c-2.3-1.1-4.8-2.3-7.7-3.6 c-2.9-1.2-5.6-2.4-8.2-3.4c-2.5-1-4.5-0.9-6.1,0.4l3-6.8c1.4,1,3.4,1.5,6,1.4c2.6-0.1,5.5-0.2,8.8-0.1c3.2,0,6.3,0.5,9.1,1.4 C2709.5,2018.6,2711.8,2020.2,2713.4,2022.7z M2727.6,1949.5c-0.8,4.8-2.7,7.7-5.3,8.7c-3.8,1.3-6.5-0.1-7.9-4.2l2.8-7.7l1.6-0.6 C2719.9,1945.3,2722.8,1946.5,2727.6,1949.5z M2698,1921.9l-1-5.3l5.2,3.9L2698,1921.9z M2499.4,2364c-7.7,2.6-12,6-12.9,10.1 l-5.3-3.9c0.3-4.6,2.3-7.7,6.2-9l10.7-3.6L2499.4,2364z M2684.8,1951.6c-0.7,2.6-1.9,4.7-3.6,6.4c-1.7,1.7-3.9,3.1-6.6,4 c-5.5,1.8-9.8,1-12.8-2.5l3.6-8.1l9.9-3.4C2678.5,1946.8,2681.7,1948.1,2684.8,1951.6z M2704.7,1898l-6.6,2.3l-1.7-8.6l6.6-2.3 L2704.7,1898z M2726.1,1834.8l-7.4,2.5l-2-9.6l7.5-2.5L2726.1,1834.8z M2479.6,2340.1l-5.5-5l3-6.8l6,3.7L2479.6,2340.1z M2691.5,1868.3l-5.4-5l3-6.7l6.1,3.7L2691.5,1868.3z M2621.8,2023.3c-10.6-0.3-18.2-6-22.8-17.2l3.6-8.2c2.8,2.1,5.7,5.3,8.6,9.6 C2614.1,2011.9,2617.6,2017.1,2621.8,2023.3z M2503.1,2244.1l-1.1-5.3l6,3.6L2503.1,2244.1z M2531,2186.7c0.1,0.7-0.9,4.5-3.1,11.3 l-11.4-8.6l3-6.8l1.7-0.6c0.5-0.2,1.5,0.1,2.8,0.7c1.4,0.7,3.2,1.4,5.7,2.1L2531,2186.7z M2473.4,2310.2l-4.1,1.4l3-6.7 L2473.4,2310.2z M2708.4,1787.3l-5.2-3.9l2.8-7.9l6.3,4.7L2708.4,1787.3z M2502.5,2194.2c-2.9,5.5-4.7,8.5-5.3,8.7l-2.4,0.8 l2.5-13.4L2502.5,2194.2z M2520.4,2160.7c1.2,5.7-0.2,9.2-4.1,10.5c-5.4,1.9-8.9-0.4-10.2-6.7l-0.4-2.2c3.5-5.8,5.5-8.7,6.1-8.9 l1.9,0.5C2517.9,2157,2520.1,2159.3,2520.4,2160.7z M2490.9,2223.3c1.2,5.7-0.2,9.1-4,10.5c-0.5,0.1-2.5,0-5.8-0.4 c-3.3-0.3-8-1-14.1-1.9l10.5-21.9l1.4-1.5c1.2-0.5,4,0.9,8.7,3.8c1.2,2.8,1.9,4.7,2.1,6.1 C2490.2,2220.1,2490.6,2221.9,2490.9,2223.3z M2453.7,2256.6c0.3,1.4-0.7,5.5-2.8,12.3l-11.4-8.6l2.8-7.8l1.6-0.6 c0.5-0.1,3.5,1.2,8.7,3.9L2453.7,2256.6z M2649.9,1807.3l-5.2-3.9l2.8-7.8l6.3,4.7L2649.9,1807.3z M2490.1,2155.1 c0.9,4.3-0.6,7.1-4.4,8.4c-5.5,1.8-9-0.7-10.5-7.8l0.6-1.4l13.2-4.5L2490.1,2155.1z M2665.3,1740.5c-1.2,0.3-2.8,1.5-5,3.4 c-2.2,2-4.3,4.2-6.2,6.7c-1.8,2.5-3.8,4.7-6.1,6.6c-2.3,1.9-4.2,3.2-5.8,3.7c-3.8,1.3-7.9,0.5-12.1-2.7c5-4.7,9.4-8.5,13.5-11.4 c4.1-2.9,7.8-4.9,11.2-6.1C2659.1,1739.1,2662.7,1739,2665.3,1740.5z M2650.8,1704.3l-6.6,2.3l-1.7-8.5l6.5-2.3L2650.8,1704.3z M2554.8,1790.8l-5.4-5l3-6.7l6.1,3.6L2554.8,1790.8z M2528.5,1799.9c-0.7,2.5-1.5,4.3-2.5,5.4c-1,1.1-2,1.8-3,2.2 c-2.3,0.8-5.3-0.1-9.4-2.5c-4-2.5-7.2-3.7-9.5-3.5l3.9-7.1c1.5-1.3,2.2-1.9,2.2-1.9c0.5-0.2,0.8-0.4,0.8-0.4 C2513.3,1791.5,2519.1,1794,2528.5,1799.9z M2501.7,1823.9l-6.6,2.3l-1.7-8.6l6.6-2.2L2501.7,1823.9z M2523.7,1763.9 c-3.8,1.3-6.7,0-8.6-3.9l3.8-7.1c4.6-0.8,8.3-0.5,11.2,0.8c2.9,1.3,4.4,3.4,4.4,6.5L2523.7,1763.9z M2653.8,1651.9l6.6-2.3l1.7,8.5 l-6.6,2.2L2653.8,1651.9z M2707.5,1642.6c0.8-4.8,3-7.9,6.9-9.3c6.6-2.2,10.6,0.2,12.1,7.3l0.4,2.1l-12.3,4.2 C2711.3,1648.1,2708.9,1646.7,2707.5,1642.6z M3379.5,2022.4c0.4,2.1-0.5,6.2-2.7,12.4l-5.5-5c1.8-2.9,3-5,3.6-6.3 c0.6-1.4,1.2-2.1,1.7-2.3l2.7,0.2L3379.5,2022.4z M3386.9,1968.6l3.7-8.1l5.4,5L3386.9,1968.6z M3356.4,2004.1l-7.4-10 c7.9-10.3,11.6-15.4,11-15.2c2.2-0.8,4.1,0.1,5.9,2.6L3356.4,2004.1z M3353.4,1942.4l-1.7,0.6c0,0-2.8-1-8.5-2.8l2.8-7.8 c4.5,4.6,6.7,7.2,6.9,7.9L3353.4,1942.4z M3317.8,1936.3l-3,6.8l1.7-13.1L3317.8,1936.3z M3298.1,1896.4l-6.6,2.2l-1.8-8.5l6.7-2.3 L3298.1,1896.4z M3281,1799.6l-9,3.1l7.7-9.5L3281,1799.6z M3247.2,2267.6c0.3,1.4-0.7,4.8-3.2,10.2l-5.2-3.9 c3.5-5.8,5.3-8.6,5.3-8.6l1.9,0.5L3247.2,2267.6z M3265.6,2189.5l-6.6,2.3l-1.7-8.5l6.6-2.3L3265.6,2189.5z M3231.8,2239.9 c-0.2,4.5-1.9,7.5-5.2,8.6c-3.3,1-6-0.3-7.9-4.3c1.5-4.2,3.6-6.8,6.4-7.8l5.7-1.9L3231.8,2239.9z M3218.6,2196.5l-6.1-3.7l3.8-7 l5.2,3.9L3218.6,2196.5z M3222.5,2138l-6.6,2.3l-1.7-8.5l6.6-2.2L3222.5,2138z M3192.8,2187c-2.3,0.1-4.3,1.9-5.9,5.5 c-1.6,3.5-3.2,7.2-4.8,10.7l-5.2-3.9c4.8-10.8,8.6-16.6,11.4-17.6c0.6-0.2,1.1-0.3,1.7-0.6c0.5-0.1,1.1,0,1.9,0.5L3192.8,2187z M3241,2034.8c0,0-0.8,3.7-2.2,11l-6.3-4.7c1.7-2.9,3-4.8,3.6-5.8c0.8-0.9,1.4-1.6,1.9-1.8l2.5-0.9L3241,2034.8z M3211.1,2000.6 l-4.9,1.7l3.8-7L3211.1,2000.6z M3234.1,1932.3c-0.8,4.8-3.4,8-7.8,9.5l-13.1,4.5c0.4-6.3,5.2-10.9,13.9-13.9 C3230.4,1931.3,3232.7,1931.2,3234.1,1932.3z M3215,1852.1l-6.6,2.2l-1.7-8.5l6.6-2.3L3215,1852.1z M3546.7,1780.3l-6.6,2.3 l-1.7-8.5l6.6-2.3L3546.7,1780.3z">
                     </path>
                  </g>
               </svg>