 <svg xmlns="http://www.w3.org/2000/svg" xmlns:xlink="http://www.w3.org/1999/xlink" id="Layer_1" x="0px"
                  y="0px" viewBox="0 0 2000 2000" style="enable-background:new 0 0 2000 2000;" xml:space="preserve">
                  <style>
                     .st11 {
                        fill: #E50914;
                     }

                     .st12 {
                        fill: #ACACAC;
                     }
                  </style>
                  <g>
                     <g id="XMLID_5_">
                        <path id="XMLID_84_" class="st11"
                           d="M100.9,1462.4H59v-277.7h119.1v42.1h-77.3v75.7h56.5v42.1h-56.5V1462.4z"></path>
                        <path id="XMLID_82_" class="st11" d="M248.8,1462.4h-41.9V1185h41.9V1462.4z"></path>
                        <path id="XMLID_80_" class="st11" d="M400.2,1462.4h-114V1185h41.9v235.8h72.2V1462.4z"></path>
                        <path id="XMLID_78_" class="st11"
                           d="M470.9,1462.4H429v-277.7h60.1l39,199.5l37.4-199.5h57.7v277.7h-41.9v-174.5l-36.3,174.5 h-33.7l-40.5-174.1V1462.4z">
                        </path>
                        <path id="XMLID_75_" class="st11"
                           d="M869.9,1396c0,18.3-6.4,34-19.3,46.9c-12.8,13-28.3,19.5-46.5,19.5h-65.8v-277.7h65.8 c18.3,0,33.8,6.5,46.6,19.5c12.8,13,19.2,28.6,19.2,46.7V1396z M780.2,1421h25.2c6.6,0,12.3-2.4,16.8-7.2 c4.6-4.8,6.9-10.4,6.9-16.9v-145.3c0-6.6-2.3-12.3-7-17.1c-4.7-4.7-10.2-7.1-16.7-7.1h-25.2V1421z">
                        </path>
                        <path id="XMLID_73_" class="st11" d="M948.5,1462.4h-41.9V1185h41.9V1462.4z"></path>
                        <path id="XMLID_67_" class="st11"
                           d="M1051.9,1185c23.3,0,40.4,6.4,51.4,19.3c9.6,11.2,14.4,26.9,14.4,46.9v40.3 c0,19.6-7.5,36.2-22.4,49.8l31,121.1h-45.3l-25.4-104.5c-1.2,0-2.4,0-3.8,0h-24.1v104.5h-41.9V1185H1051.9z M1076.9,1251.9 c0-16.1-8-24.1-23.9-24.1h-25.2v88.8h25.2c6.6,0,12.3-2.4,16.9-7.1c4.6-4.7,7-10.4,7-17.1V1251.9z">
                        </path>
                        <path id="XMLID_39_" class="st11"
                           d="M1162.2,1462.4v-277.7h119.1v42.1H1204v75.7h56.5v42.1H1204v75.7h77.3v42.1H1162.2z"></path>
                        <path id="XMLID_34_" class="st11"
                           d="M1376.6,1466c-18.5,0-34.1-6.5-47.1-19.4c-12.9-12.9-19.4-28.5-19.4-46.8v-151.5 c0-18.5,6.5-34.1,19.5-47.1c13-12.9,28.6-19.4,46.9-19.4c18.5,0,34.1,6.5,46.9,19.5c12.8,13,19.3,28.6,19.3,46.9v31.7h-43.4v-32.6 c0-6.6-2.4-12.3-7.1-17.1c-4.7-4.7-10.4-7.1-17.1-7.1c-6.6,0-12.3,2.4-16.9,7.1c-4.7,4.7-7,10.4-7,17.1v151.9 c0,6.6,2.3,12.3,7,16.9c4.6,4.7,10.3,7,16.9,7c6.6,0,12.3-2.3,17.1-7c4.7-4.6,7.1-10.3,7.1-16.9V1361h43.4v38.8 c0,18.5-6.5,34.1-19.5,46.9C1410.3,1459.6,1394.7,1466,1376.6,1466z">
                        </path>
                        <path id="XMLID_21_" class="st11"
                           d="M1516.1,1227h-44.5V1185h130.6v42.1h-44.3v235.4h-41.8V1227z"></path>
                        <path id="XMLID_9_" class="st11"
                           d="M1697.2,1181.4c18.5,0,34.1,6.5,47.1,19.5c12.9,13,19.4,28.6,19.4,46.9v151.5 c0,18.5-6.5,34.1-19.5,47.1c-13,12.9-28.6,19.4-46.9,19.4c-18.5,0-34.1-6.5-46.9-19.5c-12.8-13-19.3-28.6-19.3-46.9v-151.5 c0-18.5,6.5-34.1,19.5-47.1C1663.5,1187.9,1679,1181.4,1697.2,1181.4z M1720,1247c0-6.6-2.3-12.3-7-16.9c-4.6-4.6-10.3-7-16.9-7 c-6.6,0-12.3,2.3-17.1,7c-4.7,4.7-7.1,10.3-7.1,16.9v151.9c0,6.6,2.4,12.3,7.1,16.9c4.7,4.7,10.4,7,17.1,7c6.6,0,12.3-2.3,16.9-7 c4.7-4.6,7-10.3,7-16.9V1247z">
                        </path>
                        <path id="XMLID_6_" class="st11"
                           d="M1866.6,1185c23.3,0,40.5,6.4,51.4,19.3c9.6,11.2,14.4,26.9,14.4,46.9v40.3 c0,19.6-7.5,36.2-22.4,49.8l31,121.1h-45.3l-25.4-104.5c-1.2,0-2.4,0-3.8,0h-24.1v104.5h-41.8V1185H1866.6z M1891.6,1251.9 c0-16.1-8-24.1-23.9-24.1h-25.2v88.8h25.2c6.6,0,12.3-2.4,16.9-7.1c4.6-4.7,7-10.4,7-17.1V1251.9z">
                        </path>
                     </g>
                     <g>
                        <path id="XMLID_4_" class="st12"
                           d="M544.6,1589.4c0.7,1.4,0.5,2.9-0.4,4.4c-1,1.6-2.4,3.1-4.2,4.7c-1.8,1.6-2.9,3.5-3.2,5.8 c-0.3,2.3-1.7,3.6-4.2,4c-2.5,0.4-5.2,0-8.2-1c-3-1-5.5-1.4-7.7-1.1c-2.1,0.3-4.6,2-7.4,5.2c-2.8,3.2-5.3,6.2-7.4,9.1 c-2.1,2.9-3.7,5.8-4.7,8.6c-1,2.9-0.7,5.5,0.7,7.9c1.4,2.4,3.4,3.9,6,4.7c2.6,0.7,6.4,0.9,11.4,0.3c5-0.5,10.1-1.6,15.3-3.1 c5.2-1.6,10.2-3.2,15.2-5c5-1.8,8.5-3.3,10.8-4.5c2.2-1.3,4.3-0.2,6.2,3.2c-0.6,3.3-2,5.5-4.1,6.7c-2.1,1.2-5.1,2.7-8.9,4.4 c-3.8,1.8-7.8,3.3-12,4.7c-4.2,1.3-8.9,2.6-14.1,3.9c-5.2,1.3-10.8,2.2-16.9,2.8h-4.7c-2.8-0.3-5.5-0.7-8.2-1.2 c-2.7-0.5-5.3-1.8-8-3.9c-2.7-2.1-5-5.2-6.9-9.5l-0.4-4.2c0.3-4.1,1.6-8.4,3.8-12.9c2.2-4.4,5.1-8.7,8.6-12.9 c3.5-4.1,7.5-7.7,12-10.6c4.4-3,8.4-5.1,11.9-6.5c3.5-1.4,5.8-2.7,6.9-3.8c1.1-1.1,3.2-2.2,6.2-3.3c3-1.1,5.8-1.7,8.3-1.7 c2.1,0.2,3.8,0.7,5.2,1.6C542.9,1586.9,543.9,1588,544.6,1589.4z">
                        </path>
                        <path id="XMLID_11_" class="st12"
                           d="M578.2,1633.2c2.4,3.5,5.3,5.4,8.8,5.5c3.5,0.1,6.8-0.8,9.9-2.9c3.1-2.1,6.8-4,11-5.9 c4.2-1.8,8.3-4.1,12.3-6.9c4-2.7,6-6.2,6-10.3c0-4.1-1.6-7.4-4.7-9.6c-3.1-2.3-4.4-5.2-3.9-8.8c0.5-3.5,2.1-6,4.9-7.3 c2.7-1.3,7.3-2.1,13.6-2.2c6.7,1.3,10.7,4.7,12.2,10c1.5,5.3,1.4,10.3-0.3,14.9c-1.7,4.6,0.4,8.7,6.3,12.4 c5.9,3.7,11.2,4.9,15.9,3.7c4.7-1.3,7.3,0.2,7.9,4.3c-0.7,4.4-2,7.1-3.7,8c-1.7,0.9-5.1,1.7-10.3,2.4c-5.2,0.7-11.4-0.8-18.6-4.8 c-7.2-3.9-12.4-4.7-15.5-2.3c-3.1,2.4-7.8,5.4-14,9.2c-6.2,3.8-12.3,6.8-18.3,9c-6,2.2-12.8,3.3-20.5,3.3c-7.1-2.4-12.1-6-15.1-11 c-3-5-4.4-10.4-4.4-16.3c0.7-4.1,3.8-8.7,9.2-13.6c5.4-5,10.6-9.1,15.5-12.4c5-3.3,10-5.8,15.1-7.3c5.1-1.6,8.7-1.3,10.9,0.7 c2.1,2,3.5,4.4,4.2,7.3c0.7,2.9,0.4,5.2-0.9,7c-1.3,1.8-3.1,3-5.5,3.5c-2.4,0.6-5.8,1.4-10.1,2.3c-4.3,1-8.9,3.3-13.9,7.1 C577.1,1626,575.8,1629.7,578.2,1633.2z">
                        </path>
                        <path id="XMLID_13_" class="st12"
                           d="M678.3,1630.8c-7.2,6.1-11.7,8.7-13.3,7.9c-1.6-0.8-2.7-2.5-3.3-5c0-1.6,0.6-3.2,1.7-4.7 c1.1-1.5,4.8-4.9,11.2-10.3c6.4-5.4,13.2-10.8,20.6-16.3c7.4-5.5,14.8-10,22.2-13.6c7.4-3.6,14.7-6.2,22-7.9h3.1 c5.9,0.9,9.9,2.4,12.1,4.7c2.1,2.2,3.1,4.6,2.8,7.2c-0.3,2.6-2.1,6.3-5.5,11.1c-3.4,4.8-8,9.5-13.7,14.2 c-5.8,4.7-10.5,8.6-14.3,12c-3.8,3.3-4.2,4.8-1.2,4.5c3-0.3,7.5-1.7,13.5-4.3c6.1-2.6,11.5-5.4,16.4-8.4c4.9-3,10.1-5.7,15.6-8.1 c5.5-2.4,12.1-4.8,19.6-7.2c7.5-2.4,13.6-3.1,18.3-2.1c4.7,1,7.7,4.1,9.2,9.3c1.5,5.2,0.7,10.3-2.3,15.4c-3,5.1-2.4,7.2,1.9,6.2 c4.3-1,9.3-2.7,15-5.2c5.7-2.5,10.8-4.8,15.3-6.9c4.5-2.1,10-4.6,16.4-7.5c6.4-3,13.2-5.4,20.3-7.2c7.1-1.8,12.7-1.6,16.9,0.7 c4.1,2.3,6.4,5.3,6.9,9.1s-0.9,7.5-3.9,11.2c-3,3.7-5.2,6.9-6.5,9.5c-1.3,2.7,0.6,3.6,5.8,2.9c5.2-0.7,12.2-3.4,21.2-8 c8.9-4.6,16.9-9.6,23.8-15.1c1.3,1.3,2,2.8,2,4.4c0,1.5-0.6,3.2-1.8,5.1c-2.4,3.8-8.7,8.9-19.1,15.2 c-10.4,6.3-22.5,10.3-36.4,12.1c-10.9-0.4-17.3-2.6-19-6.4c-1.7-3.8-1.1-6.9,1.9-9.3c3-2.4,5.5-5.5,7.5-9.5c2.1-4-0.1-4.9-6.5-2.8 c-6.4,2.1-12.5,4.5-18.1,7.1c-5.6,2.6-13,5.2-22.2,8c-9.2,2.7-18.1,5.4-26.9,8.1c-8.8,2.7-15.9,4.1-21.4,4.4H785 c-4.9,0-7.4-1.5-7.5-4.4c0.6-5.2,3.1-9.3,7.4-12.4c4.4-3.1,7.4-6.4,9.2-10c1.8-3.5-0.1-5.1-5.5-4.8c-5.5,0.4-10.8,1.5-16,3.4 c-5.2,1.9-12.1,4.8-20.7,8.6c-8.6,3.8-17.3,7.5-25.8,10.9c-8.6,3.4-15.5,5.7-20.6,6.9c-4.1,1-8.2,1.6-12.2,1.6 c-3.1,0-5.7-0.1-7.7-0.2c-2-0.1-3.5-1.2-4.7-3.1c-1.1-1.9-0.7-4.3,1.3-7c2-2.7,6.7-6.4,14-11.1s13.7-8.9,19.1-12.8 c5.4-3.8,10.6-7.9,15.6-12.1c5-4.2,7-7.4,5.9-9.4c-1.1-2.1-4.1-2.3-9.1-0.7c-5,1.6-10.3,4.2-16.1,7.8c-5.8,3.5-14.1,9.5-25.1,17.7 L678.3,1630.8z">
                        </path>
                        <path id="XMLID_15_" class="st12"
                           d="M943,1626.3c7.1-3.1,15-8.3,23.7-15.6c8.7-7.3,19.8-14.7,33.3-22.4 c13.5-7.7,23.7-14.9,30.4-21.9c6.7-6.9,11-10.9,12.9-11.9c1.8-1,3.4-1.4,4.5-1.4c1.2,0,2.6,0.5,4.2,1.4c1.6,1,2,3.7,1,8.2 c-1,4.5-4.9,10.7-11.9,18.6c-6.9,7.9-13.6,14.2-20.1,19c-6.4,4.7-15.1,13-26.1,24.8c14.9-6.5,27-11.9,36.1-16.3 c9.2-4.4,17.4-7.7,24.8-9.9c7.4-2.2,13.7-3.7,19-4.5c5.2-0.8,9.1,0.1,11.5,2.9c2.4,2.7,2.8,6.9,1.1,12.6 c-1.7,5.7-4.9,10.9-9.6,15.5c-4.7,4.7-7.8,8.3-9.1,10.9c-1.3,2.6,1.1,3.8,7.3,3.7c6.2-0.1,11.2-0.9,15-2.5c3.8-1.6,7.6-3.9,11.3-7 c3.7-3.1,6.3-2.6,8,1.6c-0.7,7.2-4.2,12.7-10.3,16.6c-6.1,3.9-13.9,6.4-23.3,7.4c-9.5,1.1-16.7,1.2-21.8,0.5 c-5.1-0.7-8.6-3.2-10.6-7.3c-2-4.1-1.5-8.4,1.4-12.6c3-4.3,6-8.4,9.2-12.2c3.2-3.8,6.5-7.2,10-10c3.5-2.8,4.2-4.5,2.2-5 c-2-0.5-5.6,0.1-10.8,1.9c-5.2,1.8-13.1,5-23.8,9.6c-10.7,4.7-20.9,9.8-30.5,15.5c-9.6,5.7-21.1,13.7-34.5,24.2 c-13.4,10.4-23.9,19.3-31.6,26.7c-7.7,7.4-17.1,16.4-28.3,27.1c-11.2,10.6-21.2,19-30.2,24.9c-8.9,6-14.7,10.1-17.4,12.3 c-2.5,1.9-5.2,2.9-8,2.9h-0.9c-3.3-0.1-5.2-1.8-6-4.9v-0.9c0-3,3-6.7,8.9-11.1c6.7-4.9,14.9-11.9,24.6-21.1 c9.8-9.2,22.9-20.7,39.4-34.5c16.5-13.8,29-24.5,37.5-32c8.5-7.5,15.6-14.1,21.3-19.6c5.7-5.5,15-14.5,27.8-26.9 c-13.9,6.4-25.5,12.9-34.8,19.5c-9.3,6.7-17.4,12.3-24.2,17.1c-6.8,4.7-11.2,4-13.2-2.1C932.4,1633.4,935.9,1629.4,943,1626.3z">
                        </path>
                        <path id="XMLID_17_" class="st12"
                           d="M1111.7,1613c7.8-7.5,15-13.1,21.6-16.7c6.7-3.6,11.9-6.2,15.6-7.9c3.8-1.6,9-2.8,15.6-3.5 c8.7,0.3,14.6,1.4,17.6,3.4c3,2,5,4.3,6,6.9c1,2.6,1.3,5.5,1.1,8.8c-0.2,3.3,1.2,4.5,4.2,3.8c3-0.7,4.6,0.7,4.8,4.3 c0.1,3.6-1.3,7.4-4.3,11.3c-3,3.9-5.4,6.7-7.2,8.2c-1.8,1.6-2.3,3.3-1.6,5.2c0.7,1.9,2.8,3.3,6.1,4.2c3.3,0.9,7.4,0.7,12.3-0.6 c4.8-1.3,9-3.1,12.6-5.5c3.5-2.4,6.8-3.7,9.6-3.9c2.9-0.2,4.8,0.9,5.7,3.3c-0.1,4.4-1.7,7.9-4.8,10.7c-3.1,2.8-7.6,5-13.4,6.8 c-5.8,1.7-10.5,2.7-14,2.8c-3.5,0.2-5.7,0.2-6.4,0.2c-8.3,0-14.6-1.3-19.1-3.8c-4.9-2.7-8.5-6.1-10.9-10.4 c-6.1,1.6-11.5,3.8-16.3,6.4c-4.8,2.7-9.5,4.7-14,6c-4.5,1.3-9.5,2-15,2c-3.8,0-7.7-1.7-11.7-5.2c-4-3.5-6-10-6-19.6 C1100,1626.2,1104,1620.5,1111.7,1613z M1132.9,1616.1c-5.5,4.6-8.9,8.7-10.4,12.3c-1.5,3.6-1,6.4,1.3,8.3 c2.4,1.9,6.1,2.1,11.3,0.4c5.2-1.6,10.5-3.9,16.1-6.8c5.5-2.9,10.5-5.9,15-9.1c4.4-3.2,7-6.1,7.8-8.9c0.7-2.7,0.5-5.6-0.8-8.5 c-1.3-3-4.2-4.2-8.9-3.8c-4.7,0.4-9.7,2.1-15.1,4.9C1143.8,1607.9,1138.4,1611.6,1132.9,1616.1z">
                        </path>
                        <path id="XMLID_24_" class="st12"
                           d="M1223.6,1625.9c3-1.3,7.5-4.6,13.5-9.9c6.1-5.2,13.2-10,21.4-14.2c8.2-4.2,14.6-7.4,19.3-9.5 c4.7-2.1,9.7-3.4,15.2-3.7c4.9,1.8,7.8,4.7,8.8,8.8c1,4.1,0.6,8.4-1.1,13.1c-1.7,4.7-7.9,12.5-18.5,23.6 c16.9-9.9,28.5-16.7,34.9-20.5c6.4-3.8,11.6-6.1,15.5-7c3.9-0.9,7.3,0.3,10.1,3.7c2.8,3.3,2.8,8.2,0,14.5 c-2.8,6.4-3.7,11.1-2.8,14.2c1,3.1,8.1,2.8,21.3-0.9c13.2-3.7,23.2-7.1,29.8-10.2c-0.4,5.8-2,9.9-4.5,12.3 c-2.6,2.4-10.6,5.8-24.2,10.2c-13.5,4.4-23.6,5.6-30.3,3.8c-6.7-1.8-10.9-4.7-12.6-8.6c-1.8-3.9-2-8.1-0.7-12.5 c1.3-4.4-2.5-3.4-11.6,3.1c-9.1,6.5-17,11.6-23.8,15.3c-6.8,3.7-11.9,6.3-15.3,7.8c-4.6,0-8.2-0.8-10.8-2.3 c-2.6-1.6-4-4.3-4.3-8.3c-0.3-4,1.7-7.7,5.9-11.1c4.2-3.4,8.3-6.9,12.2-10.6c3.9-3.7,6.3-7.5,7.2-11.3c0.9-3.8-1.4-5.1-6.8-3.7 c-5.4,1.4-12.8,5.4-22.2,11.9c-9.4,6.5-15.6,10.6-18.6,12.2c-3,1.6-7.2,2.7-12.5,3.1C1218.8,1631.6,1220.7,1627.2,1223.6,1625.9z">
                        </path>
                        <path id="XMLID_26_" class="st12"
                           d="M1375.8,1625.1c3.8-3,9.6-7.2,17.4-12.5c7.8-5.3,16-10.6,24.6-15.7c8.6-5.2,16.6-9,23.8-11.5 c4.1-1.3,7.7-2,10.6-2c2.4,0,4.4,0.4,6,1.1c3.8,1.9,6.4,4.4,7.7,7.5c1.3,3.1,0.4,7-2.4,11.6c-2.9,4.7-7.4,9.2-13.5,13.5 c-6.1,4.4-11.7,8.1-16.6,11.1c-5,3-7.4,5.6-7.4,7.7s2.1,3.9,6.4,5.5c4.3,1.6,10.9,1.7,19.7,0.3c8.9-1.4,16.5-3.6,23-6.7 c6.4-3,11.7-5.2,15.9-6.5c4.1-1.3,6.6,0,7.3,4c0.7,4-0.2,8.8-2.7,14.5c-2.5,5.7-7.4,11-14.5,15.9c-7.2,4.9-15.6,10.5-25.2,16.9 c-9.6,6.4-19,12.2-28.3,17.5c-9.2,5.3-16.8,11.7-22.7,19.2c-5.9,7.5-6.6,9.9-2.1,7.4c4.5-2.5,10.3-5.9,17.5-10.1 c7.2-4.2,15.3-9.5,24.5-15.7c9.2-6.3,23.8-17.1,43.9-32.4c20.1-15.3,35.1-25.5,45.1-30.6c10-5.1,16.2-7.4,18.7-7 c1.6,0.3,2.4,1.3,2.4,2.9c0,0.9-0.2,2-0.7,3.3c-3,2.5-8.4,6.3-16.4,11.3c-8,5-18.9,12.3-32.7,22c-13.8,9.6-27.3,19.6-40.4,29.8 s-26,19-38.7,26.2c-12.7,7.2-23.7,13.8-33,19.8c-4,1.6-7.5,2.4-10.4,2.4c-1.8,0-3.3-0.3-4.7-0.9c-3.7-1.6-3.8-6.4-0.2-14.2 c3.5-7.8,8.3-14.9,14.3-21.3c6-6.4,12.4-12.1,19.3-17.3c6.9-5.2,13.9-9.8,21.2-13.7c7.2-4,14.1-8.2,20.6-12.6 c6.5-4.4,10.6-8.3,12.4-11.5c1.8-3.3,0.3-4.3-4.3-3.2c-4.7,1.1-10.9,2.2-18.7,3.3c-7.8,1.1-14.6,1.6-20.4,1.3 c-5.8-0.2-10.8-1.8-15.1-4.8c-4.3-3-5.8-6.9-4.5-11.9c1.3-5,4-9.5,8.3-13.6c4.3-4.1,9.5-8.1,15.7-12c6.2-3.8,10.4-6.8,12.6-9 c2.2-2.1,3.5-4,3.8-5.7c0.3-1.6-2.5-1.1-8.3,1.7c-5.8,2.7-12.2,6.2-19.2,10.5c-6.9,4.3-14.7,10.3-23.2,18 c-8.5,7.7-21,12.9-37.4,15.5c3-7.2,6.2-11.5,9.8-12.9C1368.2,1630.3,1371.9,1628.2,1375.8,1625.1z">
                        </path>
                     </g>
                     <g>
                        <path id="XMLID_28_" class="st11"
                           d="M999.5,823.4c-36.7,0-72.7-1.2-108.3-3.7l105,104.5c4.6,4.5,4.6,2.7,8.2,0l105.1-104.6 C1073.3,822.1,1036.7,823.4,999.5,823.4z">
                        </path>
                        <path id="XMLID_29_" class="st12"
                           d="M1370.2,258.2c1,1.9,1.7,4.1,1.7,6.5v55.7c0,7.7-6.2,13.9-13.9,13.9h-45 c-7.7,0-13.9-6.2-13.9-13.9v-55.7c0-2.4,0.6-4.6,1.7-6.5H699.2c1,1.9,1.7,4.1,1.7,6.5v55.7c0,7.7-6.2,13.9-13.9,13.9h-45 c-7.7,0-13.9-6.2-13.9-13.9v-55.7c0-2.4,0.6-4.6,1.7-6.5H598v805.2h30.4c-0.2-0.9-0.3-1.9-0.3-2.8V1005c0-7.7,6.2-13.9,13.9-13.9 h45c7.7,0,13.9,6.2,13.9,13.9v55.7c0,1-0.1,1.9-0.3,2.8h163.7L969.8,958l22.3,22.2l-83.2,83.3h182.6L842.4,815.5 c-19.6-2-39.1-4.3-58.5-7.1c-0.7-0.1-1.2-0.6-1.3-1.3l-3.1-22.1c-0.1-0.9,0.7-1.8,1.6-1.6c0,0,0,0,0,0c5.6,0.8,16.4,1.6,22,2.3 l-34.3-312.2c-0.3-2.5,1.7-4.6,4.2-4.6h19.9c2.1,0,3.9,1.6,4.2,3.6l34.8,316.6c0,0.3,0,0.6,0.1,1c54.7,5.9,110.7,9,167.3,9 c56.9,0,113.3-3,168.3-9.1c0-0.3,0-0.6,0.1-0.8l34.8-316.6c0.3-2.1,2.1-3.6,4.2-3.6h19.9c2.5,0,4.5,2.2,4.2,4.6l-34.3,312.1 c5.3-0.7,15.8-1.4,21-2.2c0.4-0.1,0.7-0.1,1.1-0.1c0.9-0.1,1.7,0.8,1.6,1.7l-3.1,22c-0.1,0.6-0.6,1.2-1.3,1.3 c-19.2,2.7-38.4,5-57.7,7l-131.1,130.5c-1.2,1.2-3.6,2.9-3.6,4.6c0,1.7,2.4,3.4,3.6,4.6l109,108.4h163.1c-0.2-0.9-0.3-1.9-0.3-2.8 V1005c0-7.7,6.2-13.9,13.9-13.9h45c7.7,0,13.9,6.2,13.9,13.9v55.7c0,1-0.1,1.9-0.3,2.8h30.4V258.2H1370.2z M700.9,875.6 c0,7.7-6.2,13.9-13.9,13.9h-45c-7.7,0-13.9-6.2-13.9-13.9v-55.7c0-7.7,6.2-13.9,13.9-13.9h45c7.7,0,13.9,6.2,13.9,13.9V875.6z M700.9,690.5c0,7.7-6.2,13.9-13.9,13.9h-45c-7.7,0-13.9-6.2-13.9-13.9v-55.7c0-7.7,6.2-13.9,13.9-13.9h45 c7.7,0,13.9,6.2,13.9,13.9V690.5z M700.9,505.5c0,7.7-6.2,13.9-13.9,13.9h-45c-7.7,0-13.9-6.2-13.9-13.9v-55.7 c0-7.7,6.2-13.9,13.9-13.9h45c7.7,0,13.9,6.2,13.9,13.9V505.5z M1177,629.7c-0.2,2-1.6,3.6-3.4,4.1c-179.3,51.8-326,7.4-347.5,0.1 c-1.7-0.6-2.9-2.1-3.2-4l-16.5-148.4c-0.2-1.9,1.4-3.5,3.2-3c44.9,12.9,204.7,51.1,380.8-0.1c1.7-0.5,3.4,1,3.2,2.9L1177,629.7z M1371.9,875.6c0,7.7-6.2,13.9-13.9,13.9h-45c-7.7,0-13.9-6.2-13.9-13.9v-55.7c0-7.7,6.2-13.9,13.9-13.9h45 c7.7,0,13.9,6.2,13.9,13.9V875.6z M1371.9,690.5c0,7.7-6.2,13.9-13.9,13.9h-45c-7.7,0-13.9-6.2-13.9-13.9v-55.7 c0-7.7,6.2-13.9,13.9-13.9h45c7.7,0,13.9,6.2,13.9,13.9V690.5z M1371.9,505.5c0,7.7-6.2,13.9-13.9,13.9h-45 c-7.7,0-13.9-6.2-13.9-13.9v-55.7c0-7.7,6.2-13.9,13.9-13.9h45c7.7,0,13.9,6.2,13.9,13.9V505.5z">
                        </path>
                     </g>
                  </g>
               </svg>